<?xml version="1.0" encoding="UTF-8"?>
<svg id="Discord.gg-_x40_marazm" xmlns="http://www.w3.org/2000/svg" version="1.1" viewBox="0 0 898.46 836.06">
  <!-- Generator: Adobe Illustrator 30.1.0, SVG Export Plug-In . SVG Version: 2.1.1 Build 136)  -->
  <defs>
    <style>
      .st0 {
        fill: #777;
      }

      .st1 {
        fill: none;
        stroke: #000;
        stroke-width: 1.2px;
      }

      .st2 {
        fill: #987f00;
      }

      .st3 {
        fill: #363636;
      }

      .st4 {
        fill: #555;
      }
    </style>
  </defs>
  <g id="Ground_Floor">
    <g id="Floor">
      <path class="st3" d="M857.83,609.43h-22.8v-283.2l-17.4-2.4v49.2h-1.8v-161.4h1.8v109.2l17.4,2.4v-145.8h-17.4v29.4h-1.8v-29.4h-33V34.63h-38.4v142.8h-108v30h-1.8v-34.2h-19.2v39h-15v-24.6h-5.4v-1.2h5.4v-34.8h-30v34.8h17.4v1.2h-17.4v13.8h-1.8v-37.2h-45.6v36.6h-1.8v-36.6h-42.6v50.4h-.6v-42h-19.2v40.2h-1.8V45.43h-30.6v-2.4h30.6v-17.4h-106.2v17.4h70.8v3h-115.2v-3h18v-17.4h-178.8v19.8h-29.4v28.2h3.6v1.8H25.63v39h123.6v1.8h-9.6v93.6h13.2v15.6h13.8v-9h2.4v9.6h137.4v34.8h-72v18h72v24.6h-20.4v-1.2h19.2v-22.2h-28.8v22.2h3v1.2h-3v61.8h-147v38.4h146.4v242.4h15v146.4h38.4v-146.4h69.6v1.2h-13.8v15.6h12v1.8h-13.8v-17.4h-30v107.4h73.8l-.6-12,15.6-1.2.6,8.4,55.8-1.2,15-4.8,25.2,3.6,25.2,6.6,25.8-.6,3.6,24.6h70.8v8.4h37.2v-28.8h-40.8v-51h1.8v46.8h38.4v-118.2h67.8v102h48.6v73.8h38.4v-73.8h3.6l-1.2-127.8h0ZM820.63,635.23v5.4h-4.2v-5.4h1.2v-25.8h-9v-1.8h3v-3.6h4.2v-1.8h1.8v2.4h1.8v30.6h1.2ZM817.63,386.23v12.6h-1.8v-4.8h-4.2v-4.2h4.2v-4.2l1.8.6h0ZM817.63,412.03v7.8h-1.8v-7.8h1.8ZM817.63,436.03v6h-1.8v-6h1.8ZM817.63,458.83v82.2h-1.8v-82.2h1.8ZM817.63,557.23v6h-1.8v-6h1.8ZM817.63,580.03v6h-1.8v-6h1.8ZM800.83,607.03v1.8h-85.2v-1.8h85.2ZM708.43,607.03v1.8h-5.4v4.2h-5.4v-4.2h4.2v-1.8h6.6ZM671.83,520.03v6.6h-34.8v16.2h-63v30h63v19.8h-1.8v-12.6h-19.2v19.2h7.2v4.8h-1.2v-2.4h-46.2v-1.2h2.4v-20.4h-12.6v20.4h6v1.2h-6.6v17.4h-1.2v-88.8h70.8v-64.8h22.8v2.4h-20.4v55.8h32.4v-3.6h2.4ZM671.83,465.43v48.6h-2.4v-46.2h-6v-2.4h8.4ZM661.63,607.03v15.6h-1.8v-13.8h-6.6v-1.8s8.4,0,8.4,0ZM661.63,629.83v27h-103.8v-10.8h2.4v-4.8h3.6v-17.4h1.2v21.6h31.8v-34.8h24.6v-2.4h1.2v24.6h-1.2v-20.4h-23.4v33.6h23.4v-8.4h1.2v8.4h12v-47.4h1.8v9h9.6v1.8h-9.6v36h22.8v-15.6h2.4ZM661.63,674.83v11.4h-1.8v-9.6h-123.6v-29.4h-19.8v19.2h-3.6v-2.4h1.8v-16.8h-1.8v-1.2h27.6v28.8h121.2ZM641.23,247.03v4.2h-7.2v-25.2h-22.2v-1.8h22.2v-9.6h1.8v33l5.4-.6h0ZM641.23,390.43v4.2h-4.8v18h-1.8v-21.6h6.6v-.6ZM636.43,418.03v24h-4.8v-5.4h-67.8v5.4h-4.2v-5.4h-67.2v4.8h-4.2v-4.8h-66.6v5.4h-3.6v-4.8h-7.2v-1.8h6.6v-4.8h4.2v4.8h67.2v-4.2h4.2v4.2h67.2v-4.8h4.2v4.8h67.2v-4.8h3.6v-12l1.2-.6h0ZM616.03,31.03h-157.2v66.6h16.2v31.8h-16.2v33.6h109.2v-12.6h33.6v18.6h14.4V31.03ZM605.23,224.23v1.8h-132.6v-1.8h132.6ZM507.43,646.03v1.2h-12.6v16.8h12.6v2.4h-13.8v8.4h-36v16.8h-35.4v-27h-16.8v-1.8h16.8v-15.6h-18v-1.2h30.6s72.6,0,72.6,0ZM465.43,224.23v1.8h-131.4v-31.2h2.4v28.8h120v-3h1.8v3.6h7.2ZM352.63,435.43v1.8h-3v5.4h-4.2v-5.4h-1.8v-1.8h1.8v-4.8h4.2v4.8h3ZM300.43,43.03v3h-49.2v-3h49.2ZM245.23,43.03v2.4h-33v-2.4h33ZM206.23,43.03v2.4h-37.2v14.4h-1.8v-16.8h39ZM169.03,66.43v9h-40.8v-1.8h39v-7.2h1.8ZM169.03,114.43v91.2h-2.4v-89.4h-10.8v-1.8h13.2Z"/>
    </g>
    <g id="Ledge">
      <path class="st4" d="M557.23,301.03v58.8h-204.6v-58.8h204.6Z"/>
      <path class="st4" d="M613.03,499.03v9h-39.6v-9h39.6Z"/>
      <path class="st4" d="M613.03,469.63v9h-39.6v-9h39.6Z"/>
      <path class="st4" d="M457.03,223.63h-120v-28.8h120v28.8Z"/>
    </g>
    <g id="Obstacles">
      <path class="st0" d="M735.43,181.03v28.8h-10.2v-28.8s10.2,0,10.2,0Z"/>
      <path class="st0" d="M785.23,402.43v32.4h-78v-32.4s78,0,78,0Z"/>
      <path class="st0" d="M728.83,263.23v11.4h-12.6v-11.4h12.6Z"/>
      <path class="st0" d="M508.03,450.43v16.8h-33v-16.8h33Z"/>
      <path class="st0" d="M504.43,471.43l-1.8,16.8-33-3.6,1.8-16.8,33,3.6Z"/>
      <path class="st0" d="M411.43,541.63l-15.6,6-11.4-31.2,15.6-6,11.4,31.2Z"/>
      <path class="st0" d="M394.63,569.83v16.8h-33v-16.8h33Z"/>
      <path class="st0" d="M398.83,599.23v16.8h-33v-16.8h33Z"/>
      <path class="st0" d="M424.63,565.63v31.2h-16.8v-31.2h16.8Z"/>
      <path class="st0" d="M472.63,632.83v-15h-37.2v15h37.2Z"/>
      <path class="st0" d="M335.23,482.83l31.2-10.8-3.6-10.8-31.2,10.8,3.6,10.8Z"/>
      <path class="st0" d="M347.23,316.03l-12.6-28.8,10.2-4.2,12.6,28.8-10.2,4.2Z"/>
      <path class="st0" d="M835.03,467.83c0,1.2-.6,11.4-.6,11.4h-6l.6-11.4h6Z"/>
      <path class="st0" d="M772.03,161.83l-10.2-1.2,3.6-28.8,10.2,1.2-3.6,28.8Z"/>
      <path class="st0" d="M563.23,378.43v29.4h10.2v-29.4h-10.2Z"/>
      <path class="st0" d="M595.03,434.83l2.4-28.8-10.2-1.2-2.4,28.8,10.2,1.2Z"/>
      <path class="st0" d="M626.83,416.83h-29.4v10.2h29.4v-10.2h0Z"/>
      <path class="st0" d="M785.23,350.23v31.8h-78v-31.8h78Z"/>
      <path class="st0" d="M551.83,605.23l-3-.6v1.2h-1.2l1.2-7.8h-.6l-1.2,7.8-3-.6,1.2-7.8h-.6l-1.2,7.8h-1.2v-1.2l-3-.6-.6,6h1.2l-1.8,14.4,9.6,1.8,1.8-14.4h1.2c.6,0,1.2-6,1.2-6Z"/>
      <path class="st0" d="M487.63,614.83h3v-1.2h1.2v8.4h.6v-7.8h3v7.8h.6v-7.8h1.2v1.2h3v-6h-1.2l.6-15-10.8-.6-.6,15h-.6v6Z"/>
      <path class="st0" d="M540.43,578.23h3v-1.2h1.2v8.4h.6v-7.8h3v7.8h.6v-7.8h1.2v1.2h3v-6h-1.2l.6-15-10.8-.6-.6,15h-1.2c1.2,0,.6,6,.6,6Z"/>
      <path class="st0" d="M520.03,527.23l2.4-1.8-.6-1.2,1.2-.6,4.2,6.6.6-.6-3.6-6,2.4-1.8,4.2,6.6.6-.6-4.2-6.6,1.2-.6.6,1.2,3-1.8-3-4.8-1.2.6-7.8-12.6-9.6,6,7.8,12.6-1.2.6,3,4.8h0Z"/>
      <path class="st0" d="M325.63,227.23h-3v1.2h-1.2l-.6-7.8h-1.2l.6,7.8h-3l-.6-7.8h-.6l.6,8.4h-1.2v-1.2h-3l.6,6h1.2l1.2,14.4,10.8-1.2-1.2-15h1.2l-.6-4.8h0Z"/>
      <path class="st0" d="M229.03,95.83l1.2-3-1.2-.6.6-1.2,7.8,2.4v-.6l-7.8-2.4,1.2-3,7.2,2.4v-.6l-7.8-2.4.6-1.2,1.2.6,1.2-3-5.4-1.8-.6,1.2-14.4-4.2-3,10.8,14.4,4.2-.6.6,5.4,1.8h0Z"/>
      <path class="st0" d="M807.43,702.43l-3,.6v1.2h-1.2l-.6-7.8h-.6l.6,7.8-3,.6-.6-7.8h-.6l.6,8.4h-1.2v-1.2l-3,.6.6,6h1.2l1.2,14.4,10.8-1.2-1.2-14.4h1.2l-1.2-7.2h0Z"/>
      <path class="st0" d="M827.83,680.23l3,.6.6-1.2,1.2.6-1.8,7.8h.6l1.8-7.2,3,.6-1.8,7.8h.6l1.8-7.8,1.2.6-.6,1.2,3,.6,1.2-5.4-1.2-.6,3.6-14.4-10.8-2.4-3.6,14.4-1.2-.6-.6,5.4h0Z"/>
      <path class="st0" d="M619.03,496.63v14.4h-38.4v-14.4h38.4Z"/>
      <path class="st0" d="M476.23,247.63l1.8,2.4,1.2-.6,1.2,1.2-6,5.4.6.6,6-4.8,1.8,2.4-6,4.8.6.6,6-5.4.6,1.2-1.2.6,1.8,2.4,4.2-3.6v-1.2l11.4-9.6-7.2-8.4-11.4,9.6-1.2-1.2-4.2,3.6h0Z"/>
      <path class="st0" d="M753.43,80.23l3,1.2.6-1.2,1.2.6-3,7.2h.6l3-7.2,3,1.2-3,7.2.6.6,3-7.8,1.2.6-.6,1.2,3,1.2,2.4-5.4-1.2-.6,5.4-13.8-10.2-3.6-5.4,13.8-1.2-.6-2.4,5.4h0Z"/>
      <path class="st0" d="M799.03,292.03l-1.8-2.4-1.2.6-.6-1.2,6.6-4.8-.6-.6-6,4.8-1.8-2.4,6-4.8-.6-.6-6.6,4.8-.6-1.2,1.2-.6-1.8-2.4-4.8,3.6,1.2,1.2-12,9,6.6,9,12-9,.6,1.2c0-1.2,4.2-4.2,4.2-4.2Z"/>
      <path class="st0" d="M740.83,569.23l-1.2-3-1.2.6-.6-1.2,7.8-2.4v-.6l-7.2,2.4-1.2-3,7.2-2.4v-.6l-7.8,2.4-.6-1.2,1.2-.6-1.2-3-5.4,1.8.6,1.2-13.8,4.8,3.6,10.8,13.8-4.8.6,1.2,5.4-2.4h0Z"/>
      <path class="st0" d="M672.43,771.43l-1.2-3-1.2.6-.6-1.2,7.2-3-.6-.6-7.2,3-1.2-3,7.2-3-.6-.6-6.6,3-.6-1.2,1.2-.6-1.2-3-5.4,2.4.6,1.2-13.8,5.4,4.2,10.2,13.8-5.4.6,1.2,5.4-2.4h0Z"/>
      <path class="st0" d="M443.83,718.63l33,16.2-6.6,12.6-33-16.2,6.6-12.6Z"/>
      <path class="st0" d="M527.23,722.23v39h-14.4v-39h14.4Z"/>
      <path class="st0" d="M564.43,676.63v19.2h-13.2v-19.2h13.2Z"/>
      <path class="st0" d="M578.23,710.23l8.4,9-31.8,28.2-8.4-9,31.8-28.2Z"/>
      <path class="st0" d="M638.23,725.83h18.6v13.2h-18.6v-13.2Z"/>
      <path class="st0" d="M496.03,735.43l-19.2.6.6,12.6,19.2-.6-.6-12.6Z"/>
    </g>
    <g id="Stairs">
      <g id="Stairs-down">
        <path id="stair-1" class="st2" d="M301.03,260.23h-67.2v18h67.8v-18h-.6Z"/>
        <path id="stair-2" class="st2" d="M187.63,206.83v-39.6h-18v39.6h18Z"/>
        <path id="stair-3" class="st2" d="M151.03,168.43v17.4h-9v-17.4h9Z"/>
        <path id="stair-4" class="st2" d="M422.23,195.43h-18.6v8.4h18.6v-8.4Z"/>
        <path id="stair-7" class="st2" d="M301.63,476.83v54.6h-18v-54.6h18Z"/>
        <path id="stair-8" class="st2" d="M492.43,548.23h-49.8v18h49.8v-18Z"/>
        <path id="stair-220" class="st2" d="M573.43,542.83h61.8v30h-61.2c0-.6,0-30-.6-30Z"/>
        <path id="stair-221" class="st2" d="M638.23,617.23v17.4h7.8v-17.4h-7.8Z"/>
        <path id="stair-222" class="st2" d="M815.23,616.63h-8.4v17.4h8.4v-17.4Z"/>
        <path id="stair-223" class="st2" d="M496.63,301.03v8.4h-29.4v-8.4h29.4Z"/>
        <path id="stair-224" class="st2" d="M512.83,352.03v8.4h-29.4v-8.4h29.4Z"/>
        <path id="stair-136" class="st2" d="M834.43,347.83v17.4h-7.8v-17.4h7.8Z"/>
        <path id="stair-140" class="st2" d="M305.23,225.43v-7.8h-17.4v7.8h17.4Z"/>
        <path id="stair-138" class="st2" d="M692.83,344.83v18h7.2v-18h-7.2Z"/>
        <path id="stair-139" class="st2" d="M647.23,494.83v-17.4h-8.4v17.4h8.4Z"/>
        <path id="stair-143" class="st2" d="M424.63,26.83h17.4v8.4h-17.4v-8.4Z"/>
      </g>
      <g id="Stairs-up">
        <path id="stair-69" class="st2" d="M205.03,134.83h-36.6v16.2h36.6v-16.2ZM198.43,142.63v.6h-22.8v-.6h22.8Z"/>
        <path id="stair-96" class="st2" d="M456.43,110.83h-34.8v16.2h34.8v-16.2ZM449.23,118.63v.6h-21.6v-.6h21.6Z"/>
        <path id="stair-97" class="st2" d="M312.43,338.23h-36v16.2h36v-16.2ZM305.23,346.03v.6h-22.2v-.6h22.2Z"/>
        <path id="stair-100" class="st2" d="M312.43,447.43h-36v16.2h36v-16.2ZM305.23,455.23v.6h-22.2v-.6h22.2Z"/>
        <path id="stair-101" class="st2" d="M742.03,605.83v-34.8h-16.2v34.8h16.2ZM734.23,599.23h-.6v-21.6h.6v21.6Z"/>
        <path id="stair-129" class="st2" d="M611.83,305.83h-36.6v16.2h36.6v-16.2ZM604.63,313.63v.6h-22.2v-.6h22.2Z"/>
        <path id="stair-62" class="st2" d="M694.63,193.63v-16.2h25.2v16.2"/>
        <path id="stair-127" class="st2" d="M634.63,207.43v-37.8h-19.2v38.4h19.2v-.6ZM625.63,198.43h-1.2v-19.8h1.2v19.8Z"/>
        <path id="stair-128" class="st2" d="M478.03,207.43v-37.8h-19.2v38.4h19.2v-.6ZM468.43,198.43h-1.2v-19.8h1.2v19.8Z"/>
        <path id="stair-63" class="st2" d="M348.43,173.83v17.4h-7.8v-17.4"/>
        <path id="stair-130" class="st2" d="M439.03,173.83v17.4h-7.8v-17.4"/>
        <path id="stair-131" class="st2" d="M617.23,530.23v-8.4h-22.2v8.4h22.2Z"/>
        <path id="stair-132" class="st2" d="M636.43,526.03v7.2h33v-7.2h-33Z"/>
        <path id="stair-140-2" class="st2" d="M305.23,225.43v-7.8h-17.4v7.8h17.4Z"/>
        <path id="stair-141" class="st2" d="M305.23,311.83v-7.8h-17.4v7.8h17.4Z"/>
        <path id="stair-155" class="st2" d="M747.43,340.63h20.4v-7.2h-20.4v7.2Z"/>
        <path id="stair-226" class="st2" d="M719.83,451.63h21.6v-7.2h-21.6v7.2Z"/>
        <path id="stair-135" class="st2" d="M482.83,97.63v19.2h-8.4v-19.2h8.4Z"/>
      </g>
    </g>
    <g id="Wall">
      <path class="st1" d="M392.23,64.63l36.6-3.6,1.2,14.4-36.6,3.6"/>
      <path class="st1" d="M349.03,76.03v36.6"/>
      <path class="st1" d="M334.03,76.03v36.6"/>
      <path class="st1" d="M283.63,59.23l23.4,67.2"/>
      <path class="st1" d="M269.23,64.03l24,66"/>
      <path class="st1" d="M663.43,247.03h36.6"/>
      <path class="st1" d="M663.43,260.83h36.6"/>
      <path class="st1" d="M732.43,266.23v37.2h36"/>
      <path class="st1" d="M749.83,266.23v37.2"/>
      <path class="st1" d="M732.43,310.63v10.2h36"/>
      <path class="st1" d="M701.83,607.63h-31.2"/>
      <path class="st1" d="M664.03,607.63h-2.4"/>
      <path class="st1" d="M92.23,75.43v8.4"/>
      <path class="st1" d="M92.23,90.43v24"/>
      <path class="st1" d="M816.43,737.23h25.2"/>
      <path class="st1" d="M154.63,44.83h-9"/>
      <path class="st1" d="M275.23,380.23v24"/>
      <path class="st1" d="M275.23,373.63v-8.4"/>
      <path class="st1" d="M299.23,646.63h-8.4"/>
      <path class="st1" d="M329.23,646.63h-23.4"/>
      <path class="st1" d="M305.23,719.83h24"/>
      <path class="st1" d="M299.83,719.83h-9"/>
      <path class="st1" d="M743.83,176.83h26.4"/>
      <path class="st1" d="M776.83,176.83h5.4"/>
      <path class="st1" d="M770.83,100.63h-26.4"/>
      <path class="st1" d="M776.83,100.63h5.4"/>
      <path class="st1" d="M637.03,370.03v-49.8"/>
      <path class="st1" d="M637.03,379.03v12"/>
      <path class="st1" d="M647.23,284.83l-4.2,36"/>
      <path class="st1" d="M656.23,322.03l4.2-36"/>
      <path class="st1" d="M599.83,221.23v3"/>
      <path class="st1" d="M599.83,214.63v-3"/>
      <path class="st1" d="M613.63,303.43v-3.6h-25.2"/>
      <path class="st1" d="M578.23,299.83h-3.6v48h39"/>
      <path class="st1" d="M622.03,347.83h15"/>
      <path class="st1" d="M594.43,330.43h42.6"/>
      <path class="st1" d="M613.63,313.03v16.8"/>
      <path class="st1" d="M849.43,737.23h5.4"/>
      <path class="st1" d="M316.63,559.63h10.8v76.2h-10.8"/>
      <path class="st1" d="M301.63,635.83h-10.8v-76.2h10.8"/>
      <path class="st1" d="M245.23,44.83h6.6"/>
      <path class="st1" d="M168.43,75.43v8.4"/>
      <path class="st1" d="M168.43,90.43v24"/>
      <path class="st1" d="M816.43,419.83v16.8"/>
      <path class="st1" d="M816.43,442.03v16.8"/>
      <path class="st1" d="M816.43,540.43v16.8"/>
      <path class="st1" d="M816.43,563.23v16.8"/>
      <path class="st1" d="M816.43,585.43v16.2"/>
      <path class="st1" d="M599.23,46.63l-.6-13.8,15.6-.6,1.2,36-15.6.6-.6-15.6"/>
      <path class="st1" d="M202.63,365.23v8.4"/>
      <path class="st1" d="M202.63,380.23v24"/>
    </g>
    <g id="Building">
      <path class="st0" d="M386.83,352.63c-5.4,0-10.8-2.4-15-6s-6-9.6-6-15,2.4-10.8,6-15,9.6-6,15-6,10.8,2.4,15,6,6,9.6,6,15-2.4,10.8-6,15c-4.2,4.2-9.6,6-15,6Z"/>
      <path class="st0" d="M518.83,352.63c-5.4,0-10.8-2.4-15-6s-6-9.6-6-15,2.4-10.8,6-15,9.6-6,15-6,10.8,2.4,15,6c4.2,4.2,6,9.6,6,15s-2.4,10.8-6,15-9,6-15,6Z"/>
      <path class="st0" d="M454.63,352.63c-5.4,0-10.8-2.4-15-6s-6-9.6-6-15,2.4-10.8,6-15,9.6-6,15-6,10.8,2.4,15,6,6,9.6,6,15-2.4,10.8-6,15-9,6-15,6Z"/>
      <path class="st0" d="M518.83,410.83c-4.8,0-9-1.8-12.6-4.8-3-3-4.8-7.8-4.8-12s1.8-9,4.8-12,7.8-4.8,12.6-4.8,9,1.8,12.6,4.8,4.8,7.8,4.8,12-1.8,9-4.8,12-7.8,4.8-12.6,4.8Z"/>
      <path class="st0" d="M386.83,410.83c-4.8,0-9-1.8-12-4.8s-4.8-7.8-4.8-12,1.8-9,4.8-12,7.8-4.8,12-4.8,9,1.8,12,4.8,4.8,7.8,4.8,12-1.8,9-4.8,12c-3,3-7.8,4.8-12,4.8Z"/>
      <path class="st0" d="M454.63,410.83c-4.8,0-9-1.8-12.6-4.8s-4.8-7.8-4.8-12,1.8-9,4.8-12,7.8-4.8,12.6-4.8,9,1.8,12.6,4.8,4.8,7.8,4.8,12-1.8,9-4.8,12c-3,3-7.8,4.8-12.6,4.8Z"/>
      <path class="st0" d="M789.43,485.83h-10.8v-5.4h-16.8v5.4h-10.8v42.6h10.8v34.2h16.8v-34.2h10.8v-42.6Z"/>
    </g>
  </g>
  <path id="stair-101-2" class="st2" d="M614.83,579.43h-36v18.6h36v-18.6h0ZM608.23,588.43v1.2h-22.2v-1.2h22.2Z"/>
</svg>