<?xml version="1.0" encoding="UTF-8"?>
<svg id="Discord.gg-_x40_marazm" xmlns="http://www.w3.org/2000/svg" version="1.1" viewBox="0 0 898.46 836.06">
  <!-- Generator: Adobe Illustrator 30.1.0, SVG Export Plug-In . SVG Version: 2.1.1 Build 136)  -->
  <defs>
    <style>
      .st0 {
        fill: #777;
      }

      .st1 {
        fill: none;
        stroke: #000;
        stroke-width: 1.2px;
      }

      .st2 {
        fill: #987f00;
      }

      .st3 {
        fill: #363636;
      }
    </style>
  </defs>
  <g id="Second_Floor">
    <g id="Floor-2">
      <path class="st3" d="M280.03,228.43h6v-7.8h17.4v85.2h-29.4v-77.4h6Z"/>
      <path class="st3" d="M778.63,335.23h-12.6v7.8h-60v111h12.6v-7.8h60v-111h0ZM766.03,382.03v27h-47.4v-27h47.4Z"/>
      <path class="st3" d="M669.43,467.83v60.6h-34.8v-60.6h34.8Z"/>
      <path class="st3" d="M692.83,179.83h-58.2v30h-2.4v-34.8h-19.2v39.6h-1.2v-75h-71.4v12h-15.6v-12h-48.6v75h-1.2v-39h-19.2v38.4h-1.8v-20.4h-120v32.4h120.6v-1.2h1.8v1.8h19.2v-6h1.2v6h135v-6h1.2v6h19.2v-10.2h2.4v4.8h10.8v-16.2h47.4v-25.2h0ZM562.63,160.63v54h-37.2v-54h7.2v1.2h-6v25.2h17.4v-25.2h-4.8v-1.2h23.4Z"/>
      <path class="st3" d="M632.23,532.63v-56.4h-17.4v55.8h9v2.4h-3.6v19.8h-1.2v-19.8h-55.8v45.6h4.8v1.2h-4.8v19.8h4.8v1.8h-4.8v42.6h31.2v-5.4h1.8v5.4h34.2v-72h-1.2v-1.2h1.2v-37.8h-1.2v-1.8h3ZM623.83,572.23v1.2h-3v8.4h-7.2v19.2h7.2v28.2h-24.6v5.4h-1.8v-31.8h-21v-1.8h2.4v-19.8h-2.4v-1.2h45v-19.8h1.2v12.6c0-.6,4.2-.6,4.2-.6Z"/>
    </g>
    <g id="Obstacles-2">
      <path class="st0" d="M580.63,155.83v64.2h-4.8v-64.2h4.8Z"/>
      <path class="st0" d="M598.03,154.03v59.4h-4.8v-59.4h4.8Z"/>
      <path class="st0" d="M611.83,158.83v51.6h-2.4v-51.6h2.4Z"/>
      <path class="st0" d="M511.63,153.43v28.2h-3.6v-28.2s3.6,0,3.6,0Z"/>
      <path class="st0" d="M511.63,197.23v28.2h-3.6v-28.2h3.6Z"/>
      <path class="st0" d="M494.23,197.23v28.2h-3v-28.2h3Z"/>
      <path class="st0" d="M494.23,153.43v28.2h-3v-28.2s3,0,3,0Z"/>
      <path class="st0" d="M479.23,158.23v46.8h-2.4v-46.8h2.4Z"/>
      <path class="st0" d="M525.43,176.23v10.2h-2.4v-10.2h2.4Z"/>
    </g>
    <g id="Stairs-2">
      <g id="Stairs-2-down">
        <path id="stair-62" class="st2" d="M692.23,196.03v-16.2h25.2v16.2"/>
        <path id="stair-63" class="st2" d="M346.63,176.23v17.4h-7.8v-17.4"/>
        <path id="stair-130" class="st2" d="M436.63,176.23v17.4h-7.8v-17.4"/>
        <path id="stair-131" class="st2" d="M614.83,532.63v-8.4h-22.2v8.4h22.2Z"/>
        <path id="stair-132" class="st2" d="M634.03,528.43v7.2h33v-7.2h-33Z"/>
        <path id="stair-140" class="st2" d="M302.83,227.83v-7.8h-17.4v7.8h17.4Z"/>
        <path id="stair-141" class="st2" d="M302.83,314.23v-7.8h-17.4v7.8h17.4Z"/>
        <path id="stair-155" class="st2" d="M745.03,343.03h20.4v-7.2h-20.4v7.2Z"/>
        <path id="stair-226" class="st2" d="M717.43,454.03h21.6v-7.2h-21.6v7.2Z"/>
        <path id="stair-135" class="st2" d="M480.43,100.03v19.2h-8.4v-19.2h8.4Z"/>
        <path id="stair-134" class="st2" d="M613.03,581.83h-34.8v18.6h34.8v-18.6ZM606.43,590.83v1.2h-21.6v-1.2h21.6Z"/>
        <path class="st2" d="M533.83,174.43c.6.6,1.8.6,2.4.6s0,1.2,0,1.2c.6,1.8-.6,3-1.2,4.8-.6,1.2,0,2.4-1.2,3-.6,0-1.2,1.2-2.4.6-.6,0-.6-.6-1.2-1.2s-.6-1.2-1.2-1.8c0-.6.6-3,.6-3.6s0-3,1.2-4.2c.6,0,2.4.6,3,.6h0Z"/>
      </g>
      <g id="Stairs-2-up">
        <path id="stair-127" class="st2" d="M632.23,209.83v-37.8h-19.2v38.4h19.2v-.6ZM623.23,200.83h-1.2v-19.8h1.2v19.8Z"/>
        <path id="stair-128" class="st2" d="M475.63,209.83v-37.8h-19.2v38.4h19.2v-.6ZM466.03,200.83h-1.2v-19.8h1.2v19.8Z"/>
        <path id="stair-69" class="st2" d="M202.63,137.23h-36.6v16.2h36.6v-16.2ZM196.03,145.03v.6h-22.8v-.6h22.8Z"/>
        <path id="stair-96" class="st2" d="M454.03,113.23h-34.8v16.2h34.8v-16.2ZM446.83,121.03v.6h-21.6v-.6h21.6Z"/>
        <path id="stair-97" class="st2" d="M310.03,340.63h-36v16.2h36v-16.2ZM302.83,348.43v.6h-22.2v-.6h22.2Z"/>
        <path id="stair-100" class="st2" d="M310.03,449.83h-36v16.2h36v-16.2ZM302.83,457.63v.6h-22.2v-.6h22.2Z"/>
        <path id="stair-101" class="st2" d="M739.63,608.23v-34.8h-16.2v34.8h16.2ZM731.83,601.63h-.6v-21.6h.6v21.6Z"/>
        <path id="stair-129" class="st2" d="M609.43,308.23h-36.6v16.2h36.6v-16.2ZM602.23,316.03v.6h-22.2v-.6h22.2Z"/>
      </g>
    </g>
    <g id="Wall-2">
      <path class="st1" d="M679.63,196.03h3v-16.8"/>
      <path class="st1" d="M671.23,196.03h-33.6v-16.8"/>
      <path class="st1" d="M535.03,167.83h8.4"/>
      <path class="st1" d="M535.03,174.43h8.4"/>
      <path class="st1" d="M535.03,181.63h8.4"/>
      <path class="st1" d="M540.43,151.63h22.2v-3"/>
      <path class="st1" d="M562.63,142.63v-3"/>
    </g>
  </g>
</svg>