<?xml version="1.0" encoding="UTF-8"?>
<svg id="Discord.gg-_x40_marazm" xmlns="http://www.w3.org/2000/svg" version="1.1" viewBox="0 0 420.08 481.88">
  <!-- Generator: Adobe Illustrator 30.1.0, SVG Export Plug-In . SVG Version: 2.1.1 Build 136)  -->
  <defs>
    <style>
      .st0, .st1 {
        stroke-width: .25px;
      }

      .st0, .st1, .st2, .st3 {
        stroke: #000;
      }

      .st0, .st2 {
        fill: none;
      }

      .st4 {
        fill: #777;
      }

      .st2, .st3 {
        stroke-width: .5px;
      }

      .st5 {
        fill: #987f00;
      }

      .st3 {
        fill: #363636;
      }
    </style>
  </defs>
  <path class="st3" d="M.55,236.4h5v13.43h9.35v2.02H5.55v30.85h5.3v25.23h18.23v3.27h7.95v31.15h-12.3v12.62h20.73v-32.72h25.1v92.08h16.75v-19.12h21.6v-18.27h18.08v-9.6h17.15v-61.6h19.02v9.98h7.8v-10.3h33.97v10.3h7.65v-10.25h41.8v-19.38h33.63v66.55h-3.77v20.25h3.77v36.45h63.7v1.5l14.7-.02v-14.67l-14.7.02v-130.95h6.23v-5.3h-6.23v-85.18h-23.23v23.38h9.05v7.8h-26.77v-4.4h-8v4.38h-26.02v-4.38h-8.1v4.38h-27.12v-58.43h-.77v-1.25h2.18v-2.8h41.4c9.42.02,36.67.1,36.67-32.55v-15.1h13.4v-21.38h4.65v-6.93h-41.35v5.93h2.98v4.6h-2.98v6.53h2.98v4.45h-2.98v6.8h13.05v11.4c0,.5.02,1.07.05,1.72.27,7.62.85,24.5-27.17,24.5H71.4v-42.95h9.1v-10.18h-28.53v10.18h9.2v56.45h-8.45v48.1h17.83v27.1H5.55v9.02H.55v5.3h0ZM51.62,268.23v-32h19.15v32h-1.85v-3.6h-15.18v3.6h-2.12ZM60.2,182.5v-10.95h17.35v10.95h-17.35ZM71,146.55v-3.32h92.2v34.45h-14.73v-2.45h-1.57v-13.98h1.57v-11h-40.75v2.98h-2.62v-6.65l-34.1-.03h0ZM87.28,355.77v-20.62h39.62v11.67h-13.88v8.95h-25.75ZM87.47,327.5v-62.12h75.72v31.42h-28.3v8.9h.9v21.83l-48.32-.02h0ZM87.03,237.27v-76.02h18.05v-3.5h1.93v3.5h.7v13.98h-.7v11.2h41.45v-.7h14.73v51.57l-76.15-.03h0ZM170.75,297.38v-32.45h34.07v32.45h-34.07ZM170.88,237.27v-16.68h26.43v-33.3h12.77v-12.05h20.93v-3.32h3.15v33.93h-10.85v31.48h-52.42v-.05ZM170.88,187.07v-43.85h61.52v2.8h2.8v1.4h-1.05v16.95h-3.5v-.88h-27.02v11.7h-12.45v11.85h-20.3v.02ZM212.4,297.38v-32.45h19.7v17.17h13.2v15.25h-32.9v.03ZM231.98,220.93v-7.25h105.38v11.55h1.42v6.23h-1.85v-1.48h-14.98v13.77h14.98v.9h1.5v26.08h-11.17v-10.83h-29.88v19.4-4.35h-34.6v-37.72h-17.93v-16.3h-12.87ZM297.4,395.9v-55.2h41v55.2h-41ZM297.4,327.35v-45.6,9.5l2.38,2.17-.98,1.02,4.88,5.1,1-1,1.58,1.58h32.15v27.25l-41-.02h0ZM308.02,291.4v-5.65h9.73v5.65h-9.73Z"/>
  <path class="st4" d="M273.77,204.6c1.17,0,2.1.95,2.1,2.1s-.95,2.12-2.1,2.1h0c-1.17,0-2.1-.95-2.1-2.1h0c-.02-1.18.93-2.1,2.1-2.1ZM224.45,260.85c1.18,0,2.12.95,2.12,2.1h0c0,1.17-.95,2.1-2.12,2.1s-2.12-.95-2.12-2.1.95-2.1,2.12-2.1h0ZM209.95,303.33c1.18,0,2.12.95,2.12,2.1h0c0,1.17-.95,2.1-2.12,2.1s-2.12-.95-2.12-2.1.98-2.1,2.12-2.1h0ZM107.62,386.92c.6,0,1.1.5,1.1,1.1s-.5,1.1-1.1,1.1-1.1-.5-1.1-1.1.5-1.1,1.1-1.1h0ZM89.32,390.75c.6,0,1.1.5,1.1,1.1s-.5,1.1-1.1,1.1-1.1-.5-1.1-1.1.47-1.1,1.1-1.1h0ZM105.72,394.55v-3.02h1.6v3.02h-1.6ZM102.6,394.55v-3.02h1.6v3.02h-1.6ZM99.47,394.55v-3.02h1.6v3.02h-1.6ZM89.95,360.38l.1-1.85,4.53.25-.1,1.85-4.53-.25ZM90.18,364.38l-.12-1.85,4.53-.3.12,1.85-4.53.3ZM104.2,357.9v-1.75h6.35v1.75h-6.35ZM115.22,349.1v-2.02h10.12v2.02h-10.12ZM118.65,359.55v-5.33h3.1v5.33h-3.1ZM138.95,363.15l-.35-1.62,3.12-.67.35,1.62-3.12.67ZM203.18,242.23l-.1-1.05,5.52-.57.1,1.05-5.52.57ZM202.1,240.68l-.02-1.05,7.23-.12.02,1.05-7.23.12ZM202.98,240.1l.05-1.05,7.23.27-.05,1.05-7.23-.27ZM211.43,239.35l.77-1.12,3.23,2.25-.77,1.12-3.23-2.25ZM195.45,255.27l1.2-1.73,2.57,1.8-1.2,1.72-2.57-1.8h0ZM109.7,262.58v-.73h4.15v.73h-4.15ZM112.88,246.98l1.72-1.73,1,.98-1.72,1.73-1-.98h0ZM103,263.62l1.38-2.73,1.25.62-1.38,2.73-1.25-.62ZM97.25,240.43l-.45-1.7,3.62-.95.45,1.7-3.62.95ZM92,239.9l.25-1.75,3.7.52-.25,1.75-3.7-.52h0ZM91.95,248.75v-1.75h1.82v1.75h-1.82ZM115.6,249.73v-2.73h1.82v2.73h-1.82ZM106.57,263.62v-2.1h2.65v2.1h-2.65ZM127.1,255.65v-2.1h2.65v2.1h-2.65ZM203.62,262.12v-2.1h2.65v2.1h-2.65ZM212.65,262.98v-2.95h1.82v2.95h-1.82ZM223.95,217.1l1.75.05-.05,2.38-1.75-.05.05-2.38ZM279.17,209.52l-.15-1.18,4.95-.6.15,1.18-4.95.6ZM277.95,208.15v-1.45h7.7v1.45h-7.7ZM241.45,276.33l1.98-1.77,1.3,1.45-1.98,1.77-1.3-1.45ZM242,274.55v-2.02h3.02v2.02h-3.02ZM241.95,227.62v-2.88h2.52v2.85h-2.52v.02ZM228.88,227.12l1.75.05-.1,3.55-1.75-.05.1-3.55ZM228.5,243.57l1.75.05-.1,3.55-1.75-.05.1-3.55ZM225.7,248.9l.07-1.75,3.55.15-.07,1.75-3.55-.15ZM226.9,261.95l.5-1.67,3.4,1.05-.5,1.67-3.4-1.05ZM215.88,265.1v-2.95h1.82v2.95h-1.82ZM189.3,304.2l1.43-2.58,1.6.9-1.43,2.58-1.6-.9ZM136,300.08v-1.9h1.85v1.9h-1.85ZM135.32,347.8v-3.48h6.38v3.48h-6.38ZM139.7,360.4v-3h2.88v3h-2.88ZM140.5,367.33v-3.9h2.07v3.9h-2.07ZM138.2,367.33v-3.23h2.07v3.23h-2.07ZM134.88,367.33v-2.62h2.43v2.62h-2.43ZM124.03,374.35v-2.6h1.7v2.62h-1.7v-.02ZM120.9,374.35v-2.6h1.7v2.62h-1.7v-.02ZM117.78,374.35v-2.6h1.7v2.62h-1.7v-.02ZM114.65,374.35v-2.6h1.7v2.62h-1.7v-.02ZM111.55,374.35v-2.6h1.7v2.62h-1.7v-.02ZM107,382.2v-2.62h1.7v2.62h-1.7ZM93.22,363.33v-6.27h1.47v6.27h-1.47ZM98.3,370.62l-.32-2.7,2.65-.33.32,2.7-2.65.33ZM90.4,368.52v-1.8h2.12v1.8h-2.12ZM51.55,306.98l1.58-1.55,1.3,1.3-1.58,1.55-1.3-1.3ZM55.03,306.73l-.62-2.12,1.35-.4.62,2.12-1.35.4ZM18.67,266.5l-1.4-3.12,2.67-1.17,1.4,3.12-2.67,1.17ZM8.85,279.65l-1.4-3.12,2.67-1.17,1.4,3.12-2.67,1.17ZM24.27,234.73l.5,1.75,3.5-1-.5-1.75-3.5,1ZM13.1,249.1l.5-1.75,3.5,1-.5,1.75-3.5-1h0ZM24.98,233.27l.35-3.07,2.17.25-.35,3.07s-2.17-.25-2.17-.25ZM8.75,225.68v-3.23h3.07v3.23h-3.07ZM5.9,229v-6.55h3.08v6.55h-3.08ZM28.02,234.15v-2.3h3.3v2.3h-3.3ZM54.67,194.05l.3-1.7,3.05.52-.3,1.7-3.05-.52ZM59.15,194.82v-2.9h2v2.9h-2ZM61.8,194.82v-1.95h1.22v1.95h-1.22ZM133.1,142.43l1.62-2.55,1.65,1.05-1.62,2.55-1.65-1.05ZM132.8,185.15l.05-2.57,2.45.05-.05,2.57-2.45-.05ZM136.82,184.85l1.5-2.77,2.18,1.18-1.5,2.77-2.18-1.18h0ZM163.85,176.2l.1-3.23,1.62.05-.1,3.23-1.62-.05ZM163.95,180.9l.12-3.75.75.02-.12,3.75-.75-.02ZM171.38,189.88l1.3-2.07,2.1,1.3-1.3,2.07-2.1-1.3ZM161.43,180.82l.05-1.75,2.48.07-.05,1.75-2.48-.07ZM143.98,169.75l.68-1.6,2.27.95-.68,1.6-2.27-.95ZM319.7,212.07l1.23-2.68,2.8,1.27-1.23,2.68-2.8-1.27ZM324.2,211.98l.55-1.23,2.12.98-.55,1.23-2.12-.98ZM327.62,213.32l.17-2.55,1.42.1-.17,2.55-1.42-.1ZM338.08,219.32l1.05-3,1.35.48-1.05,3-1.35-.48ZM337.8,222.32v-1.88h1.9v1.88h-1.9ZM341.12,222v-1.88h2.58v1.88h-2.58ZM337.52,224.57v-1.88h5.73v1.88h-5.73ZM340,206.7v-5.8h3.25v5.8h-3.25ZM328.6,197.6v-2.43h5.67v2.43h-5.67ZM328.6,191.88v-3.73h1.3v3.73h-1.3ZM328.6,185.07v-3.73h1.3v3.73h-1.3ZM336.12,176.52v-1.35h7.12v1.35h-7.12ZM332.5,95.25v-3.6h1.85v3.6h-1.85ZM330.15,95.25v-3.18h1.85v3.18h-1.85ZM326.88,95.25v-1.6h2.75v1.6h-2.75ZM297.88,95.25v-3.18h1.8v3.18h-1.8ZM333.42,185.07v-2.48h6.3v2.48h-6.3ZM333.42,192.5v-2.48h6.3v2.48h-6.3ZM331.38,277.75l-3.15-3.15,1.38-1.38,3.15,3.15-1.38,1.38ZM331.38,281.9l-3.15-3.15,1.38-1.38,3.15,3.15-1.38,1.38ZM331.38,286.05l-3.15-3.15,1.38-1.38,3.15,3.15-1.38,1.38ZM307.62,275.02v-10.05h4.25v10.05h-4.25ZM331.23,339.98l.23-4.02,1.42.08-.23,4.02-1.42-.08ZM323.77,339.08l.45-3.67,5.25.62-.45,3.67-5.25-.62ZM295.2,322.2v-3h1.65v3h-1.65ZM294.25,326.15v-2.6h2.6v2.6h-2.6ZM295.2,329.15v-3h1.65v3h-1.65ZM301.42,340.25v-2.42h3.83v2.42h-3.83ZM298.58,340.25v-4.85h2.85v4.85h-2.85ZM342.08,394.12v-7.12h.7v7.12h-.7ZM286.83,369.58l1.73-1.35.85,1.08-1.73,1.35-.85-1.08ZM288.3,408.85v-6.2h3.4v6.2h-3.4ZM309.25,408.85v-3.3h8.27v3.3h-8.27ZM340.67,394.12v-7.12h.7v7.12h-.7ZM341.38,394.65v-7.15h.7v7.12h-.7v.02ZM340.15,394.65v-7.15h.7v7.12h-.7v.02ZM339.45,395.15v-7.12h.7v7.12h-.7ZM318.7,339.7v-4.85h2.85v4.85h-2.85ZM333.67,339.7v-2.15h2.85v2.15h-2.85ZM344.02,279.12v-3.65h1.73v3.65h-1.73ZM336.52,286.05v-8.23h1.85v8.23h-1.85ZM336.52,275.02v-3.6h1.85v3.6h-1.85ZM331.83,272.95v-1.8h1.85v1.8h-1.85ZM329.02,272.95v-1.8h1.85v1.8h-1.85ZM311.55,285.08l1.45-2.35,1.75,1.08-1.45,2.35-1.75-1.08ZM315.5,284.1l1.05-1.7,1.75,1.08-1.05,1.7-1.75-1.08ZM316.58,275.02v-10.05h4.25v10.05h-4.25ZM307.15,205.27v-2.48h3.15v2.48h-3.15ZM237.82,194.12v-2.48h3.15v2.48h-3.15ZM235.07,160.52v-1.8h1.68v1.8h-1.68ZM198.15,136.38v-1.55h1.57v1.55h-1.57ZM214.35,174.98v-2.27h2.85v2.27h-2.85ZM217.2,174.98v-1.8h13.15v1.8h-13.15ZM221.6,165v-1.05h8.48v1.05h-8.48ZM216.07,166.02v-2.1h5.52v2.1h-5.52ZM207.6,166.02v-2.1h5.52v2.1h-5.52ZM204.07,172.23v-5.8h1.9v5.8h-1.9ZM207.02,185.45v-4.55h2.48v4.55h-2.48ZM199.93,186.8v-2.1h9.57v2.1h-9.57ZM193.75,177.93v-2.1h7.38v2.1h-7.38ZM191.6,182.23v-6.38h2.48v6.38h-2.48ZM195.32,199.65v-8h1.8v8h-1.8ZM195.32,216.98v-16.27h1.8v16.27h-1.8ZM188.85,220.3v-1.52h6.1v1.52h-6.1ZM181.6,220.3v-2.3h5.7v2.27h-5.7v.03ZM172.6,220.3v-1.52h7.57v1.52h-7.57ZM181.27,213.82v-3.52h5.75v3.52h-5.75ZM181.27,205.73v-12.57h5.75v12.57h-5.75ZM171.38,207.88v-16.25h2.43v16.25h-2.43ZM146.27,159.9v-8.82h1.52v8.82h-1.52ZM133.12,175.55v-14.18h3.15v14.18h-3.15ZM118.82,175.55v-14.18h3.18v14.18h-3.18ZM107.12,183.88l.18-6.45.95.02-.18,6.45-.95-.02ZM109.05,183.35l-.35-5.43,1.22-.07.35,5.43-1.22.07ZM107.97,184.55l-.5-7.8,1.38-.1.5,7.8-1.38.1ZM108.07,175.18v-8.95h2.03v8.95h-2.03ZM115.03,153v-2.48h15.62v2.48h-15.62ZM96.65,154.3v-6.45h2.7v6.45h-2.7ZM89.6,154.3v-6.45h2.7v6.45h-2.7ZM82.82,151.73v-3.88h2.7v3.88h-2.7ZM90.53,160.77v-1.73h3.55v1.73h-3.55ZM83.68,160.77v-1.73h3.55v1.73h-3.55ZM76.38,160.2v-6.45h1.55v6.45h-1.55ZM72.45,157.93v-3.1h1.97v3.1h-1.97ZM72,160.57v-2.35h2.78v2.35h-2.78ZM68.25,159.9v-2.82h3.05v2.82h-3.05ZM71.3,184v-1.4h1.43v1.4h-1.43ZM72.88,184.43v-1.43h1.43v1.4h-1.43v.03ZM74.6,184.7v-1.4h1.43v1.4h-1.43ZM83.68,189.77v-2.6h1.85v2.6h-1.85ZM83.1,193.85v-2.6h1.85v2.6h-1.85ZM71.68,194.82v-1.38h1.6v1.38h-1.6ZM63.9,194.82v-1.95h6.85v1.95h-6.85ZM70.75,200.15v-1.82h2.5v1.82h-2.5ZM70.75,202.77v-1.82h2.5v1.82h-2.5ZM70.75,211.25v-2.85h1.8v2.85h-1.8ZM73.25,212.5v-3.27h2.05v3.27h-2.05ZM53.53,233.73v-3.27h2.05v3.27h-2.05ZM73,214.2l-.2-1.85,2.72-.27.2,1.85-2.72.27ZM52.47,235.93v-2.3h3.3v2.3h-3.3ZM28.92,236.48v-2.3h3.3v2.3h-3.3ZM28.02,239.27v-2.3h6.7v2.3h-6.7ZM43.35,267.62v-6.73h2.58v6.73h-2.58ZM42.92,270.7v-2.25h3.03v2.25h-3.03ZM42.08,272.62v-2.25h3.22v2.25h-3.22ZM39.33,272.62v-2.25h2.03v2.25h-2.03ZM31.38,267.62v-2.25h7.55v2.25h-7.55ZM32.45,259.15v-2.25h6.47v2.25h-6.47ZM32.45,245.45v-2.25h6.47v2.25h-6.47ZM26.88,256v-7.68h2.02v7.68h-2.02ZM19.98,249.45v-3.27h2.02v3.27h-2.02ZM17.27,249.12v-3.27h2.02v3.27h-2.02ZM15.5,253.07v-1.75h3.15v1.75h-3.15ZM13.5,254.38v-1.75h1.75v1.75h-1.75ZM15.5,255.5v-1.75h1.77v1.75h-1.77ZM23.58,260.65v-3.52h2.1v3.52h-2.1ZM21.33,260.9v-3.52h2.1v3.52h-2.1ZM12.02,284.95v-2.48h2.93v2.48h-2.93ZM21.73,278.5v-.98h4.85v.98h-4.85ZM21.33,277.5v-.98h5.8v.98h-5.8ZM20.98,276.52v-.98h7.27v.98h-7.27ZM20.75,279.02v-.98h7.27v.98h-7.27ZM24.4,301.45v-4.42h1.92v4.42h-1.92ZM36.88,342.48v-4.42h1.9v4.42h-1.9ZM47.35,321.95v-1.9h3.53v1.9h-3.53ZM82.68,297.62l.68-8.33,1.7.15-.68,8.33-1.7-.15ZM84.88,296.45v-5.58h1.1v5.58h-1.1ZM82.55,288.27v-2.02h2.82v2.02h-2.82ZM71.9,248.95l.3-1.77,3.45.6-.3,1.77-3.45-.6ZM73.4,270.88v-3.33h2.32v3.33h-2.32ZM74.8,299.12v-3.67h2.82v3.67h-2.82ZM71.9,304.75v-10.65h3.82v10.65h-3.82ZM58.2,303.35v-1.9h4.42v1.9h-4.42ZM58.2,306.12v-1.9h4.42v1.9h-4.42ZM59.92,321.95v-1.9h2.72v1.9h-2.72ZM63.35,321.95v-1.9h2.72v1.9h-2.72ZM70.88,377.88v-3.62h1.7v3.62h-1.7ZM70.88,381.4v-3.12h2v3.12h-2ZM75.18,374.65l-.6-2.15,1.95-.55.6,2.15-1.95.55h0ZM74.7,393.67v-4.23h2v4.23h-2ZM70.88,414.08v-23.73h3.43v23.73h-3.43ZM77.43,412.85l3.25-1.38.68,1.58-3.25,1.38-.68-1.58ZM75,413.77v-3.52h1.7v3.52h-1.7ZM84.38,411.48v-3.52h1.7v3.52h-1.7ZM87.28,380.7v-7.65h1.7v7.65h-1.7ZM96.15,382.8v-2.8h5.22v2.83h-5.22v-.03Z"/>
  <path class="st1" d="M37.03,312.27h33.8v-31.2H26.35v20.58h-5.93v1.52h8.73v-20.62h40.28v28.4h-32.4v1.33h0Z"/>
  <path class="st5" d="M328.1,294.9v-4.15l2.95-3.5-2.2-2.2-4.17,3.95v5.9h3.42ZM49.75,293.5v4.3h4.8v-4.3h-4.8ZM29.3,293.5v4.3h4.62v-4.3h-4.62ZM31.6,346.35h5.68v-3.77h-5.67s0,3.77,0,3.77ZM87.28,248.35h2.88v-8.73h-2.88v8.73ZM87.28,262.98h2.88v-9.12h-2.88v9.12h0ZM64.35,167.62v-6.15h-4.22v6.15h4.22ZM239.1,141.88v-2.88h-2.8v2.88h2.8ZM168.38,141.95v-2.88h-2.82v2.88h2.82ZM101.82,140.57h2.88v-3.75h-2.88v3.75ZM302.92,72.45v2.88h2.75v-2.88h-2.75ZM322.17,230.23v9.65h4.17v-9.65h-4.17ZM366.15,410.58v-10.65h-4.1v10.65h4.1ZM355.08,410.58h7.23v-3.8h-7.23v3.8ZM310.02,294.8h7.3v-3.42h-7.3v3.42ZM229.82,240.95v-2.88h-4.75v2.88h4.75ZM235.75,228.77v-2.88h-3.8v2.88h3.8ZM235.5,275.88v-2.88h-3v2.88h3ZM161.85,247.38h3.32v-4.45h-3.32v4.45ZM161.73,259.73h3.25v-4.45h-3.25v4.45ZM203.38,259.67h3.32v-4.4h-3.32v4.4ZM169.35,247.38h3.3v-4.45h-3.3v4.45ZM169.2,259.73h3.32v-4.45h-3.32v4.45ZM210.85,259.67h3.32v-4.4h-3.32v4.4ZM228,260.1h4.3v-4.55h-4.3v4.55ZM302,282.75h2.92v-4.55h-2.92v4.55ZM301.83,262.98h2.83v-3.05h-2.83v3.05ZM326.38,233.62h6.98v-3.43h-6.98v3.43ZM60.12,171.27h9.95v-3.62h-9.95v3.62h0ZM20.3,307.67l9.02-.02v-4.35l-9.02.02v4.35Z"/>
  <path class="st2" d="M231.82,250.82h-40.68v5.57-10.98M80.7,250.85h37.35l.03,5.73v-11.15M126.1,245.38v11.17-5.73h56.92l-.02,5.73v-11.18"/>
  <path class="st0" d="M64.35,161.48v6.15h5.75M170.88,186.25h-2.82M165.8,186.25h-2.6M172.65,247.38h-10.8M169.32,237.27v5.65h3.32M165.18,237.27v5.65h-3.32M170.88,237.27h-7.55M231.82,255.52h-3.82M231.82,260.1l-3.82.02M172.55,255.27h-10.8M169.2,265.35v-5.65h3.32M165.07,265.35v-5.65h-3.32M170.75,265.35h-7.55M214.2,255.27h-10.8M210.85,265.33v-5.65h3.32M206.73,265.33v-5.65h-3.32M212.4,265.33h-7.55M337.5,198.07h6.2v-15.45M343.73,180.1v-5.4M61.15,138.88h36.5v-2.07h7.88M101.85,143.23v-2.65h3.7M232.4,143.23h3.85v-4.25M242.9,143.4h-3.8v-4.4M231,171.9v-1.48M231,165.82v-1.45M170.88,146.88h-2.95M165.93,146.88h-2.73M163.2,143.23h2.35v-4.55M170.88,143.23h-2.5v-4.55M197.43,143.23v-3.18M197.43,136.5v-3.12M305.67,67.45v7.88h-2.75v-7.88M329.2,67.45v16.72h-20.48v-16.72M170.88,220.6v-3.7M170.88,212.27v-25.2M148.48,185.73v-2.05M148.48,179.35v-1.68M76,161.43v-8.93M76,150.05v-3.48M77.55,161.43h-17.42l.08,10.12M87.05,181.02h-3.45M80.85,181.02h-3.3M14.9,250.85h4.98M26.67,252.2h-6.8v-2.43h6.8M26.67,263.85v4.05l19.58-.05v-31.2h-19.58v5.68M26.67,244.88v16.5M130.32,349.67h-3.38M144.1,349.67h-11.52M126.95,361.65v-14.75M126.95,367.33v-3.4M41.08,342.38h-4.47M45.45,342.38h-2.03M87.28,385.12v10.33M87.28,355.8v26.2M76.05,345.67h-5.53M87.28,345.67h-7.35M258.45,241.6h-22.75v19.2h22.8l-.05-19.2h0ZM231.82,260.1v4.83M231.82,237.23v18.3M244.88,224.25h-9.32v5.12M239.93,237.23h-8.1v-16.18M244.88,237.23h-2.7M245.38,277.62h-9.75v-5.02M239.88,264.88h-7.88M245.38,265.35v-.48h-3.15M256.4,274.35h-11.02M262.8,265.35h-17.45v16.7M262.8,274.35h-4.3M304.12,291.27h3.92M338.42,287.23h-2.62M338.4,270.7v22.65M327.27,270.7v12.75l3.77,3.77h2.12M305.58,262.9h-4.27v15.23h4.27M328.8,294.9h-21.67l-3.02-3.62v-8.52h-2.7,4.15M77.55,171.52v-2.6M77.55,164.12v-2.73h9.5M87.22,237.23v2.38h3.45M90.68,253.82h-3.32v-5.5h3.4M87.47,265.35v-2.4h3.28M38.65,346.35h-7.05v5M87.5,335.17v-2.83M87.5,330.1v-2.6M144.1,327.23h-2.18M139.52,327.23h-3.73M144.1,305.73h-3.93M137.98,305.73h-2.2M337.35,213.68v-1.62M337.35,207.62v-1.77M338.75,225.23h5.58M348.73,225.23h2.98M326.38,239.85v-6.23h6.98M336.9,243.75v-5.77M336.9,235.23v-3.77M355.08,406.77h6.98v-6.85M351.7,409.33v-4.4M351.7,401.55v-5.6M351.7,395.92h-3.02M344.02,395.92h-5.73M297.4,395.9h-2.65M292.5,395.9h-4.5M297.4,373.25h-3.65M291.45,373.25h-3.45M297.4,352.17h-3.35M291.52,352.17h-3.52M297.52,305.8h-2.58M290.62,305.8h-2.62M297.4,340.7v-5.27M297.4,331.15v-3.8M338.4,340.7h5.73M348.73,340.7h2.98M338.4,327.35h5.67M348.73,327.35h2.98M70.57,251h5.47"/>
</svg>