<?xml version="1.0" encoding="UTF-8"?>
<svg id="Discord.gg-_x40_marazm" xmlns="http://www.w3.org/2000/svg" version="1.1" viewBox="0 0 420.08 481.88">
  <!-- Generator: Adobe Illustrator 30.1.0, SVG Export Plug-In . SVG Version: 2.1.1 Build 136)  -->
  <defs>
    <style>
      .st0 {
        stroke-width: .25px;
      }

      .st0, .st1, .st2 {
        fill: none;
      }

      .st0, .st1, .st2, .st3 {
        stroke: #000;
      }

      .st4 {
        fill: #777;
      }

      .st1 {
        stroke-width: .36px;
      }

      .st2, .st3 {
        stroke-width: .5px;
      }

      .st5 {
        fill: #987f00;
      }

      .st3 {
        fill: #363636;
      }
    </style>
  </defs>
  <path class="st3" d="M349.37,420.75h2.38c0-2.58-.02-5.17-.02-7.75h-2.45v-.62h2.5v-1.55h14.5v-14.65h-14.5v-120.07h40.7v-12.45h-25.42v5.6h-2.65v-3.27h-6.25v-5.92h-6.4v-17.6h40.7v-12.43h-25.42v5.25h-2.65v-3.43h-12.63v-6.85h-.77V56.47h-15.58v21.03h-38.38v-22.42h-46.48V.25h-31.65v54.83h-47.4v51.4h-26.05v5.45h-2.65v-3.28h-13.1v1.53h-16.2v-18.85h-15.32v39.28h-3.12v-39.25h-15.45v19.03h-16.85v8.1H22.25v12.15h25.42v-5.45h2.35v3.27h12.8v2.18h-10.45v30.05h-1.55v34.57h-21.05v26.62h-14.87l-9.35,4.05v12.15H.25v5.45h5.3v16.98H.25v5.45h5.3v11.83l9.35,4.35h4.68v10.7H4.55v12.92h-2.43v12.05h2.43v15.73h41.4v9.2c-7.22.02-14.45.05-21.7.05,0,4.05-.02,8.1-.02,12.17l41.52.08v-.92h2.03v73h29.3v2.02h-4.57v52.48h31.45v-52.62h-4.7v-2.02h29.32v-72.7h1.88v.77h13.05v12.15h49.82v15.05h-40.9v11.38h23.85v18.73h39v5.15h5.15v-5.15h61.45v-1.55h39.62v1.55h2.3c0,.23,0,.45.02.65-.83,0-1.65.02-2.48.02l-.02,7.7,2.58-.05.02.7-.95-.02-.02,6.8h-.6l.02-5.3h-8l-.05,8.45,7.98.02v-.88h.58l-.1,13.2.98-.02.02.52-11.2-.05-.05,7.15,10.48.02v.7h-1.23l-.02,4.38-5.27-.02-.08,8,10.33.08.02-12.35-1.4.02v-.62l6.23.05.02-4.55-1.25-.02.02-2.6-.88.02v-.65h.85v-5.75l.8-.02-.1,8.4,5.77.02v-7.8l-3.33-.02-.02-.65,3.3.05v-.75h.67l-.1,24.27,62.42-.48.05-37.8-62.4-.1v8.38h-.62v-.85l-6.48.02v-9.23h-.98v-.67c0-.12-.05-.23-.08-.35-.02-.33,0-.67-.02-1-.02-.1-.02-.2-.05-.3-.02-.27-.05-.7.05-1.25M55.2,347.38v-14.83h15.27v2.08h-2.97v13.77h-1.78v-1.02h-10.52ZM129.52,134.35v-15.55h42v3.85h-15.23v3.32l2.7,2.7v1.12h-4.45v-7.15h-4.38v11.7h-20.65ZM145.88,334.58v-1.77h14.27v-12.12h16.43v31.73h36.6v7.65h-15.92v-1.98h-13.25v1.98h-13.23v-12.4h-20.12v.83h-2.02v-13.9h-2.75ZM167.15,305.98v-21.15h9.45v21.15h-9.45ZM167.15,220.35v-21.32h9.45v21.32h-9.45ZM171.52,152.2v-3.5h53.37v3.5h-53.37ZM172.57,187.5v-26.4h4.02v26.4h-4.02ZM221.05,256.08v-8.43h18.3v8.43h-18.3ZM243.3,152.18v-3.5h53.93v3.5h-53.93ZM279.62,283.95v-10.23l9.1-9.08h8.25v29.98h40.17v31.95h-39.85v-1.65h-2.67v-4.12h-9.8c-.6,0-1.08-.48-1.08-1.08v-31.65l-4.12-4.12h0ZM280.4,229.85v-10.07l3.6-3.57v-32.5c0-.6.48-1.07,1.08-1.07h9.52v-3.75h2.4v59.7h-7.83l-8.77-8.72h0ZM296.98,136.9v-41.57h37.75v41.57h-37.75ZM301.85,397.4v-3.83h35.3v3.83h-35.3ZM306.9,232.68v-7.48h30.2v4.65h-14.85v14.65h-4.7v-11.82h-10.65Z"/>
  <path class="st5" d="M55.33,332.55v-4.1h4.62v4.1h-4.62ZM30.33,297.33h3.3v-7.1h-3.3v7.1ZM30.65,354.7h7.85v-3.8h-7.85s0,3.8,0,3.8ZM30.65,351.02h3.75l.05-4.15,4.03-.12v-3.62h-7.85l.02,7.9h0ZM49.62,297.35h4.83v-7.1h-4.83v7.1ZM52.58,282.55h13.2l.03-1.05,1.8.02v-3.4h-15.05l.02,4.42h0ZM52.58,258.67h5.92v-12.52h-5.9v12.52h-.02ZM52.58,226.15h15.02v-3.9h-15.03v3.9h0ZM55.33,328.45h4.62v-4.8h-3.5v.55l-1.12-.05v4.3ZM59.95,328.45v4.1h5.52v-4.1h-5.52ZM60.38,182.1h4.28v-15.35h-4.28v15.35h0ZM60.38,167.55h4.93v-5.75h-4.92v5.75h0ZM64.25,176.35h3.4v-4.48h-3.4v4.48ZM64.3,171.6h3.32v-4.05h-3.32v4.05h0ZM92.88,305.75h12.2v-4.08h-12.2v4.08ZM92.85,202.02h12.5v-3.88h-12.5v3.88ZM136.65,305.75h12.57v-3.9h-12.57v3.9ZM136.65,202.02h12.57v-3.88h-12.57v3.88ZM137.35,258.55h5.48v-12.52h-5.48v12.52ZM143.43,140.25h4.32v-6.3h-4.32v6.3ZM149.9,129.95v4.3h8.98v-4.43h-4.27v-7.55h-4.7v7.68h0ZM150.52,332.45h9.2v-7.27h-3.62v3.27h-5.6l.03,4h0ZM195.95,336.65h11.43v-5.88h-11.43v5.88ZM195.82,174.55h11.75v-5.88h-11.75v5.88ZM196.57,404.23h3.93v-5.75h-3.93v5.75ZM200.2,270.4h11.65v-5.88h-11.65v5.88ZM200.27,238.07h11.57v-5.88h-11.57v5.88ZM196.57,398.77h6.8v-4.42h-6.8v4.42ZM208.23,119.62h6.9v-3.75h-6.9v3.75ZM218.73,301.55l3.32,1.75,3.35-6.33-3.32-1.75-3.35,6.33ZM223.8,285.8h8.6v-4.17h11.12v-4.17h-11.43v4.17h-8.3v4.17ZM223.95,322.8l5.6,4.48,2.35-2.92-5.6-4.48-2.35,2.92ZM232.1,224.98h11.43v-4.18h-11.43v4.18ZM245.25,188.55h3.35v-5.75h-3.35v5.75ZM253.77,119.62h7.23v-3.75h-7.23v3.75h0ZM256.15,285.8h8.6v-4.17h-8.6v4.17ZM258.3,270.38h11.42v-5.88h-11.42v5.88ZM258.3,238.05h11.42v-5.88h-11.42v5.88ZM262.58,174.55h11.92v-6.07h-11.92v6.07ZM262.6,336.62h11.85v-5.88h-11.85v5.88ZM264.25,398.4h3.88v5.75h4.48v-10.35h-8.35v4.6h0ZM297.4,232.85h8.92l.2-7.85h-9.23l.1,7.85ZM308.58,95.28h2.88v-5.8h-2.88v5.8ZM309.95,141.52h8.6v-4.57h-8.6v4.57ZM310.02,223.62h8.6v-4.38h-8.6v4.38ZM322.12,239.77h4.35v-6.2h-4.35v6.2ZM321.95,233.98h8.42v-4.18h-8.42v4.18ZM337.1,232.68h7.6v-7.73h-7.6v7.73ZM339.95,136.62h7.12v-4.1h-7.12v4.1ZM347.08,136.62h4.1v-9.72h-4.1v9.72ZM358.12,410.45h4.3v-3.8h-4.3v3.8ZM362.42,410.45h3.98v-9.55h-3.95l-.02,9.55h0Z"/>
  <path class="st4" d="M4.45,329.6l1.53,1.2,1.53-1.95-1.53-1.2-1.53,1.95ZM6.12,333h2.75v-1.95h-2.75v1.95ZM9.27,304.17h1.65v-1.23h.52v1.45h1.65v-1.45h6.88v-2.45h-9.72v1.73h-.98v1.95h0ZM13.05,311l.8,4,1.62-.33-.8-4-1.62.33ZM13.65,305.38h1.65v-1.95h-1.65v1.95ZM17.3,236.07h1.9v-3.68h-1.9v3.68ZM18.12,252.75h13.67v-2.45h-.77v-1.45h-5.3v1.45h-7.6v2.45ZM19.98,271.95h13.68v-2.45h-12v-2.02h-1.67v4.48h0ZM19.98,236.85h1.67v-2.02h12v-2.45h-1.08v-2.43h-3.12v2.43h-.33v-2.43h-3.12v2.43h-6.02s0,4.47,0,4.47ZM20.45,254.65h5.27v-1.48h-5.27v1.48ZM22.88,308.65l.45,2.33,1.62-.33-.45-2.33-1.62.33ZM23.1,307.7l1.62.33.45-2.33-1.62-.33-.45,2.33ZM25.73,291.75l1.62.33.33-1.65-1.62-.33-.33,1.65h0ZM26.02,289.62h1.65v-1.95h-1.65v1.95ZM30.25,208.7h1.55v-8.8h-1.55v8.8ZM36.5,198.3h8.9v-1.88h-8.9v1.88h0ZM36.88,297.75c0,.85.7,1.55,1.55,1.55h0c.85,0,1.55-.7,1.55-1.55h0c0-.85-.7-1.55-1.55-1.55s-1.55.7-1.55,1.55h0ZM37.65,204.45h13.05v-1.45h-13.05v1.45ZM39.08,211.85h5.12v-1.88h-5.12v1.88ZM43.78,326.35h4.08v-1.85h-4.08v1.85ZM45.2,297.75c0,.85.7,1.55,1.55,1.55h0c.85,0,1.55-.7,1.55-1.55h0c0-.85-.7-1.55-1.55-1.55s-1.55.67-1.55,1.55h0ZM46.47,335.52h2.72v-2.48h-2.72v2.48ZM47.8,214.55h14.3v-1.38h-14.3v1.38ZM49.15,197.93h5.12v-1.88h-5.12v1.88ZM50.72,211.65h5.12v-1.88h-5.12v1.88ZM53.97,277.88h13.68v-2.45h-13.67v2.45h0ZM54.28,229.1h13.07v-2.77h-13.08v2.77h0ZM56.72,319.23h1.83v-2.48h-1.83v2.48ZM56.72,315.52h1.83v-2.48h-1.83v2.48ZM57.42,260.27h4.47v-1.67h-4.47v1.67ZM57.53,245.8h2.67v12h1.8v-13.65h-4.47v1.65h0ZM66.88,260.27h4.62v-1.67h-2.18v-12.18h-2.45v13.85ZM67.07,245.98h2.6v11.98h2.05v-14h-4.65v2.02h0ZM67.65,397.7c0,.7.38,1.4,1.1,1.75h7.9c1.45-.7,1.45-2.77,0-3.48h-7.9c-.72.35-1.1,1.05-1.1,1.73h0ZM68.2,367.1c0,.7.38,1.4,1.1,1.75h7.9c1.45-.7,1.45-2.77,0-3.48h-7.9c-.72.35-1.1,1.05-1.1,1.73h0ZM68.62,373c0,.7.38,1.4,1.1,1.75h7.88c1.45-.7,1.45-2.77,0-3.48h-7.88c-.75.35-1.1,1.02-1.1,1.73h0ZM68.75,361.05c0,.65.3,1.3.95,1.7l7.88.67c1.5-.58,1.7-2.65.3-3.48l-7.88-.67c-.8.3-1.22,1.02-1.25,1.77h0ZM69.47,323.17h3.78v-1.88h-3.78v1.88ZM69.72,420.35c0,.7.38,1.4,1.1,1.75h7.9c1.45-.7,1.45-2.77,0-3.48h-7.9c-.75.35-1.1,1.02-1.1,1.73h0ZM72.12,258.98h1.75v-13.65h-1.75v13.65ZM72.9,325.12l1.75.6,1.2-3.5-1.75-.6-1.2,3.5h0ZM74.18,162.25h2.47v-1.4h-2.47v1.4ZM74.18,158.25h2.47v-1.4h-2.47v1.4ZM74.18,154.23h2.47v-1.4h-2.47v1.4ZM74.15,257.62h1.7v-4.75h1.8v-2.4h-3.5v7.15h0ZM74.2,250.2h3.45v-2.55h-3.45v2.55ZM75.62,184.73h1.68v-4.4h-1.68v4.4ZM76.45,256.35h1.43v-2.4h-1.43v2.4ZM80.07,184.73h1.85v-4.4h-1.85v4.4ZM83.12,333.45h2.78v-2.48h-2.78v2.48ZM84.1,152.12h2.22v-.15h2.22v.3h2.78v-1.53h-5v.15h-2.22v1.23ZM84.2,173.18h3.5v-1.73h-3.5v1.73ZM84.2,166.48h3.5v-1.73h-3.5v1.73ZM91.03,173.18h3.5v-1.73h-3.5v1.73ZM91.03,166.48h3.5v-1.73h-3.5v1.73ZM92,378.9c0,.77.4,1.55,1.22,1.92h8.78c1.62-.77,1.62-3.08,0-3.88h-8.78c-.8.4-1.22,1.18-1.22,1.95h0ZM92.55,384.67c0,.7.38,1.4,1.1,1.75h7.9c1.45-.7,1.45-2.77,0-3.48h-7.9c-.72.33-1.1,1.03-1.1,1.73ZM93.28,401.65c.7,1.45,2.78,1.45,3.5,0v-7.88c-.7-1.45-2.78-1.45-3.5,0v7.88ZM93.28,337.83c.7,1.45,2.78,1.45,3.5,0v-7.88c-.7-1.45-2.78-1.45-3.5,0v7.88ZM94.53,184.75h1.85v-4.4h-1.85v4.4ZM96.78,438.88l1.25,1.6,2.07-1.6-1.25-1.6-2.07,1.6ZM98.18,471.85c0,.83.5,1.65,1.43,1.9l7.75-1.45c1.3-.98.93-3-.65-3.42l-7.75,1.45c-.53.38-.78.95-.78,1.52h0ZM98.82,453.48c.18,1.6,2.12,2.3,3.28,1.17l2.68-7.42c-.18-1.6-2.12-2.3-3.28-1.17l-2.68,7.42h0ZM98.93,400.42c.7,1.45,2.78,1.45,3.5,0v-7.88c-.7-1.45-2.78-1.45-3.5,0v7.88ZM98.93,335.77c.7,1.45,2.78,1.45,3.5,0v-7.88c-.7-1.45-2.78-1.45-3.5,0v7.88ZM99.47,363.52c.7,1.45,2.78,1.45,3.5,0v-7.88c-.7-1.45-2.78-1.45-3.5,0v7.88ZM99.47,184.75h1.85v-4.4h-1.85v4.4ZM101.85,152.3h2.18v-1.55h-2.18v1.55ZM103.4,184.75h1.85v-4.4h-1.85v4.4ZM104.03,173.2h1.12v-2.55h-1.12v2.55ZM104.03,166.9h1.12v-2.55h-1.12v2.55ZM105.22,433.75l2.9,7.33c1.2,1.1,3.12.33,3.25-1.27l-2.9-7.33c-1.2-1.1-3.12-.35-3.25,1.27h0ZM108.03,184.75h1.85v-4.4h-1.85v4.4ZM108.38,173.2h1.12v-2.55h-1.12v2.55ZM108.38,166.9h1.12v-2.55h-1.12v2.55ZM111.8,462.27c.18,1.6,2.12,2.3,3.28,1.17l2.68-7.42c-.18-1.6-2.12-2.3-3.28-1.17l-2.68,7.42h0ZM111.9,328.65h3.9v-1.65h-3.9v1.65ZM112.07,184.75h1.85v-4.4h-1.85v4.4ZM113.2,389.67c0,.7.38,1.4,1.1,1.75h7.9c1.45-.7,1.45-2.77,0-3.48h-7.9c-.72.35-1.1,1.03-1.1,1.73h0ZM113.57,373.73c-.03.6.28,1.23.88,1.58l7.28.67c1.4-.52,1.57-2.45.3-3.23l-7.28-.67c-.75.27-1.15.95-1.18,1.65h0ZM113.62,365.27c.7,1.45,2.78,1.45,3.5,0v-7.88c-.7-1.45-2.78-1.45-3.5,0v7.88ZM113.62,333.35h2.2v-3.83h-2.2v3.83ZM114.7,409.08c0,1.3,1.18,2.42,2.6,2.2l7.43-5.25c.9-1.62-.47-3.58-2.32-3.27l-7.43,5.25c-.2.32-.28.7-.28,1.07h0ZM114.85,379.1c0,.7.38,1.4,1.1,1.75h7.9c1.45-.7,1.45-2.77,0-3.48h-7.9c-.72.35-1.1,1.05-1.1,1.73ZM115.18,342.98c-.03.55.18,1.12.62,1.58l8.53,3.2c1.85-.17,2.7-2.42,1.4-3.77l-8.53-3.2c-1.23.15-2,1.15-2.03,2.2h0ZM116.12,184.75h1.85v-4.4h-1.85v4.4ZM116.22,168.98h3.5v-1.73h-3.5v1.73ZM116.22,162.27h3.5v-1.73h-3.5v1.73ZM120.22,179.7h.95v-3.05h-.95v3.05ZM120.22,173.45h.95v-3.05h-.95v3.05ZM120.22,165.9h.95v-3.05h-.95v3.05ZM125.25,420.98h2.95v-2.35h-2.95v2.35ZM125.25,418.08h2.2v-3.05h-2.2v3.05ZM128.2,417.12h1.57v-3.48h-1.57v3.48ZM128.75,419.23h3.5v-1.75h-3.5v1.75ZM135.57,372.75c0,.8.43,1.6,1.25,2h9.02c1.68-.8,1.68-3.17,0-4h-9.02c-.82.42-1.25,1.23-1.25,2ZM137.4,397.73c0,.7.38,1.4,1.1,1.75h7.9c1.45-.7,1.45-2.77,0-3.48h-7.9c-.75.33-1.1,1.02-1.1,1.73h0ZM137.4,385.5c0,.7.38,1.4,1.1,1.75h7.9c1.45-.7,1.45-2.77,0-3.48h-7.9c-.75.35-1.1,1.02-1.1,1.73h0ZM137.82,414.77h2.05v-2.52h-2.05v2.52ZM138.35,419.23c0,.7.38,1.4,1.1,1.75h7.9c1.45-.7,1.45-2.77,0-3.48h-7.9c-.73.33-1.1,1.02-1.1,1.73h0ZM156.77,142.38h3.18v-2h-3.18v2ZM156.77,126.2l1.93,2,1.52-1.47-1.93-2-1.52,1.47h0ZM158.77,149.15h3.18v-2h-3.18v2ZM162.55,148.48l2.07.32.23-1.45-2.07-.32-.23,1.45h0ZM165.8,125.28h2.8v-2.12h-2.8v2.12ZM166.25,149.15h3.18v-2.4h-3.18v2.4ZM171.75,148.15h3.18v-2h-3.18v2ZM171.75,138.25l2.32.68.85-2.95-2.32-.68-.85,2.95ZM171.75,68.22h2.77v-2.82h-2.77v2.82ZM171.88,60.2l.45,2.72,2.5-.42-.45-2.72-2.5.42ZM172.15,125.57h2.43v-3.05h-2.43v3.05ZM174.55,133.82l.4,1.48,1.93-.5-.4-1.48-1.93.5ZM178.73,114.18h19.15v-3.65h-19.15v3.65ZM178.73,101.7h29.52v-3.65h-29.52v3.65h0ZM178.73,72.72h29.52v-3.65h-29.52v3.65h0ZM178.73,59.17h29.52v-3.67h-29.52v3.67h0ZM179.98,91.45l4.4.7,2.05-12.88-4.4-.7-2.05,12.88h0ZM180.7,116.45l1.52.43.5-1.82-1.52-.43-.5,1.82ZM184.88,292.3h4.52v-9.17h-4.52v9.17ZM185.55,90.38l1.77.75.88-2.1-1.75-.72-.9,2.07h0ZM185.75,110l1.85.5.6-2.2-1.85-.5-.6,2.2ZM186,85.25l.05,2.28,1.9-.05-.05-2.28-1.9.05h0ZM189.4,315.08h5.27v-3.95h-5.27v3.95ZM193.12,92.2h4.48v-13.03h-4.48v13.03ZM197.57,304.8h2.9v-2.42h-2.9v2.42ZM198.2,321.42h1.93v2.12h3.85v-2.12h3.02v-.52h0v-1.95h-4.95v.75h-1.75v-3.7h-2.1v5.42h0ZM199.82,222.85h1.12v-5.43h-1.12v5.43ZM201.4,272.77h2.55v-1.77h-2.55v1.77ZM201.85,303.1c0,1.25,1,2.25,2.25,2.25s2.25-1.02,2.25-2.25-1-2.25-2.25-2.25-2.25,1-2.25,2.25h0ZM202.02,299.23h1.93v-1.3h-1.93v1.3ZM202.27,226.25h7.82v-2.12h-7.82v2.12ZM202.27,215.18h2.93v.62h4.25v-1.7h-7.18v1.07h0ZM202.48,105.57l6.65,3.57,1.18-2.18-6.65-3.57-1.18,2.18ZM202.88,195.12h1.3v-3.12h-1.3v3.12ZM204.4,198.48l1.27.88,1.98-2.88-1.27-.88-1.98,2.88h0ZM204.5,299.23h4.23v-.92h-4.23v.92ZM205.2,293.48h11.87v-4.52h-11.87v4.52ZM207,280.25h7.32v-2.2h-7.32v2.2ZM208.25,102.3l4.77,2.57,2.05-3.78-4.77-2.57-2.05,3.78h0ZM209.48,216.25h4.25v-1.7h-4.25v1.7ZM211.12,321.42h3.85v-2.48h-3.85v2.48ZM212.02,195.62h2.68v-1.27h-2.68v1.27ZM213.73,199.05h.95v-2.43h-.95v2.43ZM213.73,191.82h1.32v-1.27h-1.32v1.27ZM214.62,301.85h2.45v-1.42h-2.45v1.42ZM215.55,56.4l.68,2.75,2.62-.65-.68-2.75-2.62.65h0ZM216.23,72.72l1.6,3.32,3.68-1.78-1.6-3.32-3.68,1.78ZM216.73,300.12l1.7.77,1-2.23-1.7-.77-1,2.23h0ZM217.2,80.93l3.38,4.3,9.95-7.8-3.38-4.3-9.95,7.8ZM217.45,101l5.45.3.82-14.82-5.45-.3-.82,14.82h0ZM219.05,57.72c0,1.15.93,2.08,2.07,2.08s2.07-.92,2.07-2.08-.93-2.08-2.07-2.08-2.07.93-2.07,2.08h0ZM219.6,105.15l2.15,5.18,3.62-1.5-2.15-5.18-3.62,1.5ZM220.45,200.02h3.93v-6.75h-3.93v6.75ZM222.05,174.07l2.6,1.8,1.35-1.95-2.6-1.8-1.35,1.95ZM222.18,281.35h1.15v-7.88h-1.15v7.88ZM222.18,309.12l1.65,2.25,5.45-3.98-1.62-2.25-5.47,3.98h0ZM222.75,24.98l.45,2.73,2.5-.42-.45-2.73-2.5.43h0ZM223.2,16.98h6.55v-4.3h-6.52v4.3h-.03ZM224.82,232.07l1.98,2.73,3.5-2.55-1.98-2.73-3.5,2.55ZM225.98,207.05l1.35,1.98,1.27-.88-1.35-1.98-1.27.88ZM225.98,155.82h5.1v-3.15h-5.1v3.15ZM227.37,121.2l.6,5.38,4.3-.47-.6-5.38-4.3.47ZM227.52,196.62h5.38v-2h-5.38v2ZM228.4,205.38h5.38v-2h-5.38v2ZM228.6,40.7h4.73l.23.58,1.55-.58h4.95v-1.4h-3.3l-3.1-8.27-3.45,1.3,2.62,6.97h-4.2v1.4h-.02ZM228.93,281.35h2.4v-1.52h-2.4v1.52ZM229.27,279l1.38.8,1.02-1.77-1.38-.8-1.02,1.77ZM229.75,191.2h5.38v-2h-5.38v2ZM231.45,133.05l5.68,1.38,1.62-6.68-5.68-1.38-1.62,6.68ZM233.23,263.95h14.18v-2.48h-14.18v2.48ZM233.23,241.9h12.18v3.45l-.43.12,1.98,6.73-1.98,6.72.43.12v2h5v-2.35h-2.45l1.88-6.35-.55-.15.55-.15-2.18-7.35-.25.07v-2.85h0v-2.48h-14.18v2.45h0ZM233.77,179.18l4.43,3.02,1.12-1.65-4.43-3.02-1.12,1.65ZM233.77,125.1l6.6,2.95-.55.02.12,2.7,2.35-.12-.12-2.7-1.65.07,2.5-5.6-6.73-3-2.53,5.68h0ZM233.87,321.65l1.75.1.12-1.95-1.75-.1-.12,1.95ZM234.15,220.7h6.18v-2.48h-6.18v2.48ZM234.15,231.73l1.3,2.3,4.88-2.75-1.3-2.3-4.88,2.75ZM235.48,319.15l.77,1.58,1.8-.9-.77-1.58-1.8.9ZM236.12,321.42l.38,1.92,1.73-.35-.38-1.92-1.73.35ZM236.5,62.9l3.12,2.35,1.4-1.85-3.12-2.35-1.4,1.85ZM237.98,23.85l1.2,10.05,4.93-.6-1.2-10.05-4.93.6ZM238.12,135.6l2.3.55.65-2.62-2.3-.55-.65,2.62ZM238.55,198.02h1.35v-2.12h-1.35v2.12ZM239.35,277.05h3.4v-2.9h-3.4v2.9ZM239.45,12.25h2.52v2.57h3.88v-4.38h-3.88v-.98h-2.52v2.78h0ZM240.32,319.77l4.73,1.62.77-2.23-4.73-1.62-.77,2.23ZM240.32,316l.77,1.58,1.8-.9-.77-1.58-1.8.9ZM240.9,307.73l.93,1.98,2-.92-.93-1.98-2,.92ZM241.6,59.88l3.5,12.7,5-1.38-3.5-12.7-5,1.38h0ZM241.85,35.92l.45,2.72,2.5-.42-.45-2.72-2.5.42h0ZM242.4,312.45l1.18,1.3,2.4-2.17-1.18-1.3-2.4,2.17ZM243.32,107.18h4.88v-12.22h-4.88v12.22ZM243.9,316.9l1.9.65.57-1.65-1.9-.65-.57,1.65ZM244.1,198.07l.18,2.38,3.77-.3.35,4.5,2.07-.15-.5-6.45-.32.02-.02-.4-5.53.4h0ZM244.18,309.35h2.2v-2.2h-2.2v2.2ZM245.32,122.35l2.88,2.8,5-5.15-2.88-2.8-5,5.15ZM245.85,94.47h2.35v-.35h.35v18.18h4.82v-25.48h-5.18v4.93h-2.35v2.72h0ZM246.18,91.28h1.65v-2.65h-1.65v2.65ZM247.4,211.32h1.8v-3.4h-1.8v3.4ZM248.3,230.55l5.7.75.52-3.9-1.12-.15.7-2.62-1.9-.5-.73,2.7,1.27.35-3.93-.52-.52,3.9h0ZM248.32,319.4l10.75.45.17-3.95-10.75-.45-.18,3.95h0ZM249.25,292.58l2.45,2.75,2.1-1.88-2.45-2.75-2.1,1.88ZM253.57,214.85h1.27v-8.07h-1.27v8.07ZM253.73,89.93l5.33,1.2,2.73-12-5.33-1.2-2.73,12h0ZM254.52,226.65h2.35v-2.85h-2.35v2.85ZM255.25,114.6l5.88.32.4-7.43-5.88-.32-.4,7.43ZM256.23,322.2h9.73v-1.45h-9.73v1.45ZM256.73,129.73h7.17v-6.15h-7.17v6.15h0ZM258.05,211.98h3.3v-2.07h-3.3v2.07ZM258.05,198.68h3.3v-2.07h-3.3v2.07ZM258.05,185.4h3.3v-2.07h-3.3v2.07ZM260.02,101.85h29.15v-3.97h-29.15v3.97ZM260.02,72.6h29.15v-3.97h-14.17l1.12-2.32-6.7-3.25-1.12,2.35,6.7,3.25h-14.98v3.95h0ZM260.02,58.5h29.15v-3.15h-29.15v3.15ZM260.3,220.18h5.85v-3.9h-5.85v3.9ZM260.48,379h8.05v-3.85h-8.05v3.85ZM262.23,281.33h2.98v-2.73h-2.98v2.73ZM262.23,278.02h1.92v-1.98h-1.92v1.98ZM262.35,273.7l.92,1.67,3.17-1.73-.92-1.67-3.17,1.73ZM263.3,294.4l3.55,3.98,2.5-2.23-3.55-3.98-2.5,2.23ZM264.48,127.75l2.02.18.42-4.57-2.02-.18-.42,4.57h0ZM266.92,124.53l.42,2.43,2.25-.4-.42-2.43-2.25.4ZM269.92,89.07l4.67,1.25,1.1-4.2-4.67-1.25-1.1,4.2h0ZM270.2,114.28h18.98v-3.97h-18.98v3.97ZM271.05,79.7l1.12,4.2,4.67-1.25-1.1-4.2-4.7,1.25ZM273.77,282.67h1.55v-1.35h-1.55v1.35ZM275.62,197.62h4.05v-6.48h-2.88v4.75h-1.17v1.73h0ZM276.83,90.32h11.67v-11.32h-11.67v11.32ZM277.52,307.45h2.25v-2.33h-2.25v2.33ZM285.58,407.58h1.92v-2.05h-1.92v2.05ZM288.3,407.12h1.92v-.9h2.83v-2.1h-2.83v.2h-1.92v2.8h0ZM288.83,395.15h7.62v-1.08h-7.62v1.08ZM291,148.12h5.3v-11.57h-5.3v11.57ZM292.6,62.33h3.7v-6.97h-3.7v6.97ZM297.62,373.75h4.77v-1.75h-4.77v1.75ZM297.62,351.45h1.65v-4.3h-1.65v4.3ZM297.7,166.3h2.55v-8.3h-2.55v8.3ZM297.7,155.1h2.55v-8.3h-2.55v8.3ZM297.92,142.25l1,2.12,3-1.4-1-2.12-3,1.4ZM298.05,94.57l1.27.2.35-2.18-1.27-.2-.35,2.18ZM298.4,79.25h3.73v-1.55h-3.73v1.55ZM298.45,288.15h1.75v-4.2h-1.75v4.2ZM298.45,281.88h1.75v-4.2h-1.75v4.2ZM298.45,276.33h1.75v-4.2h-1.75v4.2ZM298.45,264.33h1.27v-2.95h-1.27v2.95ZM298.45,360.83h3.95v-1.77h-3.95v1.77ZM298.83,397.52h1.88v-2.02h-1.88v2.02ZM298.95,381.55l1.73.23.65-4.73-1.73-.23-.65,4.73ZM299.25,294.4h8.23v-2.4h-8.23v2.4ZM299.35,139.45h2.55v-1.95h-2.55v1.95ZM302.4,357.25h4.27v-1.4h-4.27v1.4ZM302.4,347.15h4.27v-1.9h-4.27v1.9ZM302.75,79.25h1.77v-1.55h-1.77v1.55ZM304.27,244.02h2.38v-2.6h-2.38v2.6ZM306.65,361.35h3.95v-1.77h-3.95v1.77ZM308.35,328.7h2.73v-1.98h-2.73v1.98ZM309.27,369.25h1.33v-3.92h-1.33v3.92ZM309.27,356.3h1.33v-4.85h-1.33v4.85ZM309.35,270.48l.4,1.62,3.73-.9-.4-1.62-3.73.9ZM309.8,400.65h2.95v-2.38h-2.95v2.38ZM310.58,210.7h8.12v-2.38h-8.12v2.38ZM310.58,203.95h8.12v-2.38h-8.12v2.38ZM310.58,197.23h8.12v-2.38h-8.12v2.38ZM310.58,190.48h8.12v-2.38h-8.12v2.38ZM310.58,173.05h8.12v-2.38h-8.12v2.38ZM310.58,166.3h8.12v-2.38h-8.12v2.38ZM310.58,159.57h8.12v-2.38h-8.12v2.38ZM310.58,152.82h8.12v-2.38h-8.12v2.38ZM311.55,369.83h1.33v-3.92h-1.33v3.92ZM311.55,364.4h1.33v-3.92h-1.33v3.92ZM311.67,347.73h1.05v-4.17h-1.05v4.17ZM312.48,359.58h5.25v-1.33h-5.25v1.33ZM313.17,339.2h2.27v-1.38h-2.27v1.38ZM313.23,400.48l2.05,1.2,1.2-2.05v.85h4.98v-2.38h-4.98v1.52l-2.05-1.2-1.2,2.05h0ZM313.77,236.88l.83,1.6,2.62-1.38-.83-1.6-2.62,1.38ZM314.08,284.85l1.65.3.67-3.77-1.65-.3-.67,3.77ZM314.15,328.9l.92,2.58,2.25-.8-.92-2.58-2.25.8ZM314.35,382.65h8v-1.92h-8v1.92ZM314.4,244.02h2.98v-1.8h-2.98v1.8ZM316.1,337.12l.42,2.35,1.6-.27-.42-2.35-1.6.27ZM316.4,248.57h6.17v-1.82h-6.17v1.82ZM318.35,330.65h2.85v-2.73h-2.85v2.73ZM318.4,359.58h4.58v-1.33h-4.58v1.33ZM319.77,357.1h1.05v-4.17h-1.05v4.17ZM320.25,258.2h1.98v-1.83h-1.98v1.83ZM320.83,343.08h4.27v-1.9h-4.27v1.9ZM321.42,339.2h2.85v-2.73h-2.85v2.73ZM321.9,409.77h4.75v-2.17h-4.75v2.17ZM321.9,357.1h1.05v-4.17h-1.05v4.17ZM323.37,361.17h2.15v-2.27h-2.15v2.27ZM324.55,294.25h3.83v-2.08h-3.83v2.08ZM325.1,378.33h2.12v-1.92h-2.12v1.92ZM325.1,328.98h4.67v.8h2.85v-2.73h-2.85v.65h-4.67v1.28ZM325.3,247.68h6.17v-.93h-6.17v.93ZM326.5,224.7h8.12v-1.98h-8.12v1.98ZM327.23,409.75h2.95v-1.08h-2.95v1.08ZM327.95,382.65h1.25v-6.25h-1.25v6.25ZM327.95,372h8.2v-1.48h-8.2v1.48ZM327.95,398.58l.15,2.08,2.08-.15-.15-2.08-2.08.15ZM329.77,362.5h4.58v-1.33h-4.58v1.33ZM330.48,274.9h5.5v-2.4h-5.5v2.4ZM332.65,210.7h8.12v-2.38h-8.12v2.38ZM332.65,203.95h8.12v-2.38h-8.12v2.38ZM332.65,197.23h8.12v-2.38h-8.12v2.38ZM332.65,190.48h8.12v-2.38h-8.12v2.38ZM332.65,173.05h8.12v-2.38h-8.12v2.38ZM332.65,166.3h8.12v-2.38h-8.12v2.38ZM332.65,159.57h8.12v-2.38h-8.12v2.38ZM332.65,152.82h8.12v-2.38h-8.12v2.38ZM334.17,293.67h1.8v-8.92h-1.8v8.92ZM334.65,283.35h1.33v-4.52h-1.33v4.52ZM334.65,268.02h1.33v-2.95h-1.33v2.95ZM334.65,264.35h1.33v-2.95h-1.33v2.95ZM335.35,102.18h4.95v-3.28h-4.95v3.28ZM336.23,139.32h8.12v-1.98h-8.12v1.98ZM336.4,75.03l1.4,7,2-.4-1.4-7-2,.4ZM337.6,264.35h3.12v-2.23h-3.12v2.23ZM337.75,401.05h2.27v-2.17h-2.27v2.17ZM337.98,273.12l1,.15.9-6.23-1-.15-.9,6.23h0ZM338.35,379.05h1.02v-6.25h-1.02v6.25ZM338.87,316.12h1.33v-2.23h-1.33v2.23ZM341.08,132.02h5.73v-1.98h-2.7v-2.38h-1.33v2.38h-1.7v1.98h0ZM344.67,126.88l.52,2.3,1.3-.3-.52-2.3-1.3.3ZM346.4,355.25l3.98,2.83.6-.83-3.98-2.83-.6.83h0ZM347.95,229.62h3.75v-3.5h-3.75v3.5ZM348.33,64.12h2.4v-4.12h-2.4v4.12ZM348.65,64.85l.55,2.4,1.77-.4-.55-2.4-1.77.4ZM348.9,92.6h2.02v-3.6h-2.02v3.6ZM349.52,111.05h1.15v-3h-1.15v3ZM349.73,294.4l1.75,4.55.95-.38-1.75-4.55-.95.38ZM349.73,286.95l.95.4,1.85-4.52-.95-.38-1.85,4.5h0ZM349.83,232.07h1.88v-1.68h-1.88v1.68ZM349.9,85.22h1.02v-3.62h-1.02v3.62ZM350.98,368.52h1.02v-4.88h-1.02v4.88Z"/>
  <path class="st1" d="M219.95,310.25c0,5.65,4.57,10.2,10.23,10.2h0c5.65,0,10.23-4.58,10.23-10.2s-4.57-10.2-10.23-10.2-10.23,4.58-10.23,10.2Z"/>
  <path class="st0" d="M65.97,308.73v2.77h-9.45v12.67H16.35v-12.77h11.8v-29.48h1.73v26.8h36.1ZM70.85,311.5v-28.12h-3v-.88h-2.05v2.98h3.6v26.02h1.45ZM200.62,383.62v-1.23M200.62,389.17v2.1h12.52M197.9,394.3v-5.12h2.73v-3.42M213.15,385.75v8.55h-16.85M200.62,404.45v-5.73h3.23M311.1,326.3v3.88M268.27,404.27v-5.85h-4.15M336.85,390.3l.23,7.15h4.27v5.25M341.33,410.45v-4.85M351.92,402.7v-6.55M351.92,410.67v-5.08M311.08,348.73v-10.98M323.08,366.6v-8.67M327.4,372.25h-4.33v-3.23M336.85,357.92h-39.8M311.1,370.15v-19.17M311.1,382.88v-8.85M327.4,375.3v7.58M336.85,370.15h-9.45v3.05M297.05,353.38h-4.67M256.12,358.7v-5.33h32.05M268.98,393.67v-.98M256.12,392.7v.98h16.6M268.98,386.73v3.25M271.33,382.23v4.48h-2.35v-2.55h-12.85M273,376.27v5.95M256.12,372.25h16.88v1.77M256.12,389.98v-24.02M297.05,382.23h-40.92M331.1,382.88h-34.05M336.85,382.88h-3.5M272.73,412.05v-.83M272.73,403.9v2.3M286.83,403.9v-10.23M297.05,402.27v1.62h-24.33v-10.23h24.33M336.85,346.77v-5.98h-39.8v58.42M336.85,385.12v-32.55M261.75,336.8h12.88v-5.88h-12.88M267.35,310.17v12.08h-28.38v-4.17M240.52,310.17h23.4M240.98,306.62l3.1-2.33,3.73-.45,1.55-4.65h8.05M257.42,295h-8.05v-7.75l-4.65-1.55M244.7,285.7h-21.25M244.7,285.7h22.03M266.73,281.52h-4.98M223.48,281.52h8.52M232,281.52v-4.02h12.1M232,281.52h29.75M254.18,278.9l2.8-1.4h4.8M261.75,277.5v4.02M261.75,277.5v-3.73l3.73-2.02h4.5M257.42,270.38h12.55v-5.88h-12.55M235.73,260.95h9.77M245.48,256.45v-10.38M245.48,242.38h-9.77M227.35,242.38h-9.3M218.05,260.95h9.3M184.7,295v-14.25M213.07,270.4h-12.87v-5.9h12.87M213.07,238.18h-12.87v-6.05h12.87M184.7,228.43v-14.7M199.27,222.7l2.32,4.02h11.95l3.5-3.48M214,213.73h-11.32M202.7,208.3v-4.32M202.7,201.18v-1.23M215.25,181.52v-2.18h-12.55v20.6M215.25,184.77v15.18h-4.65M207.65,199.95h-4.95M235.73,205.82h-8.38l-2.8-2.8v-8.05l2.8-2.77h7.75l2.8,2.77v6.82M227.35,222.7l-.38-4.45-2.7-2.45M244.07,220.73h-12.07v4.23h12.1M257.42,238.18h12.55v-6.05h-12.55M265.48,212.18v3.62h-10.45v-9.98c3.47-.12,10.45-.27,10.45,0v4.02M265.48,198.95v4.1h-10.45v-5.75M255.05,192.2h10.45v4.2M255.05,192.2v5.07M255.05,192.2v-2.6M265.48,185.7v3.9h-10.45M255.05,189.6v-9.9M265.48,183.15v-3.8h-10.45v.35M245.48,188.73v-9h9.55M248.7,182.7v14.57h6.35M261.73,174.7h12.7v-6.23h-12.7M240.57,184.27v-4l-7.02-4.32h-7.8M208.6,174.48h-12.8v-5.9h12.8M297.33,325.45h-16.42c-.6,0-1.08-.48-1.08-1.08v-35.05l-4.17-5.42v-16.92l6.12-6.1h15.45M297.23,243.25h-15.45l-6.12-6.1v-17.07l4.17-5.07v-35.12c0-.6.48-1.07,1.08-1.07h16.42M297.33,178.77v-86.8M297.33,178.77v46.18M299.62,244.68h-2.3v-19.7M315.1,269h-2.58M312.52,269h-15.27v-8.77h4.1M312.52,269v-2.88M312.52,262.98v-2.75M312.52,260.23h-5.6M312.52,260.23h9.23M327.5,260.23h-5.75M321.75,262.98v-2.75M321.75,266.12v2.88M321.75,269h15.42M321.75,269h-2.27M337.17,269v26M337.17,269v-8.77h-3.92M230.85,328.17c-1.98-1.45-3.95-2.9-5.95-4.33-2.18-1.58-7.65-4.9-8.68-10.55-1.05-5.65,1.05-8.67,2.82-12.45,1.43-3.02,3.12-6.23,3.77-7.45M226.23,295.27c-1.1,2.15-4.77,9.65-5.6,11.3M233.3,325.15l-7.75-5.75M173.1,264.5v2.7M173.1,284.77v-17.58M164.07,267.23h9.02M164.07,237.85h9.02M173.1,237.85v2.68M173.1,237.85v-17.68M152.73,222.4v-16.9M152.73,245.98v13.58M152.73,282.12v17.02M136.35,305.92h13.02v-4.23h-13.02M135.45,307.8h4.35M147.15,307.8h4.45M150.55,320.73h9.82M145.7,320.73h-16.18v.75M129.52,324.2v-2.73M129.52,330.83v3.48h13.15M149.95,328.58h6.2v-3.48M129.52,321.48h-42.77M86.75,321.48v2.73M86.75,321.48v-.75h-5.15M86.75,331.02v3.48h-13.15M73.6,320.73h-6.95M56.5,320.73h3.47M94.9,307.88h-8.9v-13.6M86,278.75v-17.83M86,241.9v-17.5M86,209.6v-13.9h8.93M103.53,195.7h4.38M135.45,195.7h4.35M147.15,195.7h4.45M136.35,198.12h13.02v3.93h-13.02M136.35,245.98h6.65v12.67h-6.62M36.55,282.6h-6.67M28.15,282.6h-1.95M21.75,282.6h-2.27M40.8,282.6h25.02M52.12,278.08h15.57v4.42M52.12,258.75h6.5v-12.52h-6.5M52.12,226.12h15.57v-3.93h-27.67M35.75,222.2h-6M29.75,212.23h4.25M37,212.23h22.22v-12.05M59.22,196.68v-.98M59.22,195.7h1.2M59.22,195.7h-8.15M53.47,187.62h-2.42M58.92,187.62h1.42M61.8,187.62h-1.45M65.43,187.62h6.2M86,187.62h-14.38M91.28,187.62h32.05M64.82,182.65v-6.35h2.88M60.38,187.62v-15.85M60.38,161.35v10.43M60.38,171.77h11.28M71.62,171.77v15.85M71.62,171.77v-10.43M93.85,150.32h-22.22v11.02M99.45,150.32h22.07M71.62,161.35h-6.2v6.35h2.28M45.92,353.1v1.8M45.92,348.58v-5.83M55.45,332.58v-8.38M60,320.73v7.77h6.65v-7.77M60,320.73h6.65M64.38,308.7v-19.45h-9.83v8.45M49.7,297.7v-8.45h-16.02v8.45M137.68,187.62h-8.18v-26.55h8.98M141.45,161.07h31.18M172.6,187.62h-31.15M142.7,140.18h7.7M156.55,149.6v-9.43h-6.12M156.55,149.6h-6.12v-9.43M156.55,149.6h14.8v-4.4M171.35,139.23v-8.18M171.35,125.1v-18.4M159.55,134.18h-9.7M142.7,116.75v2.2M142.7,114.1v-1.88M129.82,117.75v1.2M129.82,115.22v-4.97M98.53,130.6h5.8M107.32,130.6h6.38v-20.38h-6.38M104.32,110.22h-5.8M88.68,110.22h6.25M88.68,130.6h6.25M85.78,130.6h-6.25v-20.38h6.25M62.92,120.68v-2.2M62.92,121.8v6.7M50.08,122.85v1.97M50.08,120.07v-1.85M188.5,122.8h26.75v-3.2M215.25,55.38v60.4M207.65,119.6h7.6M215.25,119.6v-3.85M207.65,115.78h7.6M253.87,55.38v60.4M279.83,122.8h-25.95v-3.2M261.73,119.6h-7.85M253.87,119.6v-3.85M261.73,115.78h-7.85M297.33,80.55v-2.78M308.37,77.78v11.75h3.85M334.25,122.8h5.98v9.6h7.05v-5.55M344.05,155.88v-8.1h-15.38v29.68h3.62M335.3,177.43h8.75v-19M321.83,155.88v-8.1h-15.38v29.68h3.62M313.08,177.45h8.75v-19M344.05,193.23v-8.1h-15.38v29.68h3.62M335.3,214.77h8.75v-19M321.83,193.23v-8.1h-15.38v29.68h3.62M313.08,214.8h8.75v-19M310.08,136.6v5h8.98M319.05,223.52h-8.98v-4.27h8.98M338.92,224.98h-1.73v9.65M337.2,238.2v6.48h-30.75M304.95,244.68h1.5M306.45,244.68v-3M306.45,238.7v-13.7h-1.5M299.65,224.98h-2.3M326.52,239.98v-5.98h4.05M351.92,241.02v1.27M364.85,239.98v2.35M364.85,237.62v-2.38M351.92,238.7v-6.57M344.83,232.9v-7.93M343.6,224.98h7.58M351.85,261.23v-1M351.85,264.05v1.7M351.85,272.5v-6.75M351.85,275v.8M364.87,273.88v1.92M364.87,271.5v-2.48M358.17,265.73h-6.33M103.35,307.9h4.82M105.55,305.92h-12.72v-4.23h12.72M105.55,202.05h-12.72v-3.93h12.72M38.38,346.8v4.15h-3.92v-4.15h3.92ZM297.05,393.7h39.88"/>
  <path d="M123.38,148.27h-1.88v39.4h1.88v-39.4ZM223.07,55.05h-4.1v-2.45h4.1v2.45ZM250.45,55.05h-4.27v-2.45h4.27v2.45Z"/>
  <path class="st2" d="M343.92,420.67c.05-.12.05-.25.05-.4,0-.8-.02-1.6-.08-2.42"/>
  <path class="st2" d="M340.27,451.23c.02-.27.02-.55.05-.85,0-.2.02-.42-.08-.6s-.3-.33-.48-.27c-.08-.05-.05-.2.02-.25s.17-.08.27-.1c.2-.05.38-.25.33-.45-.02-.08-.08-.15-.12-.2-.4-.5-.65-1.1-.77-1.73-.02-.1-.02-.23.05-.3.02-.02.08-.05.12-.05.33-.08.67,0,1-.05.42-.08.8-.33,1.2-.38.23-.02.48.02.7.02s.48-.05.62-.25c.17-.23.15-.52.12-.83-.02-.2-.05-.4-.08-.6"/>
  <line class="st2" x1="357.42" y1="438.23" x2="360" y2="438.23"/>
  <line class="st2" x1="362.75" y1="438.23" x2="365.77" y2="438.23"/>
  <line class="st2" x1="365.73" y1="423.23" x2="365.77" y2="441.3"/>
  <line class="st2" x1="365.75" y1="443.98" x2="365.77" y2="452.83"/>
  <line class="st2" x1="365.75" y1="455.58" x2="365.75" y2="461.48"/>
  <line class="st2" x1="357.5" y1="446.85" x2="365.58" y2="446.83"/>
  <path class="st2" d="M373.6,461.35c-.7-.77-1.38-1.55-2.08-2.33.02-4,.02-7.98.05-11.98.65-.62,1.3-1.25,1.92-1.9,6.73,0,13.45.02,20.2.02.67.65,1.35,1.33,2.02,1.98,0,4,0,8.02.02,12.02l-2.05,2.05"/>
  <path class="st2" d="M373.77,423.12c-.73.75-1.45,1.5-2.17,2.25l-.1,12.1,2,2c1.42-.02,2.88-.05,4.3-.08"/>
  <path class="st2" d="M381.3,439.45h12.6c.65-.65,1.3-1.27,1.92-1.92,0-4.02,0-8.05-.02-12.05l-2.3-2.33"/>
  <path class="st2" d="M404.5,461.17c-.67-.67-1.38-1.35-2.05-2.02v-4.4"/>
  <path class="st2" d="M402.45,451.33c0-5.55.02-11.12.02-16.67"/>
  <path class="st2" d="M402.52,431.17l-.02-5.6c.73-.75,1.48-1.52,2.2-2.27"/>
  <rect class="st4" x="355.12" y="438.77" width="1.5" height="7.42"/>
  <rect class="st4" x="339.05" y="462.42" width="3.67" height="1.8"/>
  <rect class="st4" x="336.67" y="459.8" width="2.05" height="4.33"/>
  <rect class="st4" x="344.5" y="460" width="1.92" height="4.23"/>
  <rect class="st4" x="345.4" y="458.73" width="1.02" height=".77"/>
  <rect class="st4" x="345.92" y="452.42" width=".6" height="5.83"/>
  <rect class="st4" x="357.58" y="455.85" width="1.7" height="4.62"/>
  <rect class="st4" x="357.58" y="447.45" width="1.7" height="7.73"/>
  <rect class="st4" x="359.75" y="460" width="4.2" height="1.33"/>
  <rect class="st4" x="363.98" y="447.08" width="1.55" height="4.75"/>
  <rect class="st4" x="360.85" y="447.08" width="3.27" height="1.48"/>
  <rect class="st4" x="374.98" y="430.4" width="11.65" height="3.77"/>
  <rect class="st4" x="373.73" y="424" width="3.6" height="1.58"/>
  <rect class="st4" x="377.62" y="424" width="3.65" height="1.58"/>
  <rect class="st4" x="381.75" y="424" width="4.88" height="1.42"/>
  <rect class="st4" x="387.08" y="424" width="4.27" height="1.85"/>
  <rect class="st4" x="390.1" y="429.4" width="1.67" height="5"/>
  <rect class="st4" x="392.79" y="436.77" width="2.52" height="1.75" transform="translate(-194.05 406.82) rotate(-45)"/>
  <rect class="st4" x="393.14" y="423.9" width="1.67" height="2.77" transform="translate(-185.33 403.15) rotate(-45)"/>
  <rect class="st4" x="408.02" y="447.55" width="1.62" height="7.4"/>
  <rect class="st4" x="412.77" y="447.55" width="1.7" height="7.4"/>
  <rect class="st4" x="418.12" y="447.55" width="1.48" height="12.55"/>
  <rect class="st4" x="402.8" y="445.33" width="11.12" height="1.23"/>
  <rect class="st4" x="406" y="435.8" width="9.05" height="3.65"/>
  <rect class="st4" x="406" y="427.05" width="9.05" height="3.62"/>
  <rect class="st4" x="418.12" y="426.88" width="1.45" height="3.67"/>
  <rect class="st4" x="418.12" y="431.3" width="1.45" height="4.3"/>
  <rect class="st4" x="418.12" y="435.98" width="1.45" height="3.55"/>
  <rect class="st4" x="417.9" y="440.02" width="1.67" height="4.25"/>
  <path class="st2" d="M414.98,447.05c-4.1-.02-8.23-.02-12.33-.05"/>
  <rect class="st4" x="334.45" y="427.4" width="1.3" height="3.9"/>
  <rect class="st4" x="335.73" y="430.62" width="6.38" height=".7"/>
  <rect class="st4" x="336.3" y="423.1" width="4.48" height="1.75"/>
  <rect class="st4" x="340.27" y="423.1" width="2.05" height="4.12"/>
</svg>