<?xml version="1.0" encoding="UTF-8"?>
<svg id="Discord.gg-_x40_marazm" xmlns="http://www.w3.org/2000/svg" version="1.1" viewBox="0 0 420.08 481.88">
  <!-- Generator: Adobe Illustrator 30.1.0, SVG Export Plug-In . SVG Version: 2.1.1 Build 136)  -->
  <defs>
    <style>
      .st0 {
        fill: none;
        stroke-width: .25px;
      }

      .st0, .st1 {
        stroke: #000;
      }

      .st2 {
        fill: #777;
      }

      .st3 {
        fill: #987f00;
      }

      .st1 {
        fill: #363636;
        stroke-width: .5px;
      }
    </style>
  </defs>
  <path class="st1" d="M30.62,282.85v28.15c5.89.02,11.78.03,17.67.05,0,.27,0,.55.02.82-.38,0-.76,0-1.14,0,0,.58.01,1.15.02,1.73h-1.11c0-.57-.01-1.13-.02-1.7-5.15-.03-10.29-.05-15.43-.08,0,3.4,0,6.81,0,10.21,5.17,0,10.34,0,15.5,0,0-2.37-.02-4.74-.03-7.12.35,0,.7-.01,1.05-.02.03,3.47.05,6.93.08,10.4-3.28.02-6.55.04-9.83.07,0,1.39,0,2.77.01,4.16,4.85.01,9.71.02,14.56.03l-.07-17.76c-.48,0-.97,0-1.44,0,0-.27,0-.53,0-.8h20.94v1.62h-14.83v19.42h10.52v2.67h20.6v-13.33h42.1v13.33h20.6v-2.52h10.68v-10.83h16.6v32h-5.62v41.05h25.2v18.52h26.8v-53.2l4.35-4.35h12.7l4.35,4.35v53.2h27.23v-18.23h1.62v15.7h40.02v2.52h2.08v40.9h12.45v-28.15h-2.23v-12.75h4.15v40.9h12.6v-28.15h-2.23v-12.75h11.42v-2.52h14.23v-14.67h-14.23v-4h6.08v-7.7h-6.08v-124.02h4.45v-5.32h-4.45v-24.75h-30.38v4.6h-14.4v10.52h-10.23v-20.75h53.38v-86.85h-6.08v-4.3h-3.85v-11.25h-5.92v-.75h-37.65v28.45h-43.27v-29.05h7.42v-5.03h-14.23v7.25h-24.18v-7.25h-14.23v5.03h7.12v29.05h-38.25v4.15h-4.3v-3.4h-2.07v-43.72h-41.07v14.38h-7.25v-1.18h-27.3v-1.47h-44.62v12.6h20.3v28H30.62v12.45h30.97v10.95h-30.98v39.85h21.55v5.12h19.22v18.7h-19.22v12.37h19.22v19.73h-19.22v4.48c-7.18.08-14.37.15-21.55.23h0ZM58.78,195.12v-2.35h12.6v2.35h-12.6ZM58.78,171.23v-2.35h12.6v2.35h-12.6ZM65.62,182.52v-5.32h5.78v5.32h-5.78ZM87.93,241v-38.8h18.43v-4.1h30.35v4.1h17.23v1.2c-17.1,9.18-52.45,28.25-57.1,31.02-4.2,2.5-6.22,5.65-7.22,7.2-.38.6-.6.95-.75.95-.47,0-.93-.52-.93-1.57h0ZM87.93,301.95v-38.8c0-1.05.43-1.55.95-1.55.15,0,.38.35.75.95,1,1.55,3.03,4.7,7.22,7.2,4.65,2.77,40,21.83,57.1,31.02v1.2h-17.23v4.1h-30.38v-4.1l-18.43-.02h0ZM88.72,150.25v-19.43h54.42v-11.45h16.43v3.12h-8.07v11.45h8.07v6.15h-2.18v1.07h-5.2v7.6h5.2v1.45l-68.68.02h0ZM124.97,263.73c0-.1.15-.4.4-.88.85-1.65,2.77-5.33,2.77-9.15v-3.43c0-2.85-1.35-5.77-2.25-7.73-.45-.98-.78-1.7-.78-2.05,0-.73.93-1.38,1.47-1.68,1.38-.8,5.8-3.45,10.43-6.25h0c5.88-3.55,12.12-7.27,12.88-7.68,1.35-.68,4.05-1.18,4.05,1.35v19.5h-17.23v12.52h17.23v19.77c0,1.52-1.05,2.65-1.98,2.65-.88,0-2.52-1.08-3.93-1.98h0l-.27-.17c-.88-.58-8.62-5.12-14.6-8.65h0c-3.68-2.17-6.68-3.92-6.97-4.12-.82-.52-1.22-1.62-1.22-2.05h0ZM166.6,304.25v-43.42c0-1,.8-1.8,1.8-1.8h7.38c1,0,1.8.8,1.8,1.8v43.42c0,1-.8,1.8-1.8,1.8h-7.38c-1,0-1.8-.8-1.8-1.8h0ZM166.6,243.3v-43.43c0-1,.8-1.8,1.8-1.8h7.38c1,0,1.8.8,1.8,1.8v43.43c0,1-.8,1.8-1.8,1.8h-7.38c-1,0-1.8-.8-1.8-1.8h0ZM190.27,330.95v-41.27l4.1-5.27v-13.48h18.75v-6.3h-18.75v-5.67c0-1.2.98-2.15,2.15-2.15h12.18c1.48.12,4.95,1.1,7,4.1.5.75.9,1.4,1.25,1.98,1.43,2.38,2.07,3.48,6.25,3.48h33.6v-29h-36.85c-.62.75-2.23,2.7-3.57,4.6-1.7,2.38-4.6,5.12-7.68,5.12h-12.18c-1.2,0-2.15-.98-2.15-2.15v-6.55h18.75v-5.98h-18.75v-12.95l-4.1-5.62v-39.25h18.43v-5.98h7l4.27,4.25h29.5l4.27-4.25h8.02v5.98h18.6v39.55l-4.1,4.95v13.3h-18.77v5.98h18.77v26.25h-18.77v6.3h18.77v13.3l4.1,5.62v41.1h-18.25v5.98h-7.5l-4.43-4.42h-29.4l-4.43,4.42h-7.68v-5.98l-18.43.02h0Z"/>
  <path class="st2" d="M190.7,285.38c.55,0,1,.45,1,1h0c0,.55-.45,1-1,1s-1-.45-1-1,.45-1,1-1h0ZM56.65,308.2c.6,0,1.08.48,1.08,1.08h0c0,.6-.47,1.08-1.08,1.08h0c-.6,0-1.08-.48-1.08-1.08s.5-1.08,1.08-1.08h0ZM52.08,308.9c.6,0,1.08.48,1.08,1.08h0c0,.6-.47,1.08-1.08,1.08h0c-.6,0-1.08-.48-1.08-1.08s.47-1.08,1.08-1.08h0ZM192.7,258.1c.55,0,1,.45,1,1s-.45,1-1,1-1-.45-1-1,.45-1,1-1h0ZM188.38,312.02c.55,0,1,.45,1,1s-.45,1-1,1h0c-.55,0-1-.45-1-1h0c0-.55.45-1,1-1h0ZM188.38,189.8c.55,0,1,.45,1,1s-.45,1-1,1h0c-.55,0-1-.45-1-1h0c0-.55.45-1,1-1h0ZM190.7,217.48c.55,0,1,.45,1,1s-.45,1-1,1-1-.45-1-1,.45-1,1-1h0ZM192.7,242.55c.55,0,1,.45,1,1s-.45,1-1,1-1-.45-1-1,.45-1,1-1ZM244.75,355.23c.52,0,.98.42.98.98h0c0,.52-.43.98-.98.98s-.98-.42-.98-.98.43-.98.98-.98h0ZM219.32,335.67c.52,0,.98.42.98.98s-.43.98-.98.98-.98-.42-.98-.98h0c.02-.55.45-.98.98-.98h0ZM224.98,355.23c.52,0,.98.42.98.98h0c0,.52-.43.98-.98.98s-.98-.42-.98-.98.43-.98.98-.98h0ZM222.4,388.12c.52,0,.98.42.98.98h0c0,.52-.43.98-.98.98s-.98-.42-.98-.98.43-.98.98-.98h0ZM247.43,388.12c.52,0,.98.42.98.98s-.43.98-.98.98-.98-.42-.98-.98.45-.98.98-.98ZM349.55,394.4l-.67-2.83,2.17-.52.67,2.83-2.17.52ZM330.17,397.62l1.92-2.55.92.7-1.92,2.55-.92-.7h0ZM351.02,368.08l-.33-3.7,1.5-.12.33,3.7-1.5.12ZM339.65,376.52l-.55-6.4,1.02-.1.55,6.4-1.02.1h0ZM351.02,399.67v-2.15h1.02v2.15h-1.02ZM324.58,397.8v-2.7h3.17v2.7h-3.17ZM188.75,370.38v3.6h1.2v-3.6h-1.2ZM205.15,370.38v3.6h1.2v-3.6h-1.2ZM271.25,390.62v3.6h1.2v-3.6h-1.2ZM286.4,390.62v3.6h1.2v-3.6h-1.2ZM286.4,357.17v-3.6h1.2v3.6h-1.2ZM271.25,357.17v-3.6h1.2v3.6h-1.2ZM43.05,296.65v-6.83h1.2v6.83h-1.2ZM56.05,296.65v-6.83h1.2v6.83h-1.2ZM188.75,364.55v-6.83h1.2v6.83h-1.2ZM205.15,364.55v-6.83h1.2v6.83h-1.2ZM271.25,369.38v-6.83h1.2v6.83h-1.2ZM286.38,369.38v-6.83h1.2v6.83h-1.2ZM271.25,386.58v-6.83h1.2v6.83h-1.2ZM286.38,386.58v-6.83h1.2v6.83h-1.2ZM181.73,370.38v3.6h1.2v-3.6h-1.2ZM198.12,370.38v3.6h1.2v-3.6h-1.2ZM264.23,390.62v3.6h1.2v-3.6h-1.2ZM279.35,390.62v3.6h1.2v-3.6h-1.2ZM279.35,357.17v-3.6h1.2v3.6h-1.2ZM264.23,357.17v-3.6h1.2v3.6h-1.2ZM36.03,296.65v-6.83h1.2v6.83h-1.2ZM49.03,296.65v-6.83h1.2v6.83h-1.2ZM181.73,364.55v-6.83h1.2v6.83h-1.2ZM198.12,364.55v-6.83h1.2v6.83h-1.2ZM264.2,369.38v-6.83h1.2v6.83h-1.2ZM279.35,369.38v-6.83h1.2v6.83h-1.2ZM264.2,386.58v-6.83h1.2v6.83h-1.2ZM279.35,386.58v-6.83h1.2v6.83h-1.2ZM181.73,371.7v2.27h8.23v-2.27h-8.23ZM198.12,371.7v2.27h8.23v-2.27h-8.23ZM264.2,391.95v2.27h8.23v-2.27h-8.23ZM279.35,391.95v2.27h8.23v-2.27h-8.23ZM279.35,355.85v-2.27h8.23v2.27h-8.23ZM264.2,355.85v-2.27h8.23v2.27h-8.23ZM176.4,389.27c0-1.08.88-1.95,1.93-1.95h5.55c1.07,0,1.95.85,1.95,1.92h0c0,1.08-.88,1.92-1.93,1.95h-5.55c-1.07,0-1.93-.85-1.95-1.92h0ZM36.03,295.33v-4.58h8.22v4.6h-8.22v-.02ZM34,306.35c0-1.02.83-1.85,1.85-1.85h5.35c1.03,0,1.85.83,1.85,1.85s-.83,1.85-1.85,1.85h-5.35c-1,.02-1.85-.83-1.85-1.85ZM52.55,306.35v-2.1h3.53v2.1h-3.53ZM72.82,219.45l3.12-6.05,1.32.68-3.12,6.05-1.32-.68ZM72.28,272.5v-8.73h1.4v8.73h-1.4ZM49.03,295.33v-4.58h8.22v4.6h-8.22v-.02ZM181.73,363.23v-4.6h8.23v4.6h-8.23ZM246.48,399.52v-7.1h1.38v7.1h-1.38ZM246.48,386.52v-7.1h1.38v7.1h-1.38ZM234.02,353.58l.12-2.9,5.12.2-.12,2.9-5.12-.2ZM246.48,370.55v-7.1h1.38v7.1h-1.38ZM221.7,370.55v-7.1h1.38v7.1h-1.38ZM221.7,382.98v-7.1h1.38v7.1h-1.38ZM221.7,400.17v-7.1h1.38v7.1h-1.38ZM221.7,409.38v-7.1h1.38v7.1h-1.38ZM198.12,363.23v-4.6h8.23v4.6h-8.23ZM264.2,368.05v-4.6h8.23v4.6h-8.23ZM283.92,258.17v-3h5.3v3h-5.3ZM285.05,260.1v-7.5h3.55v7.5h-3.55ZM276.2,258.17v-13.45h1.92v13.45h-1.92ZM279.1,229.7v-3.02h3v3.02h-3ZM285.05,230.45v-3.77h2.02v3.77h-2.02ZM298.1,180.57v-1.85h1.67v1.85h-1.67ZM298.1,184.02v-1.85h1.67v1.85h-1.67ZM298.1,189.88v-1.85h1.67v1.85h-1.67ZM298.1,193.32v-1.85h1.67v1.85h-1.67ZM299.5,165.52v-6.6h.9v6.6h-.9ZM299.5,202.52v-6.6h.9v6.6h-.9ZM298.1,155.4v-8.45h2.3v8.45h-2.3ZM298.1,213.4v-8.45h2.3v8.45h-2.3ZM281.98,223.9v-1.88h4.85v1.88h-4.85ZM281.52,225.38v-1.48h6.62v1.48h-6.62ZM281.52,231.02v-5.07h2.77v5.07h-2.77ZM227.98,251.6c0-1.15.93-2.07,2.07-2.07h9.1c1.15,0,2.07.93,2.07,2.07h0c0,1.15-.93,2.07-2.07,2.07h-9.1c-1.15,0-2.07-.93-2.07-2.07h0ZM253.02,261.25v-2.08h-3.6v2.08h3.6ZM251.43,251.4v-2.07h3.6v2.07h-3.6ZM255.3,264.2v-5h-2.27v5h2.27ZM218.8,257.27v-1.57h2.8v1.57h-2.8ZM178.85,226.75l4.45,6.43,1.18-.82-4.45-6.43-1.18.82ZM178.85,278.6l4.45-6.42,1.18.83-4.45,6.42-1.18-.83ZM188.48,282.12v1.6h3.95v-1.6h-3.95ZM189.23,221.8v-1.6h3.95v1.6h-3.95ZM185.98,322.12v-15.65h1.45v15.65h-1.45ZM237.88,160.98l3.55-.05-.02-1.7-3.55.05.02,1.7ZM232.35,164.32l8.8.65.25-3.4-8.8-.65-.25,3.4ZM217.25,148.12l2.15-.35-.27-1.75-2.15.35.27,1.75h0ZM217.45,134.23l1.98.2.45-4.23-1.98-.2-.45,4.23ZM224.52,126.32h1.68v-2.68h-1.68v2.68ZM227.57,133.5h3.8v-1.55h-3.8v1.55ZM232.85,133.5h3.8v-1.55h-3.8v1.55ZM234.43,124.43h3.8v-1.55h-3.8v1.55ZM228.12,124.43h3.8v-1.55h-3.8v1.55ZM224.73,171.07h7.88v-2.57h-7.88v2.57ZM222.38,172.52h26.7v-1.45h-26.7v1.45ZM222.38,334.23h26.7v1.45h-26.7v-1.45ZM162.2,296.38v-15.65h1.45v15.65h-1.45ZM162.2,228.93v-15.65h1.45v15.65h-1.45ZM185.95,205.2v-15.65h1.45v15.65h-1.45ZM185.95,306.45v-14.73h3.43v14.73h-3.43ZM162.2,280.98v-12.95h3.43v12.95h-3.43ZM162.2,213.52v-12.95h3.43v12.95h-3.43ZM185.95,189.8v-12.95h3.43v12.95h-3.43ZM185.95,330.5v-10.02h3.43v10.02h-3.43ZM159.9,135.65l.62-3.3,2.43.45-.62,3.3-2.43-.45ZM159.9,131.75v-2.43h3.55v2.43h-3.55ZM158.95,118.65v-2.72h1.88v2.72h-1.88ZM155.8,119.03v-1.72h2.62v1.72h-2.62ZM115.8,163.73v-3.6h13.82v3.6h-13.82ZM148.62,179.1v-14.35h1.68v14.32h-1.68v.02h0ZM145.23,180.02v-1.88h5.1v1.88h-5.1ZM135.35,180.02v-1.88h8.82v1.88h-8.82ZM150.88,180.02v-6.23h7.82v6.23h-7.82ZM139.5,173.02v-9.3h4v9.3h-4ZM83,179.68v-14.73h4.95v14.73h-4.95ZM90.68,163.73v-3.6h13.82v3.6h-13.82ZM66.95,130.07v-3.6h5.65v3.6h-5.65ZM87.97,130.07v-4.07h3.95v4.07h-3.95ZM108.05,130.07v-2.6h3.95v2.6h-3.95ZM110.72,123.22v-1.2h16.35v1.2h-16.35ZM130.62,120.75v-3.45h6.1v3.45h-6.1ZM224.6,336.4l7.45.08v1.3l-7.45-.08v-1.3ZM237.95,336.92l7.45.08v1.3l-7.45-.08v-1.3ZM247.48,172.5h1.6v-4.48h-1.6v4.48h0ZM247.48,334.23h1.6v4.48h-1.6v-4.48h0ZM222.38,172.5h1.6v-4.48h-1.6v4.48ZM222.38,334.23h1.6v4.48h-1.6v-4.48ZM162.2,304.77v-10.02h3.43v10.02h-3.43ZM162.2,237.3v-10.02h3.43v10.02h-3.43ZM185.98,213.57v-10.02h3.43v10.02h-3.43ZM191.5,271.65v12.05h1.48v-12.05h-1.48ZM192.23,232.25v-12.05h1.48v12.05h-1.48ZM217.23,257.25v-11.45h2.27v11.45h-2.27ZM249.7,255.18v-5.85h2.27v5.85h-2.27ZM285.05,245.8v-8.95h3.55v8.95h-3.55ZM293.1,296.42v-14.08h3.98v14.08h-3.98ZM312.08,379.65l3.65-2.38.67,1.02-3.65,2.38-.67-1.02ZM313.08,370.02l1.08-4.2.95.25-1.08,4.2-.95-.25ZM319.75,367.42l1.77-3.98.9.4-1.77,3.98-.9-.4ZM321.55,370.05v-3.38h2.15v3.38h-2.15ZM328.42,366.67v-1.65h5.17v1.65h-5.17ZM323.3,372.27v-5.62h3.48v5.62h-3.48ZM332.15,361.62v-4.48h1.73v4.48h-1.73ZM307.38,361.62v-1.48h4.7v1.48h-4.7ZM341.55,326.48l-.48-4.33,1.83-.2.48,4.33-1.83.2ZM351.05,298.75v-5.67h1.33v5.67h-1.33ZM349.73,254.57v-3.12h2.67v3.12h-2.67ZM326.73,272.33v-2.17h5.15v2.17h-5.15ZM325.02,287.27v-3.12h11.77v3.12h-11.77ZM325.02,302.12v-3.12h11.77v3.12h-11.77ZM297.95,301.88v-3.12h12.17v3.12h-12.17ZM350.05,241.32l-1.67.12-.35-4.8,1.67-.12.35,4.8ZM308.1,242.05v-1.7h3.77v1.7h-3.77ZM316.83,237.45v-2.77h2.05v2.77h-2.05ZM298.17,265.33v-3.5h2.23v3.5h-2.23ZM298.17,270.75v-3.5h2.23v3.5h-2.23ZM310.12,270.15v-7.95h2.23v7.95h-2.23ZM311.4,284.85v-11.7h3.65v11.7h-3.65ZM325.02,302.12v-8.3h2.73v8.3h-2.73ZM316.2,325.52v-9.15h4.08v9.15h-4.08ZM306.8,318.77v-12.55h4.17v12.55h-4.17ZM338.17,329.9v-7.02h2.5v7.02h-2.5ZM316.1,361.62v-4.48h1.73v4.48h-1.73ZM323.7,361.62v-4.48h1.73v4.48h-1.73ZM323.3,346.12v-4.48h1.73v4.48h-1.73ZM327.75,348.05v-4.48h1.73v4.48h-1.73ZM300,346.5l.6-4.42,1.73.23-.6,4.42-1.73-.23ZM308.4,346.58l-.3-4.45,1.73-.12.3,4.45-1.73.12ZM316.2,350l-3.45-2.85,1.1-1.33,3.45,2.85-1.1,1.33ZM293.1,318.77v-14.08h3.98v14.08h-3.98ZM279.35,368.05v-4.6h8.23v4.6h-8.23ZM264.2,385.27v-4.6h8.23v4.6h-8.23ZM272.33,375.3v-1.75h7.02v1.75h-7.02ZM279.35,385.27v-4.6h8.23v4.6h-8.23ZM324.55,412.02v-4.6h2.7v4.6h-2.7Z"/>
  <path class="st3" d="M195.2,238.1h17.68v-5.45h-17.68v5.45ZM257.17,238.1h18.4v-5.48h-18.4v5.48ZM195.2,270.65h17.68v-5.77h-17.68v5.77ZM257.3,270.67h18.33l-.05-5.83h-18.33l.05,5.83ZM52.35,227.43h18.95v-5.18h-18.95v5.18h0ZM52.35,283h18.95v-4.52h-18.95v4.52h0ZM52.35,258.4h18.95v-12.45h-18.95v12.45h0ZM136.73,258.33h17v-12.45h-17v12.45ZM88,306h18.43v-4.05h-18.43v4.05ZM136.8,306.05h16.75v-3.95h-16.75v3.95ZM87.95,202.2h18.43v-4.05h-18.43v4.05h0ZM136.55,202.2h17.27v-4.02h-17.27v4.02ZM190.88,174.32h17.57v-5.65h-17.57v5.65ZM261.75,174.6h18.2v-5.93h-18.2v5.93ZM190.88,336.95h17.57v-5.75h-17.57v5.75ZM262.08,336.95h17.88v-5.92h-17.88v5.92ZM344.62,137.43h-3.85v-4h3.85v4ZM156.35,331.95h-6.07v-3.7h6.23l-.15,3.7h0ZM56.83,331.77h8.62v-3.12h-8.62v3.12h0ZM61.85,171.48h9.9v5.48h-9.88l-.03-5.48h0ZM156.35,331.95l.15-9.3h4.3v9.3h-4.45ZM61.15,328.85v-5h-4.33v5h4.33ZM65.35,176.73v5.9h-3.5v-5.9h3.5ZM155.12,126.62v3.9h-3.38v-3.9h3.38ZM159.57,133.7h-7.82v-3.35h7.82v3.35ZM216.43,120.22h-7.12v-4.32h7.12v4.32ZM261.2,120.22h-7.43v-4.32h7.43v4.32ZM318.77,142.3h-11.9v-4.85h11.9v4.85ZM319.55,223.95h-12.83v-4.1h12.83v4.1ZM326.98,230.3v9.73h-4.58v-9.73h4.58ZM366.45,400.88v9.2h-4.25v-9.2h4.25ZM332.9,234h-6.33v-3.7h6.33v3.7ZM362.2,410.08h-5.95v-3.45h5.95v3.45ZM272.42,399.02h-10.27v-4.3h10.27v4.3ZM197.5,399.02h10.35v-4.55h-10.35v4.55ZM272.42,399.02v5.67h-3.83v-5.67h3.83ZM197.5,399.02v5.73h4.3v-5.73h-4.3Z"/>
  <path d="M173.48,180.23h4.1v-21.3h-4.1v21.3Z"/>
  <path class="st0" d="M332.92,425.85h-1.9M335.38,425.85h5.45M334.48,412.95h6.73M320.25,412.95h6.23M321.25,425.85h5.23M318.7,425.85h-2M317.35,412.95h-1M314.23,403.48v6.95M314.23,401.25v-6.62M314.23,394.62h-16.67M314.23,394.62h2.73M320.25,394.62h-3.3M322.92,394.62h14.58v-9.05M337.5,384.48v1.1M337.5,385.58h-20.55M297.55,385.58v9.05M297.55,385.58h19.4M297.55,385.58v-1.67M297.55,394.62h-3.85M316.95,391.17v3.45M316.95,388.8v-3.23M352.73,405.95v4.3M356.35,406.73v-5.9h5.9v5.9h-5.9ZM352.73,402.48v-6.35M352.73,390.25v1.35M352.73,385.12v-1.2M337.5,378.33v-1.95M337.5,354.02v7.7M337.5,348.58v-8h-39.95v12.83M292.75,383.92h4.8M297.55,383.92v-18.88M292.75,365.05h4.8M297.55,365.05v-3.33M297.55,361.73h6.08M297.55,361.73v-8.3M306.5,361.73h1.67M337.5,361.73v14.65M337.5,361.73h-10.6M331.02,376.35h6.45M327.95,376.35h-1.05M321.25,376.35h5.65M318.27,376.35h-.92M312.23,376.35h5.12M308.9,376.35h-.75v-14.65M308.15,361.73h9.2M317.35,376.35v-14.65M317.35,361.73h9.52M326.88,376.35v-14.65M293.7,403.48v6.55M293.7,400.83v-6.2M293.7,394.62h-19.23M268.58,404.75v-5.75h-6.35v13.92M272.92,394.73h-16.27v-41.3h40.9M280.5,336.9l-18.42.02M301.2,259.95h-3.65v12.67M307.4,259.95h2.42M322.2,272.62h15.27M337.48,272.62v-12.67h-27.67M337.48,272.62v53.15h-39.95v-53.15M319.62,272.62h-9.83M309.8,272.62v-12.67M309.8,272.62h-2.42M301.2,272.62h-3.65M316.45,245h-8.15M319.62,245h2.58M337,238.5v6.5h-14.8M337,235.32v-5.12M332.92,233.98v5.9h-5.9v-5.9h5.9ZM322.2,245v-10.57M297.55,220.68v3.18M297.55,215.7v-39.1M297.55,171.3v-21.6M300.3,137.48h-2.75M305.12,137.48h29.9M344.88,137.48h-9.85M335.02,137.48v-6.8M335.02,128.43v-6.35M319.62,142.18h-12.85v77.45h12.85M246.23,264.7v1.5M246.23,261.67v-1.95M246.23,242.2v1.35M246.23,238.88v-1.68M226.43,243.57h19.8M246.23,243.57v16.15M226.43,259.73h19.8M223.55,259.73h-1.68v-16.15h1.68M201.77,404.75v-5.75h6.05v13.92M177.73,353.4h35.77v30.45M190.23,388.48v6M197.4,388.48v6h16.1v-10.6M197.4,385.75v-1.88h16.1M190.23,385.75v-1.88h-17.98M190.23,336.9h18.5M172.75,312.83v-6.67M150.25,332.35v-4.12M150.25,328.23v-6.67h6.23v6.67h-6.23ZM146.55,321.55h-16.6M153.93,306.05h-17.12M87.82,306.05h18.15M70,321.55h17.8M66.93,321.55v.85M66.93,332v-9.58M66.93,322.4h-5.83v6.15h10.1v6M62.47,307v-5.12h8.72M71.2,301.88v9.12M71.2,301.88v-9.08h-8.72v4.98M46.9,305.48v5.45M46.9,302.9v-1.02h-16.25M71.22,290.4v-7.35h-19M30.65,283.05h21.57M30.62,222.23h21.58M71.75,203.62v1.7M55.97,207.05v-1.7h15.75M71.75,205.32v16.95h-15.75M55.97,210.48v11.8M55.97,222.27h-3.78M45.38,200.55v11.12h-14.73M45.38,197.62v-2.57M45.38,195.07h-14.73M45.38,195.07h13.35M71.72,195.07v5.48M71.72,195.07h-13.03M71.72,195.07v-2.3M71.72,186.15v6.62M71.72,183.43v-.7M71.72,175.9v1.27M58.72,187.02v5.75M58.72,195.05v-2.3M58.72,184.62v-1.88h6.9M71.72,182.73v-5.57M71.72,182.73h-6.12M71.72,172.98v-1.7M71.72,162.2v6.6M71.72,160.15v-1.38M58.72,161v-2.23M58.72,163.23v5.57M75.85,151.4h-4.1M75.85,130.88h-4.1M84.93,130.88h3.6M84.93,151.4h3.6M88.53,151.4v1.38M88.53,151.4v-1.02M88.53,155.52v6.68M88.53,180.35v-18.15M88.53,188.9h44.17v-8.55M132.7,173.5v6.85M132.7,180.35h17.8M173.45,180.35h-22.95M150.5,180.35v-16.25M150.5,159.12v4.95M150.5,164.07h8.55M164.88,164.07h8.55M168.82,150.38h2.4M159.07,150.38h-1.38M155.12,126.07v4.27h4.45v3.43M132,153.48v-3.07M150.5,153.48v-3.07M132.02,157.23v5.12M132.02,170.25v-7.88M132.02,162.38h-18.82M107.7,162.2h-19.18M87.82,198.1h18.5M136.62,198.1h17.48M189.8,168.62h19.25M280.35,168.62h-18.6M227.05,123.03v8.55h12.3M241.5,131.57h1.6v-8.55M58.72,192.77h13.03M71.72,177.15h-6.12v5.57M58.72,168.8v2.45h13M58.72,168.8h13.03M71.72,168.8v2.45M52.2,222.27v5.12h19l.07,18.62h-19.15v12.38h19.15l-.07,20h-19v4.62"/>
  <path class="st2" d="M31.83,312.07h-1v9.77h15.05c0-.38,0-.76,0-1.14-4.67.02-9.34.03-14.01.05-.01-2.89-.02-5.78-.04-8.67Z"/>
</svg>