<?xml version="1.0" encoding="UTF-8"?>
<svg id="Discord.gg-_x40_marazm" xmlns="http://www.w3.org/2000/svg" version="1.1" viewBox="0 0 1680.3 1927.5">
  <!-- Generator: Adobe Illustrator 29.8.3, SVG Export Plug-In . SVG Version: 2.1.1 Build 3)  -->
  <defs>
    <style>
      .st0 {
        fill: #363636;
        stroke-width: 2px;
      }

      .st0, .st1 {
        stroke: #000;
      }

      .st1 {
        fill: none;
      }

      .st2 {
        fill: #777;
      }

      .st3 {
        fill: #987f00;
      }
    </style>
  </defs>
  <path class="st0" d="M122.5,1131.4v112.6c23.55.07,47.1.13,70.66.2.02,1.09.04,2.18.07,3.27-1.52.01-3.04.02-4.56.03.03,2.3.06,4.61.09,6.91-1.48,0-2.96,0-4.44,0-.03-2.27-.06-4.53-.09-6.8-20.58-.11-41.16-.21-61.73-.32,0,13.62,0,27.24.01,40.86,20.67,0,41.34.01,62.02.02-.03-9.49-.07-18.98-.1-28.47,1.4-.03,2.81-.05,4.21-.08.11,13.87.21,27.74.32,41.61-13.1.09-26.21.17-39.31.26.02,5.54.03,11.09.05,16.63,19.42.04,38.84.07,58.26.11l-.29-71.03c-1.93,0-3.86-.01-5.78-.02-.01-1.06-.02-2.13-.03-3.19h83.77v6.5h-59.3v77.7h42.1v10.7h82.4v-53.3h168.4v53.3h82.4v-10.1h42.7v-43.3h66.4v128h-22.5v164.2h100.8v74.1h107.2v-212.8l17.4-17.4h50.8l17.4,17.4v212.8h108.9v-72.9h6.5v62.8h160.1v10.1h8.3v163.6h49.8v-112.6h-8.9v-51h16.6v163.6h50.4v-112.6h-8.9v-51h45.7v-10.1h56.9v-58.7h-56.9v-16h24.3v-30.8h-24.3v-496.1h17.8v-21.3h-17.8v-99h-121.5v18.4h-57.6v42.1h-40.9v-83h213.5v-347.4h-24.3v-17.2h-15.4v-45h-23.7v-3h-150.6v113.8h-173.1v-116.2h29.7v-20.1h-56.9v29h-96.7v-29h-56.9v20.1h28.5v116.2h-153v16.6h-17.2v-13.6h-8.3v-174.9h-164.3v57.5h-29v-4.7h-109.2v-5.9h-178.5v50.4h81.2v112H122.5v49.8h123.9v43.8h-123.9v159.4h86.2v20.5h76.9v74.8h-76.9v49.5h76.9v78.9h-76.9v17.9c-28.73.3-57.47.6-86.2.9ZM235.1,780.5v-9.4h50.4v9.4h-50.4ZM235.1,684.9v-9.4h50.4v9.4h-50.4ZM262.5,730.1v-21.3h23.1v21.3h-23.1ZM351.7,964v-155.2h73.7v-16.4h121.4v16.4h68.9v4.8c-68.4,36.7-209.8,113-228.4,124.1-16.8,10-24.9,22.6-28.9,28.8-1.5,2.4-2.4,3.8-3,3.8-1.9,0-3.7-2.1-3.7-6.3h0ZM351.7,1207.8v-155.2c0-4.2,1.7-6.2,3.8-6.2.6,0,1.5,1.4,3,3.8,4,6.2,12.1,18.8,28.9,28.8,18.6,11.1,160,87.3,228.4,124.1v4.8h-68.9v16.4h-121.5v-16.4l-73.7-.1h0ZM354.9,601v-77.7h217.7v-45.8h65.7v12.5h-32.3v45.8h32.3v24.6h-8.7v4.3h-20.8v30.4h20.8v5.8l-274.7.1h0ZM499.9,1054.9c0-.4.6-1.6,1.6-3.5,3.4-6.6,11.1-21.3,11.1-36.6v-13.7c0-11.4-5.4-23.1-9-30.9-1.8-3.9-3.1-6.8-3.1-8.2,0-2.9,3.7-5.5,5.9-6.7,5.5-3.2,23.2-13.8,41.7-25h0c23.5-14.2,48.5-29.1,51.5-30.7,5.4-2.7,16.2-4.7,16.2,5.4v78h-68.9v50.1h68.9v79.1c0,6.1-4.2,10.6-7.9,10.6-3.5,0-10.1-4.3-15.7-7.9h0l-1.1-.7c-3.5-2.3-34.5-20.5-58.4-34.6h0c-14.7-8.7-26.7-15.7-27.9-16.5-3.3-2.1-4.9-6.5-4.9-8.2h0ZM666.4,1217v-173.7c0-4,3.2-7.2,7.2-7.2h29.5c4,0,7.2,3.2,7.2,7.2v173.7c0,4-3.2,7.2-7.2,7.2h-29.5c-4,0-7.2-3.2-7.2-7.2h0ZM666.4,973.2v-173.7c0-4,3.2-7.2,7.2-7.2h29.5c4,0,7.2,3.2,7.2,7.2v173.7c0,4-3.2,7.2-7.2,7.2h-29.5c-4,0-7.2-3.2-7.2-7.2h0ZM761.1,1323.8v-165.1l16.4-21.1v-53.9h75v-25.2h-75v-22.7c0-4.8,3.9-8.6,8.6-8.6h48.7c5.9.5,19.8,4.4,28,16.4,2,3,3.6,5.6,5,7.9,5.7,9.5,8.3,13.9,25,13.9h134.4v-116h-147.4c-2.5,3-8.9,10.8-14.3,18.4-6.8,9.5-18.4,20.5-30.7,20.5h-48.7c-4.8,0-8.6-3.9-8.6-8.6v-26.2h75v-23.9h-75v-51.8l-16.4-22.5v-157h73.7v-23.9h28l17.1,17h118l17.1-17h32.1v23.9h74.4v158.2l-16.4,19.8v53.2h-75.1v23.9h75.1v105h-75.1v25.2h75.1v53.2l16.4,22.5v164.4h-73v23.9h-30l-17.7-17.7h-117.6l-17.7,17.7h-30.7v-23.9l-73.7.1h0Z"/>
  <path class="st2" d="M762.8,1141.5c2.2,0,4,1.8,4,4h0c0,2.2-1.8,4-4,4s-4-1.8-4-4,1.8-4,4-4h0ZM226.6,1232.8c2.4,0,4.3,1.9,4.3,4.3h0c0,2.4-1.9,4.3-4.3,4.3h0c-2.4,0-4.3-1.9-4.3-4.3s2-4.3,4.3-4.3h0ZM208.3,1235.6c2.4,0,4.3,1.9,4.3,4.3h0c0,2.4-1.9,4.3-4.3,4.3h0c-2.4,0-4.3-1.9-4.3-4.3s1.9-4.3,4.3-4.3h0ZM770.8,1032.4c2.2,0,4,1.8,4,4s-1.8,4-4,4-4-1.8-4-4,1.8-4,4-4h0ZM753.5,1248.1c2.2,0,4,1.8,4,4s-1.8,4-4,4h0c-2.2,0-4-1.8-4-4h0c0-2.2,1.8-4,4-4h0ZM753.5,759.2c2.2,0,4,1.8,4,4s-1.8,4-4,4h0c-2.2,0-4-1.8-4-4h0c0-2.2,1.8-4,4-4h0ZM762.8,869.9c2.2,0,4,1.8,4,4s-1.8,4-4,4-4-1.8-4-4,1.8-4,4-4h0ZM770.8,970.2c2.2,0,4,1.8,4,4s-1.8,4-4,4-4-1.8-4-4,1.8-4,4-4ZM979,1420.9c2.1,0,3.9,1.7,3.9,3.9h0c0,2.1-1.7,3.9-3.9,3.9s-3.9-1.7-3.9-3.9,1.7-3.9,3.9-3.9h0ZM877.3,1342.7c2.1,0,3.9,1.7,3.9,3.9s-1.7,3.9-3.9,3.9-3.9-1.7-3.9-3.9h0c.1-2.2,1.8-3.9,3.9-3.9h0ZM899.9,1420.9c2.1,0,3.9,1.7,3.9,3.9h0c0,2.1-1.7,3.9-3.9,3.9s-3.9-1.7-3.9-3.9,1.7-3.9,3.9-3.9h0ZM889.6,1552.5c2.1,0,3.9,1.7,3.9,3.9h0c0,2.1-1.7,3.9-3.9,3.9s-3.9-1.7-3.9-3.9,1.7-3.9,3.9-3.9h0ZM989.7,1552.5c2.1,0,3.9,1.7,3.9,3.9s-1.7,3.9-3.9,3.9-3.9-1.7-3.9-3.9,1.8-3.9,3.9-3.9ZM1398.2,1577.6l-2.7-11.3,8.7-2.1,2.7,11.3-8.7,2.1ZM1320.7,1590.5l7.7-10.2,3.7,2.8-7.7,10.2-3.7-2.8h0ZM1404.1,1472.3l-1.3-14.8,6-.5,1.3,14.8-6,.5ZM1358.6,1506.1l-2.2-25.6,4.1-.4,2.2,25.6-4.1.4h0ZM1404.1,1598.7v-8.6h4.1v8.6h-4.1ZM1298.3,1591.2v-10.8h12.7v10.8h-12.7ZM755,1481.5v14.4h4.8v-14.4h-4.8ZM820.6,1481.5v14.4h4.8v-14.4h-4.8ZM1085,1562.5v14.4h4.8v-14.4h-4.8ZM1145.6,1562.5v14.4h4.8v-14.4h-4.8ZM1145.6,1428.7v-14.4h4.8v14.4h-4.8ZM1085,1428.7v-14.4h4.8v14.4h-4.8ZM172.2,1186.6v-27.3h4.8v27.3h-4.8ZM224.2,1186.6v-27.3h4.8v27.3h-4.8ZM755,1458.2v-27.3h4.8v27.3h-4.8ZM820.6,1458.2v-27.3h4.8v27.3h-4.8ZM1085,1477.5v-27.3h4.8v27.3h-4.8ZM1145.5,1477.5v-27.3h4.8v27.3h-4.8ZM1085,1546.3v-27.3h4.8v27.3h-4.8ZM1145.5,1546.3v-27.3h4.8v27.3h-4.8ZM726.9,1481.5v14.4h4.8v-14.4h-4.8ZM792.5,1481.5v14.4h4.8v-14.4h-4.8ZM1056.9,1562.5v14.4h4.8v-14.4h-4.8ZM1117.4,1562.5v14.4h4.8v-14.4h-4.8ZM1117.4,1428.7v-14.4h4.8v14.4h-4.8ZM1056.9,1428.7v-14.4h4.8v14.4h-4.8ZM144.1,1186.6v-27.3h4.8v27.3h-4.8ZM196.1,1186.6v-27.3h4.8v27.3h-4.8ZM726.9,1458.2v-27.3h4.8v27.3h-4.8ZM792.5,1458.2v-27.3h4.8v27.3h-4.8ZM1056.8,1477.5v-27.3h4.8v27.3h-4.8ZM1117.4,1477.5v-27.3h4.8v27.3h-4.8ZM1056.8,1546.3v-27.3h4.8v27.3h-4.8ZM1117.4,1546.3v-27.3h4.8v27.3h-4.8ZM726.9,1486.8v9.1h32.9v-9.1h-32.9ZM792.5,1486.8v9.1h32.9v-9.1h-32.9ZM1056.8,1567.8v9.1h32.9v-9.1h-32.9ZM1117.4,1567.8v9.1h32.9v-9.1h-32.9ZM1117.4,1423.4v-9.1h32.9v9.1h-32.9ZM1056.8,1423.4v-9.1h32.9v9.1h-32.9ZM705.6,1557.1c0-4.3,3.5-7.8,7.7-7.8h22.2c4.3,0,7.8,3.4,7.8,7.7h0c0,4.3-3.5,7.7-7.7,7.8h-22.2c-4.3,0-7.7-3.4-7.8-7.7h0ZM144.1,1181.3v-18.3h32.9v18.4h-32.9v-.1ZM136,1225.4c0-4.1,3.3-7.4,7.4-7.4h21.4c4.1,0,7.4,3.3,7.4,7.4s-3.3,7.4-7.4,7.4h-21.4c-4,.1-7.4-3.3-7.4-7.4ZM210.2,1225.4v-8.4h14.1v8.4h-14.1ZM291.3,877.8l12.5-24.2,5.3,2.7-12.5,24.2-5.3-2.7ZM289.1,1090v-34.9h5.6v34.9h-5.6ZM196.1,1181.3v-18.3h32.9v18.4h-32.9v-.1ZM726.9,1452.9v-18.4h32.9v18.4h-32.9ZM985.9,1598.1v-28.4h5.5v28.4h-5.5ZM985.9,1546.1v-28.4h5.5v28.4h-5.5ZM936.1,1414.3l.5-11.6,20.5.8-.5,11.6-20.5-.8ZM985.9,1482.2v-28.4h5.5v28.4h-5.5ZM886.8,1482.2v-28.4h5.5v28.4h-5.5ZM886.8,1531.9v-28.4h5.5v28.4h-5.5ZM886.8,1600.7v-28.4h5.5v28.4h-5.5ZM886.8,1637.5v-28.4h5.5v28.4h-5.5ZM792.5,1452.9v-18.4h32.9v18.4h-32.9ZM1056.8,1472.2v-18.4h32.9v18.4h-32.9ZM1135.7,1032.7v-12h21.2v12h-21.2ZM1140.2,1040.4v-30h14.2v30h-14.2ZM1104.8,1032.7v-53.8h7.7v53.8h-7.7ZM1116.4,918.8v-12.1h12v12.1h-12ZM1140.2,921.8v-15.1h8.1v15.1h-8.1ZM1192.4,722.3v-7.4h6.7v7.4h-6.7ZM1192.4,736.1v-7.4h6.7v7.4h-6.7ZM1192.4,759.5v-7.4h6.7v7.4h-6.7ZM1192.4,773.3v-7.4h6.7v7.4h-6.7ZM1198,662.1v-26.4h3.6v26.4h-3.6ZM1198,810.1v-26.4h3.6v26.4h-3.6ZM1192.4,621.6v-33.8h9.2v33.8h-9.2ZM1192.4,853.6v-33.8h9.2v33.8h-9.2ZM1127.9,895.6v-7.5h19.4v7.5h-19.4ZM1126.1,901.5v-5.9h26.5v5.9h-26.5ZM1126.1,924.1v-20.3h11.1v20.3h-11.1ZM911.9,1006.4c0-4.6,3.7-8.3,8.3-8.3h36.4c4.6,0,8.3,3.7,8.3,8.3h0c0,4.6-3.7,8.3-8.3,8.3h-36.4c-4.6,0-8.3-3.7-8.3-8.3h0ZM1012.1,1045v-8.3h-14.4v8.3h14.4ZM1005.7,1005.6v-8.3h14.4v8.3h-14.4ZM1021.2,1056.8v-20h-9.1v20h9.1ZM875.2,1029.1v-6.3h11.2v6.3h-11.2ZM715.4,907l17.8,25.7,4.7-3.3-17.8-25.7-4.7,3.3ZM715.4,1114.4l17.8-25.7,4.7,3.3-17.8,25.7-4.7-3.3ZM753.9,1128.5v6.4h15.8v-6.4h-15.8ZM756.9,887.2v-6.4h15.8v6.4h-15.8ZM743.9,1288.5v-62.6h5.8v62.6h-5.8ZM951.5,643.9l14.2-.2-.1-6.8-14.2.2.1,6.8ZM929.4,657.3l35.2,2.6,1-13.6-35.2-2.6-1,13.6ZM869,592.5l8.6-1.4-1.1-7-8.6,1.4,1.1,7h0ZM869.8,536.9l7.9.8,1.8-16.9-7.9-.8-1.8,16.9ZM898.1,505.3h6.7v-10.7h-6.7v10.7ZM910.3,534h15.2v-6.2h-15.2v6.2ZM931.4,534h15.2v-6.2h-15.2v6.2ZM937.7,497.7h15.2v-6.2h-15.2v6.2ZM912.5,497.7h15.2v-6.2h-15.2v6.2ZM898.9,684.3h31.5v-10.3h-31.5v10.3ZM889.5,690.1h106.8v-5.8h-106.8v5.8ZM889.5,1336.9h106.8v5.8h-106.8v-5.8ZM648.8,1185.5v-62.6h5.8v62.6h-5.8ZM648.8,915.7v-62.6h5.8v62.6h-5.8ZM743.8,820.8v-62.6h5.8v62.6h-5.8ZM743.8,1225.8v-58.9h13.7v58.9h-13.7ZM648.8,1123.9v-51.8h13.7v51.8h-13.7ZM648.8,854.1v-51.8h13.7v51.8h-13.7ZM743.8,759.2v-51.8h13.7v51.8h-13.7ZM743.8,1322v-40.1h13.7v40.1h-13.7ZM639.6,542.6l2.5-13.2,9.7,1.8-2.5,13.2-9.7-1.8ZM639.6,527v-9.7h14.2v9.7h-14.2ZM635.8,474.6v-10.9h7.5v10.9h-7.5ZM623.2,476.1v-6.9h10.5v6.9h-10.5ZM463.2,654.9v-14.4h55.3v14.4h-55.3ZM594.5,716.4v-57.4h6.7v57.3h-6.7v.1h0ZM580.9,720.1v-7.5h20.4v7.5h-20.4ZM541.4,720.1v-7.5h35.3v7.5h-35.3ZM603.5,720.1v-24.9h31.3v24.9h-31.3ZM558,692.1v-37.2h16v37.2h-16ZM332,718.7v-58.9h19.8v58.9h-19.8ZM362.7,654.9v-14.4h55.3v14.4h-55.3ZM267.8,520.3v-14.4h22.6v14.4h-22.6ZM351.9,520.3v-16.3h15.8v16.3h-15.8ZM432.2,520.3v-10.4h15.8v10.4h-15.8ZM442.9,492.9v-4.8h65.4v4.8h-65.4ZM522.5,483v-13.8h24.4v13.8h-24.4ZM898.4,1345.6l29.8.3v5.2l-29.8-.3v-5.2ZM951.8,1347.7l29.8.3v5.2l-29.8-.3v-5.2ZM989.9,690h6.4v-17.9h-6.4v17.9h0ZM989.9,1336.9h6.4v17.9h-6.4v-17.9h0ZM889.5,690h6.4v-17.9h-6.4v17.9ZM889.5,1336.9h6.4v17.9h-6.4v-17.9ZM648.8,1219.1v-40.1h13.7v40.1h-13.7ZM648.8,949.2v-40.1h13.7v40.1h-13.7ZM743.9,854.3v-40.1h13.7v40.1h-13.7ZM766,1086.6v48.2h5.9v-48.2h-5.9ZM768.9,929v-48.2h5.9v48.2h-5.9ZM868.9,1029v-45.8h9.1v45.8h-9.1ZM998.8,1020.7v-23.4h9.1v23.4h-9.1ZM1140.2,983.2v-35.8h14.2v35.8h-14.2ZM1172.4,1185.7v-56.3h15.9v56.3h-15.9ZM1248.3,1518.6l14.6-9.5,2.7,4.1-14.6,9.5-2.7-4.1ZM1252.3,1480.1l4.3-16.8,3.8,1-4.3,16.8-3.8-1ZM1279,1469.7l7.1-15.9,3.6,1.6-7.1,15.9-3.6-1.6ZM1286.2,1480.2v-13.5h8.6v13.5h-8.6ZM1313.7,1466.7v-6.6h20.7v6.6h-20.7ZM1293.2,1489.1v-22.5h13.9v22.5h-13.9ZM1328.6,1446.5v-17.9h6.9v17.9h-6.9ZM1229.5,1446.5v-5.9h18.8v5.9h-18.8ZM1366.2,1305.9l-1.9-17.3,7.3-.8,1.9,17.3-7.3.8ZM1404.2,1195v-22.7h5.3v22.7h-5.3ZM1398.9,1018.3v-12.5h10.7v12.5h-10.7ZM1306.9,1089.3v-8.7h20.6v8.7h-20.6ZM1300.1,1149.1v-12.5h47.1v12.5h-47.1ZM1300.1,1208.5v-12.5h47.1v12.5h-47.1ZM1191.8,1207.5v-12.5h48.7v12.5h-48.7ZM1400.2,965.3l-6.7.5-1.4-19.2,6.7-.5,1.4,19.2ZM1232.4,968.2v-6.8h15.1v6.8h-15.1ZM1267.3,949.8v-11.1h8.2v11.1h-8.2ZM1192.7,1061.3v-14h8.9v14h-8.9ZM1192.7,1083v-14h8.9v14h-8.9ZM1240.5,1080.6v-31.8h8.9v31.8h-8.9ZM1245.6,1139.4v-46.8h14.6v46.8h-14.6ZM1300.1,1208.5v-33.2h10.9v33.2h-10.9ZM1264.8,1302.1v-36.6h16.3v36.6h-16.3ZM1227.2,1275.1v-50.2h16.7v50.2h-16.7ZM1352.7,1319.6v-28.1h10v28.1h-10ZM1264.4,1446.5v-17.9h6.9v17.9h-6.9ZM1294.8,1446.5v-17.9h6.9v17.9h-6.9ZM1293.2,1384.5v-17.9h6.9v17.9h-6.9ZM1311,1392.2v-17.9h6.9v17.9h-6.9ZM1200,1386l2.4-17.7,6.9.9-2.4,17.7-6.9-.9ZM1233.6,1386.3l-1.2-17.8,6.9-.5,1.2,17.8-6.9.5ZM1264.8,1400l-13.8-11.4,4.4-5.3,13.8,11.4-4.4,5.3ZM1172.4,1275.1v-56.3h15.9v56.3h-15.9ZM1117.4,1472.2v-18.4h32.9v18.4h-32.9ZM1056.8,1541.1v-18.4h32.9v18.4h-32.9ZM1089.3,1501.2v-7h28.1v7h-28.1ZM1117.4,1541.1v-18.4h32.9v18.4h-32.9ZM1298.2,1648.1v-18.4h10.8v18.4h-10.8Z"/>
  <path class="st3" d="M780.8,952.4h70.7v-21.8h-70.7v21.8ZM1028.7,952.4h73.6v-21.9h-73.6v21.9ZM780.8,1082.6h70.7v-23.1h-70.7v23.1ZM1029.2,1082.7h73.3l-.2-23.3h-73.3l.2,23.3ZM209.4,909.7h75.8v-20.7h-75.8v20.7h0ZM209.4,1132h75.8v-18.1h-75.8v18.1h0ZM209.4,1033.6h75.8v-49.8h-75.8v49.8h0ZM546.9,1033.3h68v-49.8h-68v49.8ZM352,1224h73.7v-16.2h-73.7v16.2ZM547.2,1224.2h67v-15.8h-67v15.8ZM351.8,808.8h73.7v-16.2h-73.7v16.2h0ZM546.2,808.8h69.1v-16.1h-69.1v16.1ZM763.5,697.3h70.3v-22.6h-70.3v22.6ZM1047,698.4h72.8v-23.7h-72.8v23.7ZM763.5,1347.8h70.3v-23h-70.3v23ZM1048.3,1347.8h71.5v-23.7h-71.5v23.7ZM1378.5,549.7h-15.4v-16h15.4v16ZM625.4,1327.8h-24.3v-14.8h24.9l-.6,14.8h0ZM227.3,1327.1h34.5v-12.5h-34.5v12.5h0ZM247.4,685.9h39.6v21.9h-39.5l-.1-21.9h0ZM625.4,1327.8l.6-37.2h17.2v37.2h-17.8ZM244.6,1315.4v-20h-17.3v20h17.3ZM261.4,706.9v23.6h-14v-23.6h14ZM620.5,506.5v15.6h-13.5v-15.6h13.5ZM638.3,534.8h-31.3v-13.4h31.3v13.4ZM865.7,480.9h-28.5v-17.3h28.5v17.3ZM1044.8,480.9h-29.7v-17.3h29.7v17.3ZM1275.1,569.2h-47.6v-19.4h47.6v19.4ZM1278.2,895.8h-51.3v-16.4h51.3v16.4ZM1307.9,921.2v38.9h-18.3v-38.9h18.3ZM1465.8,1603.5v36.8h-17v-36.8h17ZM1331.6,936h-25.3v-14.8h25.3v14.8ZM1448.8,1640.3h-23.8v-13.8h23.8v13.8ZM1089.7,1596.1h-41.1v-17.2h41.1v17.2ZM790,1596.1h41.4v-18.2h-41.4v18.2ZM1089.7,1596.1v22.7h-15.3v-22.7h15.3ZM790,1596.1v22.9h17.2v-22.9h-17.2Z"/>
  <path d="M693.9,720.9h16.4v-85.2h-16.4v85.2Z"/>
  <path class="st1" d="M1331.7,1703.4h-7.6M1341.5,1703.4h21.8M1337.9,1651.8h26.9M1281,1651.8h24.9M1285,1703.4h20.9M1274.8,1703.4h-8M1269.4,1651.8h-4M1256.9,1613.9v27.8M1256.9,1605v-26.5M1256.9,1578.5h-66.7M1256.9,1578.5h10.9M1281,1578.5h-13.2M1291.7,1578.5h58.3v-36.2M1350,1537.9v4.4M1350,1542.3h-82.2M1190.2,1542.3v36.2M1190.2,1542.3h77.6M1190.2,1542.3v-6.7M1190.2,1578.5h-15.4M1267.8,1564.7v13.8M1267.8,1555.2v-12.9M1410.9,1623.8v17.2M1425.4,1626.9v-23.6h23.6v23.6h-23.6ZM1410.9,1609.9v-25.4M1410.9,1561v5.4M1410.9,1540.5v-4.8M1350,1513.3v-7.8M1350,1416.1v30.8M1350,1394.3v-32h-159.8v51.3M1171,1535.7h19.2M1190.2,1535.7v-75.5M1171,1460.2h19.2M1190.2,1460.2v-13.3M1190.2,1446.9h24.3M1190.2,1446.9v-33.2M1226,1446.9h6.7M1350,1446.9v58.6M1350,1446.9h-42.4M1324.1,1505.4h25.8M1311.8,1505.4h-4.2M1285,1505.4h22.6M1273.1,1505.4h-3.7M1248.9,1505.4h20.5M1235.6,1505.4h-3v-58.6M1232.6,1446.9h36.8M1269.4,1505.4v-58.6M1269.4,1446.9h38.1M1307.5,1505.4v-58.6M1174.8,1613.9v26.2M1174.8,1603.3v-24.8M1174.8,1578.5h-76.9M1074.3,1619v-23h-25.4v55.7M1091.7,1578.9h-65.1v-165.2h163.6M1122,1347.6l-73.7.1M1204.8,1039.8h-14.6v50.7M1229.6,1039.8h9.7M1288.8,1090.5h61.1M1349.9,1090.5v-50.7h-110.7M1349.9,1090.5v212.6h-159.8v-212.6M1278.5,1090.5h-39.3M1239.2,1090.5v-50.7M1239.2,1090.5h-9.7M1204.8,1090.5h-14.6M1265.8,980h-32.6M1278.5,980h10.3M1348,954v26h-59.2M1348,941.3v-20.5M1331.7,935.9v23.6h-23.6v-23.6h23.6ZM1288.8,980v-42.3M1190.2,882.7v12.7M1190.2,862.8v-156.4M1190.2,685.2v-86.4M1201.2,549.9h-11M1220.5,549.9h119.6M1379.5,549.9h-39.4M1340.1,549.9v-27.2M1340.1,513.7v-25.4M1278.5,568.7h-51.4v309.8h51.4M984.9,1058.8v6M984.9,1046.7v-7.8M984.9,968.8v5.4M984.9,955.5v-6.7M905.7,974.3h79.2M984.9,974.3v64.6M905.7,1038.9h79.2M894.2,1038.9h-6.7v-64.6h6.7M807.1,1619v-23h24.2v55.7M710.9,1413.6h143.1v121.8M760.9,1553.9v24M789.6,1553.9v24h64.4v-42.4M789.6,1543v-7.5h64.4M760.9,1543v-7.5h-71.9M760.9,1347.6h74M691,1251.3v-26.7M601,1329.4v-16.5M601,1312.9v-26.7h24.9v26.7h-24.9ZM586.2,1286.2h-66.4M615.7,1224.2h-68.5M351.3,1224.2h72.6M280,1286.2h71.2M267.7,1286.2v3.4M267.7,1328v-38.3M267.7,1289.6h-23.3v24.6h40.4v24M249.9,1228v-20.5h34.9M284.8,1207.5v36.5M284.8,1207.5v-36.3h-34.9v19.9M187.6,1221.9v21.8M187.6,1211.6v-4.1h-65M284.9,1161.6v-29.4h-76M122.6,1132.2h86.3M122.5,888.9h86.3M287,814.5v6.8M223.9,828.2v-6.8h63M287,821.3v67.8h-63M223.9,841.9v47.2M223.9,889.1h-15.1M181.5,802.2v44.5h-58.9M181.5,790.5v-10.3M181.5,780.3h-58.9M181.5,780.3h53.4M286.9,780.3v21.9M286.9,780.3h-52.1M286.9,780.3v-9.2M286.9,744.6v26.5M286.9,733.7v-2.8M286.9,703.6v5.1M234.9,748.1v23M234.9,780.2v-9.2M234.9,738.5v-7.5h27.6M286.9,730.9v-22.3M286.9,730.9h-24.5M286.9,691.9v-6.8M286.9,648.8v26.4M286.9,640.6v-5.5M234.9,644v-8.9M234.9,652.9v22.3M303.4,605.6h-16.4M303.4,523.5h-16.4M339.7,523.5h14.4M339.7,605.6h14.4M354.1,605.6v5.5M354.1,605.6v-4.1M354.1,622.1v26.7M354.1,721.4v-72.6M354.1,755.6h176.7v-34.2M530.8,694v27.4M530.8,721.4h71.2M693.8,721.4h-91.8M602,721.4v-65M602,636.5v19.8M602,656.3h34.2M659.5,656.3h34.2M675.3,601.5h9.6M636.3,601.5h-5.5M620.5,504.3v17.1h17.8v13.7M528,613.9v-12.3M602,613.9v-12.3M528.1,628.9v20.5M528.1,681v-31.5M528.1,649.5h-75.3M430.8,648.8h-76.7M351.3,792.4h74M546.5,792.4h69.9M759.2,674.5h77M1121.4,674.5h-74.4M908.2,492.1v34.2h49.2M966,526.3h6.4v-34.2M234.9,771.1h52.1M286.9,708.6h-24.5v22.3M234.9,675.2v9.8h52M234.9,675.2h52.1M286.9,675.2v9.8M208.8,889.1v20.5h76l.3,74.5h-76.6v49.5h76.6l-.3,80h-76v18.5"/>
  <path class="st2" d="M127.34,1248.29h-3.98v39.06h60.19c-.01-1.52-.02-3.04-.04-4.56-18.67.06-37.35.12-56.02.18-.05-11.56-.1-23.12-.15-34.68Z"/>
</svg>