<?xml version="1.0" encoding="UTF-8"?>
<svg id="Discord.gg-_x40_marazm" xmlns="http://www.w3.org/2000/svg" version="1.1" viewBox="0 0 716.39 1012.13">
  <!-- Generator: Adobe Illustrator 30.1.0, SVG Export Plug-In . SVG Version: 2.1.1 Build 136)  -->
  <defs>
    <style>
      .st0, .st1 {
        fill: #111;
      }

      .st2 {
        stroke-dasharray: 0 0 2 .75;
        stroke-width: 8.5px;
      }

      .st2, .st3, .st4, .st5, .st6, .st7 {
        stroke-miterlimit: 3.39;
      }

      .st2, .st8, .st9, .st10, .st11, .st12, .st13, .st4, .st14, .st5, .st6, .st15 {
        fill: none;
      }

      .st2, .st4, .st5, .st6 {
        stroke: #424242;
      }

      .st3, .st10, .st7 {
        stroke-width: .75px;
      }

      .st3, .st11, .st7, .st15, .st16, .st1 {
        stroke: #000;
      }

      .st3, .st7 {
        fill: #212121;
      }

      .st8, .st9, .st11, .st14 {
        stroke-dashoffset: .5px;
        stroke-miterlimit: 3;
      }

      .st8, .st12 {
        stroke-width: 2px;
      }

      .st8, .st14 {
        stroke: #914833;
        stroke-dasharray: 0 0 .5 .5;
      }

      .st9 {
        stroke: #4a6b96;
        stroke-dasharray: 1 2.5 4.5 1.5;
      }

      .st9, .st11, .st14 {
        stroke-width: 1.5px;
      }

      .st17 {
        fill: #424242;
      }

      .st10 {
        stroke: #987f00;
      }

      .st10, .st12, .st13, .st18, .st15, .st16, .st1 {
        stroke-miterlimit: 10;
      }

      .st19 {
        fill: #8d8d8d;
      }

      .st11 {
        stroke-dasharray: 0 0 1.5 2;
      }

      .st12 {
        stroke: #333;
      }

      .st13 {
        stroke: #09b716;
      }

      .st13, .st18 {
        stroke-width: .25px;
      }

      .st4 {
        stroke-width: 3px;
      }

      .st20 {
        fill: #333;
      }

      .st5, .st6 {
        stroke-width: 6px;
      }

      .st18 {
        fill: #0b20b5;
        stroke: blue;
      }

      .st6, .st7 {
        isolation: isolate;
        opacity: .4;
      }

      .st15, .st1 {
        stroke-width: 1.25px;
      }

      .st16 {
        fill: #666;
        stroke-width: .5px;
      }
    </style>
  </defs>
  <g>
    <polygon class="st0" points="386.72 320.99 386.72 333 417.81 342.34 421.04 331.29 386.72 320.99"/>
    <polygon class="st0" points="424.46 324.98 421.58 334.81 465.5 347.23 499.27 223.6 560.6 239.77 562.95 230.82 492.99 211.17 459.65 334.24 424.46 324.98"/>
  </g>
  <path class="st3" d="M230.21,973.65h55.86v-5.84h8.09l27.2-45c9.57-4.11,19.13-8.22,28.7-12.33,1.11-.33,2.22-.65,3.33-.98,24.27-5.78,48.54-11.55,72.82-17.33,1.6-.18,3.2-.36,4.79-.54,1.33.58,2.66,1.15,3.99,1.73l55.4,14.43c1.84.2,3.68.39,5.53.59,9.61-35.61,19.22-71.22,28.83-106.83l102.19,27.35c1.22-4.34,2.43-8.67,3.65-13.01-34.03-9.08-68.07-18.15-102.1-27.23,7.66-28.12,15.33-56.23,22.99-84.35,33.31,8.89,66.61,17.78,99.92,26.66,1.45-4.88,2.89-9.76,4.34-14.64-33.64-8.96-67.27-17.92-100.91-26.89l1.09-3.7c-14.84-4.22-29.68-8.44-44.53-12.66,37.59-139.08,75.18-278.16,112.78-417.24-20.36-5.3-40.73-10.6-61.09-15.9,2.25-8.25,4.51-16.49,6.76-24.74,1.52.4,3.04.81,4.56,1.21.6-2.49,1.21-4.99,1.81-7.48l-4.3-1.22c1.58-5.8,3.16-11.61,4.74-17.41,1.55.39,3.1.78,4.65,1.18.59-2.46,1.17-4.93,1.76-7.38-1.48-.37-2.97-.74-4.45-1.12,1.48-5.3,2.97-10.6,4.45-15.9,1.49.41,2.99.82,4.48,1.24l2.05-7.34c-1.61-.45-3.22-.9-4.84-1.35,1.41-4.92,2.83-9.85,4.24-14.77,1.49.42,2.98.84,4.47,1.26,1.29-4.45,2.59-8.89,3.89-13.34-3.78-1.24-7.57-2.48-11.35-3.72-1.41,4.52-2.82,9.04-4.23,13.56l4.54,1.59c-1.32,4.92-2.64,9.84-3.96,14.76-1.31-.34-2.61-.68-3.92-1.02-.72,2.35-1.43,4.7-2.15,7.04,1.41.43,2.82.87,4.22,1.3-1.49,5.35-2.97,10.7-4.46,16.04l-4.29-1.08c-.62,2.4-1.24,4.79-1.86,7.19,1.43.39,2.87.78,4.3,1.18-1.59,5.78-3.18,11.56-4.77,17.34-1.34-.41-2.69-.83-4.03-1.24h0c-.78,2.37-1.57,4.73-2.35,7.09,1.46.57,2.93,1.15,4.39,1.72-2.31,8.23-4.61,16.47-6.92,24.7-20.4-5.29-40.8-10.58-61.21-15.87-11.3,41.12-22.6,82.23-33.9,123.34-14.43-3.99-28.86-7.98-43.29-11.98l4.3-15.75c-.73-.34-1.47-.68-2.2-1.03-2.14,7.99-4.28,15.97-6.42,23.96-10.28-3.11-20.57-6.23-30.85-9.34.02-98.4.04-196.8.07-295.21l-358.99.38v21.36h8.6v269.68h22.45c-.06-80.95-.12-161.89-.18-242.84h104.06v550.79c18.65,10.71,37.29,21.42,55.94,32.13.24,84.24.49,168.49.73,252.73,4.9,8.3,9.81,16.6,14.71,24.9l-.1,22.3c-1.33,1.62-2.66,3.24-3.99,4.87h0Z"/>
  <g>
    <g>
      <path class="st19" d="M221.84,919.7c.08.36.26.94.68,1.53.59.84,1.34,1.23,1.71,1.4h13.82c.26-.03,1.32-.2,2.13-1.13.74-.85.8-1.8.82-2.08v-274.06c0-.3-.07-1.09-.65-1.82-.93-1.17-2.4-1.16-2.57-1.16h-12.2c-.29,0-1.43.03-2.45.89-1.05.89-1.24,2.05-1.29,2.33v272.64"/>
      <path class="st19" d="M513.61,605.37c-.22-.04-1.76-.37-2.58-1.87-.7-1.28-.4-2.52-.33-2.79,29.6-109.47,59.2-218.95,88.8-328.42.06-.25.35-1.39,1.47-2.12,1.27-.83,2.61-.5,2.82-.44,3.52,1.05,7.04,2.11,10.57,3.16.23.07,1.34.42,2,1.57.73,1.31.28,2.61.21,2.8-29.65,109.65-59.29,219.3-88.94,328.95-.02.18-.17,1.27-1.16,1.98-1.09.78-2.3.46-2.45.42-3.46-1.08-6.92-2.16-10.39-3.25h0Z"/>
      <path class="st19" d="M517.35,565.01c1.55-1,2.04-2.53,2.17-2.95,25.82-96.7,51.65-193.4,77.47-290.1.06-.16.66-1.74-.29-3.24-.83-1.3-2.21-1.55-2.43-1.58-5.47-1.53-10.93-3.05-16.4-4.58-.31-.08-1.56-.35-2.84.36-1.66.92-1.96,2.7-1.99,2.91-26.17,96.81-52.34,193.62-78.52,290.43-.07.16-.7,1.77.24,3.26.68,1.07,1.74,1.4,2.02,1.47,5.36,1.52,10.73,3.04,16.09,4.56.3.1,2.46.76,4.48-.55h0Z"/>
      <path class="st19" d="M317.85,443.84c-1.11,1.22-2.58,1.28-2.84,1.29-12.46.05-24.91.11-37.37.17-.32-.03-1.81-.19-2.93-1.48-1.02-1.17-1.07-2.48-1.08-2.84v-102.95c0-.25.04-1.63,1.17-2.71,1.09-1.04,2.41-1.05,2.67-1.05,12.05-.12,24.11-.24,36.16-.37.27-.02,2.38-.16,3.91,1.48,1.23,1.32,1.27,2.91,1.27,3.28v101.95c.03.23.24,1.89-.98,3.23h0Z"/>
      <path class="st19" d="M317.95,331.05c-1.11,1.22-2.58,1.28-2.84,1.29-12.46.05-24.91.11-37.37.17-.32-.03-1.81-.19-2.93-1.48-1.02-1.17-1.07-2.48-1.08-2.84v-102.95c0-.25.04-1.63,1.17-2.71,1.09-1.04,2.41-1.05,2.67-1.05,12.05-.12,24.11-.24,36.16-.37.27-.02,2.38-.16,3.91,1.49,1.23,1.32,1.27,2.91,1.27,3.28v101.95c.03.23.24,1.89-.98,3.23h0Z"/>
      <path class="st19" d="M317.95,217.77c-1.11,1.22-2.58,1.28-2.84,1.29-12.46.05-24.91.11-37.37.16-.32-.03-1.81-.19-2.93-1.49-1.02-1.16-1.07-2.48-1.08-2.84v-102.94c0-.25.04-1.63,1.17-2.71,1.09-1.04,2.41-1.05,2.67-1.05,12.05-.12,24.11-.25,36.16-.37.27-.02,2.38-.16,3.91,1.49,1.23,1.32,1.27,2.91,1.27,3.28v101.95c.03.23.24,1.88-.98,3.23h0Z"/>
      <path class="st19" d="M200.51,582.09c-1.71,1.72-3.91,1.6-4.24,1.58-8.75.02-17.5.03-26.25.04-.43,0-1.66-.07-2.77-.96-1.81-1.45-1.66-3.79-1.65-4.01V150.43c.06-.45.29-1.64,1.29-2.69,1.29-1.37,2.95-1.49,3.32-1.52h27c1.43.13,2.7.58,3.57,1.52,0,0,1.11,1.19,1.26,3.28.3,4.37.08,320.96,0,426.47.04.28.33,2.73-1.53,4.6h0Z"/>
      <path class="st19" d="M30.95,56.34c.84.75,1.8.85,2.12.86,64.41-.02,128.82-.04,193.22-.06.3.03,1.48.09,2.54-.72,1.49-1.14,1.43-2.99,1.42-3.16v-11.64c0-.28-.05-1.12-.67-1.86-1.01-1.2-2.61-1.03-2.74-1.01H33.33c-.36.01-1.27.1-2.12.77-1.36,1.06-1.4,2.72-1.4,2.95v11.02c-.01.21-.08,1.76,1.14,2.85h0Z"/>
    </g>
    <path class="st19" d="M206.08,571.6c1.04,1.12,2.29,1.42,2.71,1.5h19.38c.38,0,1.67-.02,2.77-.96,1.76-1.51,1.37-3.92,1.35-4.04,0-37.92,0-75.85,0-113.77-.01-.29-.1-1.45-1.02-2.39-1.15-1.18-2.66-1.1-2.88-1.08-6.41,0-12.83,0-19.25,0-.47.06-1.61.26-2.68,1.17-1.3,1.1-1.63,2.51-1.71,2.93v113.64c.03.42.2,1.81,1.33,3.02h0Z"/>
    <path class="st19" d="M242.45,571.6c1.04,1.12,2.29,1.42,2.71,1.5h19.38c.38,0,1.67-.02,2.77-.96,1.76-1.51,1.37-3.92,1.35-4.04,0-37.92,0-75.85,0-113.77-.01-.29-.1-1.45-1.02-2.39-1.15-1.18-2.66-1.1-2.89-1.08-6.42,0-12.83,0-19.25,0-.47.06-1.61.26-2.68,1.17-1.3,1.1-1.63,2.51-1.71,2.93v113.64c.03.42.2,1.81,1.33,3.02h0Z"/>
    <path class="st19" d="M206.08,447.27c1.04,1.12,2.29,1.42,2.71,1.5h19.38c.38,0,1.67-.02,2.77-.96,1.76-1.51,1.37-3.92,1.35-4.04,0-37.92,0-75.85,0-113.77-.01-.29-.1-1.45-1.02-2.39-1.15-1.18-2.66-1.1-2.88-1.08-6.41,0-12.83,0-19.25,0-.47.06-1.61.26-2.68,1.17-1.3,1.1-1.63,2.51-1.71,2.93v113.64c.03.42.2,1.81,1.33,3.02h0Z"/>
    <path class="st19" d="M242.45,446.71c1.04,1.12,2.29,1.42,2.71,1.5h19.38c.38,0,1.67-.02,2.77-.96,1.76-1.51,1.37-3.92,1.35-4.04,0-37.92,0-75.85,0-113.77-.01-.29-.1-1.45-1.02-2.39-1.15-1.18-2.66-1.1-2.89-1.08-6.42,0-12.83,0-19.25,0-.47.06-1.61.26-2.68,1.17-1.3,1.1-1.63,2.51-1.71,2.93v113.64c.03.42.2,1.81,1.33,3.02h0Z"/>
    <path class="st19" d="M206.08,322.82c1.04,1.12,2.29,1.42,2.71,1.5h19.38c.38,0,1.67-.02,2.77-.96,1.76-1.51,1.37-3.92,1.35-4.04,0-37.92,0-75.85,0-113.77-.01-.29-.1-1.45-1.02-2.4-1.15-1.18-2.66-1.1-2.88-1.09-6.41,0-12.83,0-19.25,0-.47.06-1.61.26-2.68,1.16-1.3,1.1-1.63,2.51-1.71,2.93v113.64c.03.42.2,1.81,1.33,3.02h0Z"/>
    <path class="st19" d="M242.45,322.82c1.04,1.12,2.29,1.42,2.71,1.5h19.38c.38,0,1.67-.02,2.77-.96,1.76-1.51,1.37-3.92,1.35-4.04,0-37.92,0-75.85,0-113.77-.01-.29-.1-1.45-1.02-2.4-1.15-1.18-2.66-1.1-2.89-1.09-6.42,0-12.83,0-19.25,0-.47.06-1.61.26-2.68,1.16-1.3,1.1-1.63,2.51-1.71,2.93v113.64c.03.42.2,1.81,1.33,3.02h0Z"/>
  </g>
  <g>
    <path class="st8" d="M258.32,984.78c4.6-5.79,8.14-10.87,10.7-14.74,4.2-6.36,5.83-9.61,6.59-11.2,1.4-2.91,2.98-6.13,4.11-10.58.95-3.71,1.18-6.64,1.37-9.62.33-5.15.65-12.53.59-21.86.08-21.15.15-42.29.2-63.44.11-51.47.11-102.95,0-154.43.02-.74.08-1.82.28-3.1.4-2.61,1.11-4.49,1.36-5.15,1.02-2.74-.08-.35,3.52-11.28,1.99-6.03,3.17-9.31,3.85-12.78.43-2.21.72-4.43.72-4.43.21-1.64.31-2.88.39-3.91.11-1.4.22-3.21.28-5.35-.12-15.48-.19-36.33,0-61.06.11-14.43.27-24.98.29-26.75.37-25.72.47-148.64,0-454.73"/>
    <path class="st8" d="M273.11,936.75v-233.45c-.02-.57-.03-1.35,0-2.28.04-1.18.19-4.51,1.22-8.48.37-1.44.78-2.64,3.52-8.93,1.58-3.64,5.38-12.25,6.33-15.39.04-.14.4-1.34.91-3,.33-1.09.54-1.73.59-1.89.85-2.75.79-6.51.78-6.65-.05-3.4.3-231.9.78-546.33"/>
    <path class="st8" d="M292.86,489.05l3.06-6.47,2.3-5.53c.09-.32.17-.66.24-1.03.18-.94.22-1.79.2-2.51V110.35"/>
    <path class="st8" d="M298.76,426.41c.96-1.61,1.93-3.23,2.9-4.84.65-1.24,1.3-2.48,1.95-3.72.08-.19.17-.39.24-.59.55-1.42.76-3.08.76-3.08.05-.35.09-.82.11-1.38V110.35"/>
    <path class="st8" d="M264.79,936.75v-182.6"/>
    <path class="st8" d="M265,837.34c1.16-2.76,2.32-5.54,3.46-8.37,1.52-3.72,2.98-7.41,4.4-11.05"/>
    <path class="st8" d="M264.59,788.45l-20.4-33.78"/>
    <path class="st8" d="M244.19,786.02v-140.83"/>
    <path class="st8" d="M243.88,679.65l-9.68-14.74"/>
    <path class="st8" d="M233.98,920.18v-276.64"/>
    <path class="st8" d="M228.94,643.55v276.64"/>
    <path class="st8" d="M292.42,591.75c.23-.21.51-.49.75-.88.49-.78.57-1.54.62-2.15.25-2.8.26-4.04.26-4.04.02-2.09-.02-2.05,0-3.2.03-1.84.05-3.09.29-4.63.31-1.97.82-3.41,1.27-4.7.25-.71.86-2.35,1.86-4.27,1.78-3.42,3.92-6.05,5.46-7.78,3.38-3.81,10.65-10.99,20.74-19.73,12.48-11.3,24.96-22.61,37.43-33.91.27-.24.55-.51.83-.82.21-.23,1.03-1.17,1.96-3.28.36-.81.78-1.9,1.12-3.24,13.76-51.21,27.51-102.41,41.27-153.62"/>
    <path class="st8" d="M345.19,520.33c2.55-4.02,5.17-8.04,7.89-12.07.23-.34.46-.67.68-1.01.19-.45.46-1.1.78-1.89,1.27-3.2,2.01-5.67,2.61-7.73,1.01-3.45,2.05-7.09,3.13-10.96l39.1-143.33"/>
    <path class="st8" d="M325.21,538.55c1.92-3.15,3.84-6.33,5.75-9.54.29-.48.57-.96.86-1.44.22-.49.44-.98.66-1.47l1.96-7.12c15.43-56.77,30.86-113.54,46.29-170.32v-1.64c.11-78.69.23-157.38.34-236.07"/>
    <path class="st8" d="M376.47,363.2V110.96"/>
    <path class="st14" d="M229.02,54.4H30.22"/>
    <path class="st14" d="M229.02,42.17H30.22"/>
    <path class="st14" d="M525.25,605.47c29.61-109.91,59.22-219.83,88.83-329.74"/>
    <path class="st14" d="M602.73,272.92c-29.71,109.4-59.41,218.8-89.12,328.21"/>
  </g>
  <g>
    <path class="st7" d="M574.4,216.54l1.91-7.71-11.04-3.34c-.86,2.4-1.72,4.81-2.58,7.21l11.7,3.84h0Z"/>
    <polygon class="st7" points="581.11 191.26 570.08 188.24 571.82 181.44 582.79 184.29 581.11 191.26"/>
    <polygon class="st7" points="587.27 168.09 576.46 164.8 578.59 158.15 589.37 161.18 587.27 168.09"/>
    <polygon class="st7" points="593.31 145.83 581.96 142.4 586.12 129.29 596.98 132.94 593.31 145.83"/>
  </g>
  <g>
    <path class="st5" d="M305.06,962.6c-.09-8.27-.18-16.54-.27-24.82-.09-162.41-.18-324.82-.27-487.22h15.27c54.78,14.5,109.49,29.28,164.12,44.33.6.17,3.93,1.08,4.52,1.25-.34,1.22-.68,2.44-1.02,3.67-1.49-.42-2.98-.85-4.47-1.27-7.7,28.65-15.41,57.29-23.11,85.93"/>
    <path class="st5" d="M379.44,467.15c-11.73,44.26-23.46,88.52-35.18,132.78"/>
    <path class="st5" d="M315.45,590.29h29.84"/>
    <path class="st5" d="M304.82,568.71c20.89-18.82,41.78-37.64,62.67-56.46"/>
    <path class="st5" d="M421.04,901.22c19.07-71.74,38.13-143.48,57.2-215.22"/>
    <path class="st5" d="M305.18,625.06c35,9.53,70,19.07,105,28.6"/>
    <path class="st5" d="M417.63,627.51c-10.15,37.54-20.3,75.09-30.46,112.63"/>
    <path class="st5" d="M305.06,717.35c51.25,13.91,102.49,27.83,153.74,41.73"/>
    <path class="st5" d="M438.89,834.05c3.01.72,6.01,1.45,9.02,2.17"/>
    <path class="st5" d="M323.78,451.44c-.08-127.66-.16-255.32-.24-382.99H47.54v253.26"/>
    <path class="st6" d="M322.85,103.28h-54.49c-.07,30.29-.13,60.59-.2,90.88h-61.65"/>
    <path class="st4" d="M305.42,862.82h30.72c2.14-3.95,4.28-7.89,6.42-11.84-.18-15.76-.35-31.51-.53-47.27,6.33-23.35,12.66-46.71,18.99-70.06"/>
    <path class="st4" d="M346.64,785c-13.5-3.69-27.01-7.37-40.51-11.06"/>
    <path class="st4" d="M425.8,843.95c-13.31-3.67-26.62-7.34-39.93-11.01h-42.88"/>
    <path class="st4" d="M385.88,832.94c7.62-28.71,15.24-57.42,22.86-86.14"/>
    <path class="st17" d="M431.68,459.35l-38.35-10.24c2.54-9.59,5.09-19.17,7.63-28.76,12.78,3.54,25.57,7.09,38.35,10.63-2.54,9.46-5.09,18.91-7.63,28.37Z"/>
    <path class="st4" d="M426.04,478.54c1.61-7.49,3.23-14.98,4.84-22.47"/>
    <path class="st4" d="M401.88,422.42l22.12-81c15.52,4.19,31.03,8.38,46.55,12.57-7.38,28.11-14.76,56.22-22.14,84.33-4.52-1.17-9.03-2.35-13.55-3.52"/>
    <path class="st4" d="M448.41,438.32c17.88,4.86,35.75,9.73,53.62,14.59,17.29-63.38,34.57-126.76,51.87-190.14-9.99-2.62-19.98-5.25-29.97-7.87-7.93-2.04-15.86-4.07-23.79-6.1-9.86,35.06-19.73,70.13-29.59,105.19"/>
    <path class="st4" d="M466.26,371.36c17.9,4.99,35.8,9.98,53.71,14.97"/>
  </g>
  <polygon class="st0" points="392.64 895.86 343.15 895.89 343.15 857.76 392.64 857.76 392.64 895.86"/>
  <g>
    <g>
      <path class="st11" d="M254.84,972.24c-.21-.91-.4-2.34,0-3.95.41-1.66,1.26-2.79,2.48-4.21,1.43-1.66,3.43-3.82,6.1-6.2,4.29,2.74,8.58,5.47,12.87,8.21,5.62-.03,11.25-.07,16.88-.1.55-22.28,1.11-44.57,1.66-66.85,3.06.45,7.76,1.13,13.5,1.89,22.4,2.98,33.82,4.47,44.02,3.98,6.55-.31,13.52-1.73,27.46-4.57,14.49-2.95,26.32-5.98,34.43-8.22,4.84-14.98,9.67-29.96,14.51-44.93,2.97,1.51,5.61,2.36,7.57,2.87,1.78.46,3.3.71,4.32.84,2.02.27,3.81.34,5.27.33,3.6-12.71,7.21-25.41,10.81-38.12,19.58,5.48,39.15,10.96,58.73,16.43-6.95,25.8-13.9,51.61-20.85,77.41-21.49-5.73-42.99-11.47-64.48-17.2,3.51-12.95,7.02-25.91,10.53-38.86"/>
      <path class="st11" d="M553.67,686.35c-26.71-7.03-53.41-14.07-80.12-21.1-3.78,13.63-7.57,27.26-11.35,40.89-3.39-.91-6.78-1.83-10.17-2.74"/>
      <path class="st11" d="M509.95,674.09c5.5-20.35,11-40.7,16.5-61.04-26.47-7.23-52.93-14.46-79.4-21.68-2.45,9.04-4.89,18.09-7.34,27.13-11.52-3.11-23.04-6.22-34.57-9.33-.76,3.09-1.52,6.17-2.28,9.26"/>
      <path class="st11" d="M413.65,704.97c3.03-10.47,6.07-20.93,9.1-31.4,8.72,2.32,17.43,4.64,26.15,6.96,7.29-27.56,14.58-55.12,21.88-82.69"/>
      <path class="st11" d="M422.88,673.29c2.32-8.48,4.64-16.97,6.96-25.45l-9.47-2.64c-1.4,4.68-2.8,9.36-4.21,14.04,3.06.84,6.12,1.68,9.18,2.52"/>
      <path class="st11" d="M466.67,596.36c30.93-113,61.87-226,92.8-339"/>
      <path class="st11" d="M312.76,701.92v-16.11c3.02,1.15,6.04,2.3,9.07,3.46"/>
      <path class="st11" d="M499.61,449.64c5.61-20.34,11.22-40.68,16.83-61.03l-47.09-12.98c-5.51,20.16-11.02,40.33-16.53,60.49,15.6,4.51,31.2,9.01,46.79,13.52h0Z"/>
      <path class="st11" d="M464.06,503.79l2.28-8.35c-25.08-6.87-50.15-13.74-75.23-20.61-.8,2.98-1.61,5.96-2.41,8.93"/>
      <path class="st11" d="M494.72,492.39c-35.65-9.59-71.3-19.17-106.96-28.76,11.48-42.58,22.96-85.15,34.43-127.73,14.69,4.09,29.38,8.17,44.06,12.26,11.25-41.14,22.49-82.28,33.74-123.43,21.53,5.84,43.05,11.68,64.58,17.53"/>
      <path class="st9" d="M500.39,905.85c-.66,2.13-1.33,4.26-1.99,6.39l-68.25-18.55c-25.79,6.13-51.59,12.26-77.38,18.39-10.08,4.07-20.16,8.14-30.24,12.21-10.48,17.24-20.96,34.48-31.43,51.72h-66.39"/>
    </g>
    <rect class="st11" x="343.05" y="857.57" width="49.73" height="38.54"/>
  </g>
  <line class="st2" x1="236.82" y1="573.92" x2="236.82" y2="202.57"/>
  <g>
    <g>
      <path class="st20" d="M226.77,910.67c-.9-.07-1.35-.78-1.4-.85v-22.01c.05-.06.57-.65,1.4-.59.76.06,1.17.63,1.22.71.02,2.1.05,4.2.08,6.29.32-.29,1.71-1.5,3.85-1.53,2.13-.03,3.54,1.13,3.88,1.42v-6.21c.11-.09.65-.49,1.42-.41.71.07,1.14.5,1.25.61v22.36c-.21.13-.71.41-1.42.41-.72,0-1.24-.29-1.44-.41v-6.26c-.63.33-2.01.93-3.84.88-1.63-.05-2.85-.6-3.47-.93v5.9c-.05.07-.62.7-1.52.63h0Z"/>
      <path class="st20" d="M226.71,814.24c-.9-.07-1.35-.78-1.4-.85v-22.01c.05-.06.57-.65,1.4-.59.76.06,1.17.63,1.22.71.02,2.1.05,4.2.08,6.29.32-.29,1.71-1.5,3.85-1.53,2.13-.03,3.54,1.13,3.88,1.42v-6.21c.11-.09.65-.49,1.42-.41.71.07,1.14.5,1.25.61v22.36c-.21.13-.71.41-1.42.41-.72,0-1.24-.29-1.44-.41v-6.26c-.63.33-2.01.93-3.84.88-1.63-.05-2.85-.6-3.47-.93v5.9c-.05.07-.62.7-1.52.63h0Z"/>
      <path class="st20" d="M226.27,717.59c-.9-.07-1.35-.78-1.4-.85v-22.01c.05-.06.57-.65,1.4-.59.76.06,1.17.63,1.22.71.02,2.1.05,4.2.08,6.29.32-.29,1.71-1.5,3.85-1.53,2.13-.03,3.54,1.13,3.88,1.42v-6.21c.11-.09.65-.49,1.42-.41.71.07,1.14.5,1.25.61v22.36c-.21.13-.71.41-1.42.41-.72,0-1.24-.29-1.44-.41v-6.26c-.63.33-2.01.93-3.84.88-1.63-.05-2.85-.6-3.47-.93v5.9c-.05.07-.62.7-1.52.63h0Z"/>
      <path class="st20" d="M521.5,577.1c-.85-.3-1.1-1.1-1.12-1.19l5.7-21.26c.06-.04.72-.48,1.5-.21.72.26.97.91,1,1-.52,2.03-1.03,4.07-1.55,6.1.39-.2,2.03-1.01,4.11-.48,2.07.53,3.13,2.01,3.38,2.37.53-2,1.07-3.99,1.6-5.99.13-.05.76-.3,1.48-.03.66.25.97.78,1.05.91-1.93,7.2-3.86,14.4-5.79,21.6-.23.07-.79.21-1.47.03-.7-.18-1.12-.6-1.28-.78l1.62-6.05c-.7.15-2.18.38-3.94-.14-1.56-.47-2.6-1.32-3.11-1.8-.51,1.9-1.02,3.8-1.53,5.7-.07.05-.78.52-1.63.22h0Z"/>
      <path class="st20" d="M544.3,492.5c-.85-.3-1.1-1.11-1.12-1.19l5.7-21.26c.06-.05.72-.48,1.5-.2.72.26.97.91,1,1-.52,2.03-1.03,4.07-1.55,6.1.39-.2,2.03-1.01,4.11-.48,2.07.52,3.13,2.01,3.38,2.37.53-2,1.07-3.99,1.6-5.99.13-.05.76-.3,1.48-.04.66.25.97.77,1.05.91-1.93,7.2-3.86,14.4-5.79,21.6-.23.07-.79.21-1.47.03-.7-.18-1.12-.6-1.28-.77l1.62-6.05c-.7.15-2.18.38-3.94-.14-1.56-.47-2.6-1.32-3.11-1.8-.51,1.9-1.02,3.8-1.53,5.7-.07.05-.78.52-1.63.22h0Z"/>
      <path class="st20" d="M567.55,405.6c-.85-.3-1.1-1.11-1.12-1.19l5.7-21.26c.06-.05.72-.48,1.5-.2.72.26.97.91,1,1-.52,2.03-1.03,4.07-1.55,6.1.39-.2,2.03-1.01,4.11-.48,2.07.52,3.13,2.01,3.38,2.37.53-2,1.07-3.99,1.6-5.99.13-.05.76-.3,1.48-.04.66.25.97.77,1.05.91-1.93,7.2-3.86,14.4-5.79,21.6-.23.07-.79.21-1.47.03-.7-.18-1.12-.6-1.28-.77l1.62-6.05c-.7.15-2.18.38-3.94-.14-1.56-.47-2.6-1.32-3.11-1.8-.51,1.9-1.02,3.8-1.53,5.7-.07.05-.78.52-1.63.22h0Z"/>
      <path class="st20" d="M589.22,324.96c-.85-.3-1.1-1.11-1.12-1.19l5.7-21.26c.06-.05.72-.48,1.5-.2.72.26.97.91,1,1-.52,2.03-1.03,4.07-1.55,6.1.39-.2,2.03-1.01,4.11-.48,2.07.52,3.13,2.01,3.38,2.37.53-2,1.07-3.99,1.6-5.99.13-.05.76-.3,1.48-.04.66.25.97.77,1.05.91-1.93,7.2-3.86,14.4-5.79,21.6-.23.07-.79.21-1.47.03-.7-.18-1.12-.6-1.28-.77l1.62-6.05c-.7.15-2.18.38-3.94-.14-1.56-.47-2.6-1.32-3.11-1.8-.51,1.9-1.02,3.8-1.53,5.7-.07.05-.78.52-1.63.22h0Z"/>
      <path class="st20" d="M225.27,54.04c.01.58-.29.99-.43,1.17-.2.26-.39.41-.43.43h-22.01c-.06-.06-.65-.65-.59-1.6.06-.87.63-1.34.71-1.4,2.53.03,5.06.06,7.59.09-.5-.34-1.7-1.26-2.27-2.91-.49-1.42-.28-2.64-.15-3.33.25-1.33.82-2.29,1.19-2.84-2.15-.03-4.31-.06-6.46-.08-.11-.19-.4-.74-.34-1.5.07-.77.47-1.27.61-1.43h22.36c.13.23.45.82.41,1.62-.03.71-.32,1.22-.46,1.44h-6.36c.37.41,1,1.22,1.31,2.4.52,1.99-.24,3.63-.51,4.19-.62,1.28-1.5,2.07-2.07,2.49,2.46.03,4.91.05,7.36.07.1.1.52.53.54,1.19h0Z"/>
      <path class="st20" d="M54.88,54.22c.01.58-.29.99-.43,1.17-.19.26-.39.41-.43.43h-22.01c-.06-.06-.65-.65-.59-1.6.06-.87.63-1.34.71-1.4,2.53.03,5.06.06,7.59.09-.5-.34-1.7-1.26-2.28-2.91-.49-1.42-.28-2.64-.15-3.33.25-1.33.82-2.29,1.19-2.84-2.15-.03-4.31-.06-6.46-.08-.11-.19-.41-.74-.34-1.5.07-.77.47-1.27.61-1.43h22.36c.13.23.44.82.41,1.62-.03.71-.32,1.22-.46,1.44h-6.36c.37.41,1,1.22,1.31,2.4.52,1.99-.24,3.63-.51,4.19-.62,1.28-1.5,2.07-2.07,2.49,2.46.03,4.91.05,7.36.07.1.1.52.53.54,1.19h0Z"/>
      <path class="st20" d="M372.6,305.99c-1.08-.08-1.62-.83-1.68-.9v-23.26c.06-.06.68-.69,1.68-.62.92.07,1.41.67,1.47.75.03,2.22.06,4.43.09,6.65.39-.31,2.05-1.59,4.63-1.62,2.57-.03,4.27,1.2,4.67,1.5v-6.56c.14-.09.79-.52,1.71-.44.85.07,1.37.52,1.5.65v23.64c-.24.14-.86.43-1.71.43s-1.49-.3-1.74-.44v-6.62c-.76.35-2.42.99-4.62.93-1.96-.05-3.43-.63-4.18-.98v6.23c-.07.07-.74.74-1.83.67h0Z"/>
      <path class="st20" d="M372.73,149.37c-1.08-.07-1.62-.79-1.68-.87v-22.27c.06-.06.68-.66,1.68-.6.92.06,1.41.64,1.47.72.03,2.12.06,4.25.09,6.37.39-.3,2.05-1.52,4.63-1.55,2.57-.03,4.27,1.15,4.67,1.43v-6.28c.14-.09.79-.5,1.71-.42.85.07,1.37.5,1.5.62v22.63c-.24.13-.86.41-1.71.41-.87,0-1.49-.29-1.74-.42v-6.34c-.76.33-2.42.95-4.62.89-1.96-.05-3.43-.6-4.18-.94v5.97c-.07.07-.74.71-1.83.64h0Z"/>
      <polygon class="st20" points="231.56 526.03 231.56 523.49 225.54 523.49 225.54 513.07 231.56 513.07 231.56 510.77 207.89 510.77 207.89 513.22 216.84 513.22 216.84 523.54 207.89 523.54 207.89 526.03 231.56 526.03"/>
      <polygon class="st20" points="265.76 526.03 265.76 523.49 259.74 523.49 259.74 513.07 265.76 513.07 265.76 510.77 242.09 510.77 242.09 513.22 251.04 513.22 251.04 523.54 242.09 523.54 242.09 526.03 265.76 526.03"/>
      <polygon class="st20" points="231.14 409.13 231.14 406.59 225.12 406.59 225.12 396.17 231.14 396.17 231.14 393.87 207.46 393.87 207.46 396.31 216.41 396.31 216.41 406.64 207.46 406.64 207.46 409.13 231.14 409.13"/>
      <polygon class="st20" points="266.02 409.13 266.02 406.59 260 406.59 260 396.17 266.02 396.17 266.02 393.87 242.35 393.87 242.35 396.31 251.3 396.31 251.3 406.64 242.35 406.64 242.35 409.13 266.02 409.13"/>
      <polygon class="st20" points="231.15 293.53 231.15 290.99 225.14 290.99 225.14 280.57 231.15 280.57 231.15 278.27 207.48 278.27 207.48 280.72 216.43 280.72 216.43 291.04 207.48 291.04 207.48 293.53 231.15 293.53"/>
      <polygon class="st20" points="266.17 293.53 266.17 290.99 260.15 290.99 260.15 280.57 266.17 280.57 266.17 278.27 242.49 278.27 242.49 280.72 251.44 280.72 251.44 291.04 242.49 291.04 242.49 293.53 266.17 293.53"/>
      <polyline class="st20" points="321.41 379.6 321.41 377.78 295.07 377.78 295.07 370.77 321.41 370.77 321.41 368.74 270.81 368.74 270.81 371.42 287.25 371.42 287.25 377.78 271.23 377.78 271.23 379.6"/>
      <polyline class="st20" points="321.65 282.23 321.65 280.4 295.3 280.4 295.3 273.39 321.65 273.39 321.65 271.37 271.04 271.37 271.04 274.04 287.48 274.04 287.48 280.4 271.46 280.4 271.46 282.23"/>
      <polyline class="st20" points="320.77 168.76 320.77 166.93 294.42 166.93 294.42 159.92 320.77 159.92 320.77 157.9 270.16 157.9 270.16 160.57 286.6 160.57 286.6 166.93 270.58 166.93 270.58 168.76"/>
      <rect class="st12" x="168.37" y="173.48" width="30.46" height="22.89"/>
      <path class="st12" d="M168.37,173.48l30.2,22.68"/>
      <path class="st12" d="M168.37,196.37l30.46-22.89"/>
      <rect class="st12" x="168.3" y="293.53" width="30.46" height="22.89"/>
      <path class="st12" d="M168.3,293.53l30.2,22.68"/>
      <path class="st12" d="M168.3,316.42l30.46-22.89"/>
      <rect class="st12" x="168.18" y="413.76" width="30.46" height="22.89"/>
      <path class="st12" d="M168.18,413.76l30.2,22.68"/>
      <path class="st12" d="M168.18,436.65l30.46-22.89"/>
      <rect class="st12" x="168.4" y="533.89" width="30.46" height="22.89"/>
      <path class="st12" d="M168.4,533.89l30.2,22.68"/>
      <path class="st12" d="M168.4,556.78c10.15-7.63,20.3-15.26,30.46-22.89"/>
    </g>
    <polygon class="st20" points="526.8 529.52 527.41 527.05 521.58 525.59 524.1 515.48 529.93 516.94 530.49 514.71 507.52 508.98 506.93 511.35 515.61 513.52 513.12 523.53 504.43 521.37 503.83 523.79 526.8 529.52"/>
    <polygon class="st20" points="555.37 423.83 555.98 421.36 550.15 419.91 552.67 409.8 558.5 411.26 559.06 409.02 536.09 403.3 535.5 405.67 544.18 407.84 541.69 417.85 533 415.68 532.4 418.1 555.37 423.83"/>
    <polygon class="st20" points="584.78 314.83 585.43 312.37 579.62 310.81 582.32 300.75 588.13 302.31 588.73 300.09 565.86 293.96 565.23 296.32 573.87 298.64 571.2 308.61 562.55 306.29 561.91 308.7 584.78 314.83"/>
  </g>
  <g>
    <rect class="st16" x="235.93" y="950.63" width="15.92" height="10.57"/>
    <rect class="st16" x="274.68" y="967.73" width="10.24" height="4.94"/>
    <rect class="st16" x="257.56" y="856.76" width="31.45" height="59.93"/>
    <rect class="st16" x="351.46" y="842.83" width="25.63" height="15.1"/>
    <rect class="st16" x="359.78" y="838.44" width="17.32" height="4.39"/>
    <polygon class="st16" points="322.02 918.4 350.03 907.31 350.03 889.85 331.93 889.85 331.93 871.56 315.64 871.56 315.64 889.8 311.92 889.8 311.92 898.9 308.89 898.9 308.89 912.2 313.98 916.8 319.41 916.07 322.02 918.4"/>
    <rect class="st16" x="343.48" y="881.98" width="4.3" height="7.24"/>
    <rect class="st16" x="343.35" y="859.62" width="3.13" height="6"/>
    <rect class="st16" x="348.93" y="861.15" width="8.97" height="4.47"/>
    <rect class="st16" x="361.01" y="859.78" width="8.7" height="7.78"/>
    <rect class="st16" x="374.5" y="864.67" width="9.68" height="1.92"/>
    <rect class="st16" x="374.5" y="862.32" width="9.68" height="1.79"/>
    <rect class="st16" x="374.5" y="859.78" width="9.68" height="1.96"/>
    <rect class="st16" x="387.71" y="859.25" width="2.41" height="9.59"/>
    <polygon class="st16" points="401.82 877.81 419.37 882.83 429.41 847.84 411.57 842.67 401.82 877.81"/>
    <polygon class="st16" points="432.36 886.44 447.07 890.69 455.01 861.75 440.63 857.55 432.36 886.44"/>
    <polygon class="st16" points="452.87 892.18 467.09 896.55 475.3 867.33 461.02 863.02 452.87 892.18"/>
    <polygon class="st16" points="478.88 899.29 492.08 903.1 498.88 880.4 485.58 876.49 478.88 899.29"/>
    <polygon class="st16" points="420.78 658.96 423.2 650.74 426.95 652.01 424.57 660.3 420.78 658.96"/>
    <polygon class="st16" points="424.26 670.75 429.29 652.65 439.91 655.78 435.16 674.09 424.26 670.75"/>
    <polygon class="st16" points="461.48 730.8 463.24 725.19 460.26 724.27 458.59 729.85 461.48 730.8"/>
    <polygon class="st16" points="465.07 688.57 460.92 687.46 463.57 679.64 467.29 681.01 465.07 688.57"/>
    <polygon class="st16" points="451.12 729.66 457.05 710.03 454.08 708.99 455.55 702.72 444.92 699.66 441.66 711.01 407.88 701.62 403.57 717.35 451.12 729.66"/>
    <polygon class="st16" points="412.57 722.09 415.9 711.27 408.01 709.12 404.81 720.01 412.57 722.09"/>
    <polygon class="st16" points="421.04 733.7 424.18 722.69 449.89 729.34 448.7 734.29 435.99 730.8 433.9 737.49 421.04 733.7"/>
    <polygon class="st16" points="443.62 720.72 445.9 713.49 455.81 716.55 453.86 723.72 443.62 720.72"/>
    <polygon class="st16" points="480.24 651.76 485.39 634.15 469.15 629.58 467.91 633.63 460.96 632.07 456.74 645.2 480.24 651.76"/>
    <polygon class="st16" points="498.48 633.56 501.9 621.63 466.44 611.53 462.77 624.02 498.48 633.56"/>
    <polygon class="st16" points="496.32 468.53 477.54 462.95 480.47 453.66 499.16 459.09 496.32 468.53"/>
    <polygon class="st16" points="459.9 479.89 461.17 476.57 467.48 478.67 471.1 467.91 467.43 466.54 470.27 458.27 460.43 454.65 459.41 456.61 446.59 452.55 444.83 457.2 442.88 457.88 440.38 466.98 443.56 468.53 441.75 474.46 459.9 479.89"/>
    <polygon class="st16" points="426.04 453.56 403.35 447.5 408.77 426.86 431.92 433.67 426.04 453.56"/>
    <polygon class="st16" points="381.06 443.09 371.59 440.52 379.22 410.57 388.81 413.4 381.06 443.09"/>
    <polygon class="st16" points="389.89 410.86 380.2 408.37 388.22 378.72 397.91 381.37 389.89 410.86"/>
    <polygon class="st16" points="398.59 379.1 389.05 376.41 397.03 346.18 406.29 349.31 398.59 379.1"/>
    <polygon class="st16" points="351.46 441.35 356.09 424.2 340.43 419.31 338.8 423.54 331.7 421.78 327.85 435.61 351.46 441.35"/>
    <polygon class="st16" points="361.08 396.02 334.79 396.02 334.79 314.89 361.08 314.89 361.08 320.99 368.84 320.99 368.84 365.44 361.14 365.44 361.08 396.02"/>
    <polygon class="st1" points="447.2 423.83 464.71 359.4 426.07 348.94 408.65 412.64 447.2 423.83"/>
    <polygon class="st1" points="474.1 369.38 515.28 380.73 546.72 264.81 505.24 254.04 474.1 369.38"/>
    <line class="st15" x1="525.52" y1="341.65" x2="484.63" y2="330.37"/>
    <line class="st15" x1="535.98" y1="304.39" x2="494.63" y2="293.35"/>
    <rect class="st1" x="177.18" y="77.84" width="40.89" height="34.89"/>
    <path class="st16" d="M218.27,173.91h43.47v-97.24h-43.47s0,97.73,0,97.24Z"/>
    <rect class="st16" x="187.94" y="84.12" width="23.82" height="20.84"/>
    <rect class="st16" x="348.83" y="85.82" width="17.56" height="11.4"/>
    <rect class="st1" x="334.73" y="51.54" width="44.35" height="28.63"/>
    <polyline class="st1" points="340.66 273.48 340.66 258.02 365.84 258.02 365.84 273.48 340.66 273.48"/>
    <rect class="st16" x="329.41" y="279.99" width="39.13" height="14.28"/>
    <rect class="st16" x="329.41" y="297.99" width="39.13" height="14.82"/>
    <rect class="st1" x="311.93" y="824.3" width="18.98" height="28.3"/>
    <rect class="st1" x="311.93" y="788.62" width="23.74" height="35.28"/>
    <polygon class="st1" points="341.21 778.19 315.45 771.28 326.39 730.78 352.1 737.95 341.21 778.19"/>
    <rect class="st1" x="251.01" y="652.71" width="23.57" height="13.6"/>
    <polygon class="st1" points="361.01 785.85 371.89 745.22 364.33 742.87 353.24 783.57 361.01 785.85"/>
    <polygon class="st1" points="351.61 820.81 371.89 745.22 395.76 752.1 375.29 827.17 351.61 820.81"/>
    <polygon class="st1" points="404.5 817.19 396.74 814.84 408.09 774.21 415.59 776.62 404.5 817.19"/>
    <polygon class="st1" points="421.04 757.91 444.35 764.36 423.81 839.85 400.43 832.94 421.04 757.91"/>
    <polygon class="st1" points="508.33 845.26 479.5 837.63 481.26 832.22 471.81 829.61 474.42 819.9 512.89 830.66 508.33 845.26"/>
    <polygon class="st1" points="509.37 807.57 476.5 798.47 505.36 696.54 537.94 705.63 509.37 807.57"/>
    <polygon class="st16" points="483.38 774.17 498.29 721.5 502.18 722.77 507.22 706.14 532.72 713.13 509.01 798.08 483.77 790.84 487.95 775.71 483.38 774.17"/>
    <polygon class="st1" points="317.63 701.92 343.51 709.16 359.78 649.21 333.86 642.18 317.63 701.92"/>
    <polygon class="st1" points="356.13 712.29 381.94 719.66 398.63 659.25 372.9 652.65 356.13 712.29"/>
    <polygon class="st1" points="483.67 680.24 485.39 675.22 493.45 677.73 496.45 667.26 454.32 656.04 450.34 670.46 483.67 680.24"/>
    <polygon class="st1" points="499.58 654.15 512.04 657.81 518.43 634.59 505.97 631.07 499.58 654.15"/>
    <polygon class="st1" points="219.93 656.73 207.75 656.73 207.75 650.08 199.78 650.08 199.78 600.64 260.43 600.64 260.43 581.76 281.76 581.76 281.76 593.4 297.8 593.4 297.8 581.76 319.45 581.76 319.45 589.78 331.32 593.7 322.91 622.36 310.97 619.82 298.58 619.82 298.58 622.46 273.34 622.46 273.34 628.75 220.11 628.75 219.93 656.73"/>
    <polygon class="st1" points="397.79 640.74 322.91 622.36 331.32 593.7 353.09 599.93 359.78 577.74 398.63 588.4 392.02 613.05 404.79 616.52 397.79 640.74"/>
    <polygon class="st1" points="333.85 505.51 345.19 463.26 329.98 458.91 320.64 492.61 325.21 494.32 323.28 502.59 333.85 505.51"/>
    <polygon class="st1" points="447.75 593.49 454.6 568.05 371.45 545.35 364.3 571.28 447.75 593.49"/>
    <polygon class="st1" points="456.03 561.89 463.34 536.65 379.86 513.95 373.01 539.39 456.03 561.89"/>
    <polygon class="st1" points="381.75 507.91 388.71 482.22 471.62 504.71 465.36 530.76 381.75 507.91"/>
    <line class="st15" x1="381.75" y1="508.26" x2="380.12" y2="513.95"/>
    <polygon class="st1" points="543.49 254.04 546.72 242.44 502.47 230.31 499.4 242.18 543.49 254.04"/>
    <path class="st16" d="M466.04,431.14c5.33,2.05,11.21-.95,13.04-5.87,2.18-5.85-2.02-12.63-7.99-13.57-4.51-.71-9.3,2.04-10.92,6.59-1.78,4.98.7,10.86,5.87,12.85h0Z"/>
    <path class="st16" d="M490.26,438.32c4.86,1.38,10.35-1.21,12.23-5.94,2.23-5.61-1.43-12.27-7.19-13.7-4.66-1.16-9.89,1.31-11.79,5.82-2.3,5.46,1.01,12.18,6.75,13.81Z"/>
    <path class="st16" d="M497.27,412.13c4.54,1.16,9.54-1.23,11.61-5.41,2.28-4.61-.1-9.1-.23-9.33-.27-.49-2.2-3.85-6.36-4.89-3.41-.86-7.33.1-9.91,2.93-2.89,3.17-3.18,7.67-1.63,11.09.23.52,2.11,4.48,6.52,5.61h0Z"/>
    <path class="st16" d="M486.38,398.7c-1.84,5.7-8.89,8.58-14.28,5.87-4.58-2.31-7-8.18-4.7-13.21,2.3-5.02,8.36-7.08,13.26-4.98,4.77,2.05,7.26,7.56,5.72,12.31Z"/>
    <path class="st16" d="M495.68,370.15c7.71,1.8,16.14-2.61,18.72-10.3,2.86-8.55-2.54-18.13-11.22-20.41-7.9-2.08-16.56,2.39-19.17,10.17-2.93,8.75,2.83,18.48,11.67,20.54h0Z"/>
    <path class="st16" d="M505.08,331.93c7.74,2.25,17.03-2.01,19.53-10.43,2.53-8.52-3.1-17.17-11-19.5-7.08-2.09-15.2,1.14-18.48,7.63-4.2,8.31.72,19.62,9.95,22.3Z"/>
    <path class="st16" d="M515.3,295.05c5.79,1.35,13.81-.32,17.75-6.96,2.99-5.05,2.82-11.58-.52-16.52-3.89-5.74-10.91-7.66-16.73-6.34-.85.19-8.12,1.98-11.11,9.21-.13.32-3.17,8.02,1.57,14.67,2.96,4.17,7.26,5.52,9.05,5.93h0Z"/>
  </g>
  <g>
    <path class="st10" d="M325.78,872.13c-1.33-5.64-.41-7.91.78-8.91,2.06-1.72,4.86.42,8.67-1.48,2.6-1.29,3.92-3.59,5.02-5.52,2.17-3.77,2.54-7.32,2.74-9.39,1.14-11.85.91-18.46.91-18.46,0,0-.35-10.44,0-21.68.11-3.39.67-17.48,5.01-35.12,1.95-7.93,4.23-14.8,6.39-20.48,3.01-8.13,5.23-14.1,6-16.43.15-.46.53-1.65,1.57-2.15.74-.36,1.46-.2,2.67,0,2.47.4,2.74.21,4.11.46,5.4.97,12.06,5.78,19.08,5.27,2.18-.16,4.31-1.13,8.56-3.09,7.27-3.34,7.39-5.35,11.43-5.87,5.04-.65,7.85,2.1,10.7,0,1.88-1.38,1.24-3,2.96-3.72,2.97-1.25,6.3,3,9.56,1.57.81-.35,1.35-.94,1.66-1.37"/>
    <path class="st10" d="M434.49,708.24c.33-2.55.55-7.56-2.41-12.03-1.07-1.61-2.15-2.56-4.04-4.21-3.88-3.39-7.51-5.27-11.35-7.24-4.41-2.26-6.01-2.64-9.98-5.12-1.67-1.04-2.99-1.97-3.86-2.61,1.8-5.31,3.27-10.05,4.44-14.09.93-3.22,1.52-5.42.59-7.83-1.16-2.99-3.99-4.52-5.48-5.18-2.39.07-5.96.06-10.27-.39-9.69-1.02-14.86-3.43-25.37-6.72-.96-.3-8.94-2.35-24.91-6.46-7.62-1.96-15.08-4.73-22.86-5.84-3.41-.48-9.5-1.17-13.09-5.8-1.11-1.43-1.69-2.87-2.01-3.86"/>
    <path class="st10" d="M304.82,580.15c-.02-1.21.16-3.11,1.46-4.17,1.47-1.2,3.59-.66,6.78,0,3.27.68,6.58,1.11,9.85,1.76,5.26,1.05,4.29.21,13.83,1.37,5.99.73,10.14,1.53,12.62-.46,1.3-1.04,2.25-2.48,2.25-2.48,1.08-1.63,1.44-3.15,1.57-3.65,8.76-36.19,13.24-48.97,13.24-48.97,5.86-16.73,9.82-16.48,10.17-26.39.2-5.58-.84-11.68,2.86-18.62,1.23-2.3,3.4-6.23,7.64-7.57,2.3-.72,5.23,0,11.09,1.43,4.33,1.07,5.61,1.84,6,3,.57,1.67-1.13,2.89-.65,4.48.77,2.55,6.23,3,7.17,3.08,15.65,1.35,15.98,7.64,51.95,13.83,4.24.73,9.77,1.59,12.52,5.87,2.24,3.48,1.8,7.89,1.47,11.28-.52,5.2-2.28,9.16-3.52,11.47"/>
    <path class="st10" d="M425.01,486.41c.18-.51.45-1.27.78-2.2,2.06-5.67,5.34-14.73,10.43-23.12,4.44-7.33,6.67-11,10.2-12.88,4.36-2.32,12.48-4.21,19.93-1.53,2.85,1.03,4.58,2.36,6.9,1.66,3.59-1.07,5.1-5.9,5.87-8.49,5.03-16.88,7.93-34.65,11.15-44.27,1.71-5.12,2.57-7.69,3.96-10.02.93-1.56,2.31-3.56,3.47-6.84,1.51-4.26.81-5.5.49-5.93-.81-1.08-2.12-.96-3.96-1.42-3.54-.9-5.79-3.19-7.41-4.83-.8-.81-5.26-5.35-5.26-12.33,0-5.23,2.51-8.84,3.91-10.86,1.88-2.71,4.15-5.97,7.63-6.36,2.49-.28,4.05,1.09,5.53,0,1.24-.92,1.58-2.94,1.2-4.46-.56-2.2-2.47-2.56-4.38-4.64-2.26-2.46-2.71-5.36-3.19-8.41-.38-2.4-1.1-6.97,1.35-11.84.73-1.46,3.5-6.96,8.3-7.83,2.08-.38,3.58.29,5.77-.94.28-.16,2.87-1.65,2.72-3.39-.12-1.41-1.93-1.8-3.7-3.3-2.8-2.37-3.48-5.8-4.01-8.51-.33-1.66-1.38-6.98,1.47-12.13,2.73-4.93,7.62-7.18,8.91-7.73,3.81-1.61,6.38-1.12,8.17-3.55,1.56-2.11.44-3.57,1.81-4.96,1.43-1.46,4.07-1.28,13.58,1.04,8.54,2.08,10.9,3.03,12.52,1.6,1.59-1.4,2.02-4.66.52-6.85-1.27-1.86-3.45-2.23-3.96-2.3"/>
    <path class="st10" d="M523.58,254.75c-6.03-2.37-12.07-4.73-18.11-7.1-4.35,9.05-7.31,16.6-9.13,21.52-10.27,27.81-16.49,44.67-18.1,66.83-.58,7.98-.52,16.15-5.48,18.73-1.95,1.02-3.99.8-18.39-3.88-12.82-4.17-17.65-6.11-21.98-3.62-1.58.91-2.7,2.31-4.96,5.12-4.63,5.77-4.32,8.7-7.57,10.29-2.88,1.4-7.08,1.03-9.13-1.15-2.04-2.17-.36-4.49-1.57-10.63-.6-3.08-1.62-8.29-5.3-10.24-1.95-1.03-2.65-.1-7.35-.39-2.52-.16-7.52-.52-12.26-3.26-1.68-.97-5.09-2.95-6.91-6.6-2.46-4.93-.73-10.33,0-12.98.79-2.88-.09-.79,0-30.9.1-33.62,1.17-28.39.52-38.84-.9-14.58-2.66-19.54-3.13-37.73-.21-8.07-.05-14.24,0-15.91.45-15.52,1.88-19.96,3.13-36,1.1-14.13,1.08-24.73,1.05-32.37-.1-24.26-2.1-15.87-1.57-27.89.23-5.33.74-9.66-2.09-12.65-3.18-3.36-8.4-2.71-14.71-2.38-9.63.5-21.92,1.15-31.7-1.57-13.08-3.64-12.74-10.82-26.02-14.28-9.42-2.46-16.45-.63-23.38.39-19.97,2.95-31.07-1.89-54-5.44-33.82-5.24-29.52,2.21-76.99-1.76-30.67-2.57-61.55,1.33-92.32.81-.57,0-2.37-.05-3.88,1.08-2.98,2.21-2.67,7.27-2.61,8.74.69,17.06-3.32,34-4.04,51.06-.8,18.82-2.14,15.99-2.38,31.11-.24,15.01,1.1,17.24,1.79,36.39,1.1,30.48-2.19,27.23,0,43.14,1.96,14.24,5.37,22.51,3.78,37.99-.63,6.13-1.81,11.12-2.74,14.48"/>
    <path class="st13" d="M39.35,284.81c2.07-.81,5.06,1.1,6.31,3.47,1.5,2.87.19,5.9-.34,7.14-.4.93-1.42,3.19-3.81,4.35-.77.38-2.42,1.17-3.47.49-1.1-.71-.4-2.27-.63-6.85-.19-3.73-.8-5.39.39-7.19.28-.43.74-1.1,1.56-1.42h0Z"/>
    <path class="st13" d="M468.6,525.42c1.3-.85,3.33-1.03,4.51,0,1.77,1.54,1.17,5.4-1.12,6.87-1.27.82-3.26,1.02-4.43.02-1.78-1.52-1.24-5.4,1.04-6.89h0Z"/>
    <circle class="st18" cx="310.04" cy="850.34" r="1.16"/>
    <circle class="st18" cx="300.63" cy="727.68" r="1.16"/>
    <circle class="st18" cx="376.22" cy="720.28" r="1.16"/>
    <circle class="st18" cx="330.69" cy="648.7" r="1.16"/>
    <circle class="st18" cx="345.29" cy="595.68" r="1.16"/>
    <circle class="st18" cx="380.12" cy="508.98" r="1.15"/>
    <circle class="st18" cx="464.91" cy="533.54" r="1.16"/>
    <circle class="st18" cx="461.32" cy="479.45" r="1.15"/>
    <circle class="st18" cx="519.56" cy="358.57" r="1.16"/>
    <circle class="st18" cx="544.57" cy="253.52" r="1.16"/>
  </g>
</svg>