<?xml version="1.0" encoding="UTF-8"?>
<svg id="Discord.gg-_x40_marazm" xmlns="http://www.w3.org/2000/svg" version="1.1" viewBox="0 0 715.16 1010.9">
  <!-- Generator: Adobe Illustrator 30.1.0, SVG Export Plug-In . SVG Version: 2.1.1 Build 136)  -->
  <defs>
    <style>
      .st0 {
        fill: #666;
        stroke-width: 2px;
      }

      .st0, .st1, .st2, .st3, .st4, .st5, .st6 {
        stroke-miterlimit: 10;
      }

      .st0, .st7, .st3, .st8, .st9, .st6 {
        stroke: #000;
      }

      .st10, .st3 {
        fill: #111;
      }

      .st11 {
        stroke: #4a6b96;
        stroke-dasharray: 4 10 18 6;
      }

      .st11, .st12, .st13, .st2, .st14, .st15, .st4, .st5, .st8, .st16, .st6, .st17 {
        fill: none;
      }

      .st11, .st12, .st14, .st8 {
        stroke-dashoffset: 2px;
        stroke-miterlimit: 3;
      }

      .st11, .st14, .st8 {
        stroke-width: 6px;
      }

      .st12, .st14 {
        stroke: #914833;
        stroke-dasharray: 0 0 2 2;
      }

      .st12, .st5 {
        stroke-width: 8px;
      }

      .st1 {
        fill: #0b20b5;
        stroke: blue;
      }

      .st7, .st13, .st15, .st16, .st9, .st17 {
        stroke-miterlimit: 3.39;
      }

      .st7, .st2, .st9 {
        stroke-width: 3px;
      }

      .st7, .st9 {
        fill: #212121;
      }

      .st7, .st17 {
        isolation: isolate;
        opacity: .4;
      }

      .st13 {
        stroke-dasharray: 0 0 8 3;
        stroke-width: 34px;
      }

      .st13, .st15, .st16, .st17 {
        stroke: #424242;
      }

      .st18 {
        fill: #424242;
      }

      .st19 {
        fill: #8d8d8d;
      }

      .st2 {
        stroke: #987f00;
      }

      .st3, .st6 {
        stroke-width: 5px;
      }

      .st15 {
        stroke-width: 12px;
      }

      .st20 {
        fill: #333;
      }

      .st4 {
        stroke: #09b716;
      }

      .st5 {
        stroke: #333;
      }

      .st8 {
        stroke-dasharray: 0 0 6 8;
      }

      .st16, .st17 {
        stroke-width: 24px;
      }
    </style>
  </defs>
  <g>
    <polygon class="st10" points="386.1 320.38 386.1 332.39 417.19 341.73 420.42 330.67 386.1 320.38"/>
    <polygon class="st10" points="423.85 324.36 420.96 334.2 464.88 346.62 498.65 222.98 559.99 239.15 562.34 230.21 492.37 210.56 459.03 333.62 423.85 324.36"/>
  </g>
  <path class="st9" d="M229.6,973.04h55.86v-5.84h8.09l27.2-45c9.57-4.11,19.13-8.22,28.7-12.33,1.11-.33,2.22-.65,3.33-.98,24.27-5.78,48.54-11.55,72.82-17.33,1.6-.18,3.2-.36,4.79-.54,1.33.58,2.66,1.15,3.99,1.73l55.4,14.43c1.84.2,3.68.39,5.53.59,9.61-35.61,19.22-71.22,28.83-106.83l102.19,27.35c1.22-4.34,2.43-8.67,3.65-13.01-34.03-9.08-68.07-18.15-102.1-27.23,7.66-28.12,15.33-56.23,22.99-84.35,33.31,8.89,66.61,17.78,99.92,26.66,1.45-4.88,2.89-9.76,4.34-14.64-33.64-8.96-67.27-17.92-100.91-26.89l1.09-3.7c-14.84-4.22-29.68-8.44-44.53-12.66,37.59-139.08,75.18-278.16,112.78-417.24-20.36-5.3-40.73-10.6-61.09-15.9,2.25-8.25,4.51-16.49,6.76-24.74,1.52.4,3.04.81,4.56,1.21.6-2.49,1.21-4.99,1.81-7.48l-4.3-1.22c1.58-5.8,3.16-11.61,4.74-17.41,1.55.39,3.1.78,4.65,1.18.59-2.46,1.17-4.93,1.76-7.38-1.48-.37-2.97-.74-4.45-1.12,1.48-5.3,2.97-10.6,4.45-15.9,1.49.41,2.99.82,4.48,1.24l2.05-7.34c-1.61-.45-3.22-.9-4.84-1.35,1.41-4.92,2.83-9.85,4.24-14.77,1.49.42,2.98.84,4.47,1.26,1.29-4.45,2.59-8.89,3.89-13.34-3.78-1.24-7.57-2.48-11.35-3.72-1.41,4.52-2.82,9.04-4.23,13.56l4.54,1.59c-1.32,4.92-2.64,9.84-3.96,14.76-1.31-.34-2.61-.68-3.92-1.02-.72,2.35-1.43,4.7-2.15,7.04,1.41.43,2.82.87,4.22,1.3-1.49,5.35-2.97,10.7-4.46,16.04l-4.29-1.08c-.62,2.4-1.24,4.79-1.86,7.19,1.43.39,2.87.78,4.3,1.18-1.59,5.78-3.18,11.56-4.77,17.34-1.34-.41-2.69-.83-4.03-1.24h0c-.78,2.37-1.57,4.73-2.35,7.09,1.46.57,2.93,1.15,4.39,1.72-2.31,8.23-4.61,16.47-6.92,24.7-20.4-5.29-40.8-10.58-61.21-15.87-11.3,41.12-22.6,82.23-33.9,123.34-14.43-3.99-28.86-7.98-43.29-11.98l4.3-15.75c-.73-.34-1.47-.68-2.2-1.03-2.14,7.99-4.28,15.97-6.42,23.96-10.28-3.11-20.57-6.23-30.85-9.34.02-98.4.04-196.8.07-295.21l-358.99.38v21.36h8.6v269.68h22.45c-.06-80.95-.12-161.89-.18-242.84h104.06v550.79c18.65,10.71,37.29,21.42,55.94,32.13.24,84.24.49,168.49.73,252.73,4.9,8.3,9.81,16.6,14.71,24.9l-.1,22.3c-1.33,1.62-2.66,3.24-3.99,4.87h0Z"/>
  <g>
    <g>
      <path class="st19" d="M221.22,919.09c.08.36.26.94.68,1.53.59.84,1.34,1.23,1.71,1.4h13.82c.26-.03,1.32-.2,2.13-1.13.74-.85.8-1.8.82-2.08v-274.06c0-.3-.07-1.09-.65-1.82-.93-1.17-2.4-1.16-2.57-1.16h-12.2c-.29,0-1.43.03-2.45.89-1.05.89-1.24,2.05-1.29,2.33v272.64"/>
      <path class="st19" d="M512.99,604.75c-.22-.04-1.76-.37-2.58-1.87-.7-1.28-.4-2.52-.33-2.79,29.6-109.47,59.2-218.95,88.8-328.42.06-.25.35-1.39,1.47-2.12,1.27-.83,2.61-.5,2.82-.44,3.52,1.05,7.04,2.11,10.57,3.16.23.07,1.34.42,2,1.57.73,1.31.28,2.61.21,2.8-29.65,109.65-59.29,219.3-88.94,328.95-.02.18-.17,1.27-1.16,1.98-1.09.78-2.3.46-2.45.42-3.46-1.08-6.92-2.16-10.39-3.25h0Z"/>
      <path class="st19" d="M516.73,564.4c1.55-1,2.04-2.53,2.17-2.95,25.82-96.7,51.65-193.4,77.47-290.1.06-.16.66-1.74-.29-3.24-.83-1.3-2.21-1.55-2.43-1.58-5.47-1.53-10.93-3.05-16.4-4.58-.31-.08-1.56-.35-2.84.36-1.66.92-1.96,2.7-1.99,2.91-26.17,96.81-52.34,193.62-78.52,290.43-.07.16-.7,1.77.24,3.26.68,1.07,1.74,1.4,2.02,1.47,5.36,1.52,10.73,3.04,16.09,4.56.3.1,2.46.76,4.48-.55h0Z"/>
      <path class="st19" d="M317.23,443.22c-1.11,1.22-2.58,1.28-2.84,1.29-12.46.05-24.91.11-37.37.17-.32-.03-1.81-.19-2.93-1.48-1.02-1.17-1.07-2.48-1.08-2.84v-102.95c0-.25.04-1.63,1.17-2.71,1.09-1.04,2.41-1.05,2.67-1.05,12.05-.12,24.11-.24,36.16-.37.27-.02,2.38-.16,3.91,1.48,1.23,1.32,1.27,2.91,1.27,3.28v101.95c.03.23.24,1.89-.98,3.23h0Z"/>
      <path class="st19" d="M317.33,330.43c-1.11,1.22-2.58,1.28-2.84,1.29-12.46.05-24.91.11-37.37.17-.32-.03-1.81-.19-2.93-1.48-1.02-1.17-1.07-2.48-1.08-2.84v-102.95c0-.25.04-1.63,1.17-2.71,1.09-1.04,2.41-1.05,2.67-1.05,12.05-.12,24.11-.24,36.16-.37.27-.02,2.38-.16,3.91,1.49,1.23,1.32,1.27,2.91,1.27,3.28v101.95c.03.23.24,1.89-.98,3.23h0Z"/>
      <path class="st19" d="M317.33,217.16c-1.11,1.22-2.58,1.28-2.84,1.29-12.46.05-24.91.11-37.37.16-.32-.03-1.81-.19-2.93-1.49-1.02-1.16-1.07-2.48-1.08-2.84v-102.94c0-.25.04-1.63,1.17-2.71,1.09-1.04,2.41-1.05,2.67-1.05,12.05-.12,24.11-.25,36.16-.37.27-.02,2.38-.16,3.91,1.49,1.23,1.32,1.27,2.91,1.27,3.28v101.95c.03.23.24,1.88-.98,3.23h0Z"/>
      <path class="st19" d="M199.9,581.47c-1.71,1.72-3.91,1.6-4.24,1.58-8.75.02-17.5.03-26.25.04-.43,0-1.66-.07-2.77-.96-1.81-1.45-1.66-3.79-1.65-4.01V149.82c.06-.45.29-1.64,1.29-2.69,1.29-1.37,2.95-1.49,3.32-1.52h27c1.43.13,2.7.58,3.57,1.52,0,0,1.11,1.19,1.26,3.28.3,4.37.08,320.96,0,426.47.04.28.33,2.73-1.53,4.6h0Z"/>
      <path class="st19" d="M30.33,55.72c.84.75,1.8.85,2.12.86,64.41-.02,128.82-.04,193.22-.06.3.03,1.48.09,2.54-.72,1.49-1.14,1.43-2.99,1.42-3.16v-11.64c0-.28-.05-1.12-.67-1.86-1.01-1.2-2.61-1.03-2.74-1.01H32.71c-.36.01-1.27.1-2.12.77-1.36,1.06-1.4,2.72-1.4,2.95v11.02c-.01.21-.08,1.76,1.14,2.85h0Z"/>
    </g>
    <path class="st19" d="M205.46,570.98c1.04,1.12,2.29,1.42,2.71,1.5h19.38c.38,0,1.67-.02,2.77-.96,1.76-1.51,1.37-3.92,1.35-4.04,0-37.92,0-75.85,0-113.77-.01-.29-.1-1.45-1.02-2.39-1.15-1.18-2.66-1.1-2.88-1.08-6.41,0-12.83,0-19.25,0-.47.06-1.61.26-2.68,1.17-1.3,1.1-1.63,2.51-1.71,2.93v113.64c.03.42.2,1.81,1.33,3.02h0Z"/>
    <path class="st19" d="M241.84,570.98c1.04,1.12,2.29,1.42,2.71,1.5h19.38c.38,0,1.67-.02,2.77-.96,1.76-1.51,1.37-3.92,1.35-4.04,0-37.92,0-75.85,0-113.77-.01-.29-.1-1.45-1.02-2.39-1.15-1.18-2.66-1.1-2.89-1.08-6.42,0-12.83,0-19.25,0-.47.06-1.61.26-2.68,1.17-1.3,1.1-1.63,2.51-1.71,2.93v113.64c.03.42.2,1.81,1.33,3.02h0Z"/>
    <path class="st19" d="M205.46,446.65c1.04,1.12,2.29,1.42,2.71,1.5h19.38c.38,0,1.67-.02,2.77-.96,1.76-1.51,1.37-3.92,1.35-4.04,0-37.92,0-75.85,0-113.77-.01-.29-.1-1.45-1.02-2.39-1.15-1.18-2.66-1.1-2.88-1.08-6.41,0-12.83,0-19.25,0-.47.06-1.61.26-2.68,1.17-1.3,1.1-1.63,2.51-1.71,2.93v113.64c.03.42.2,1.81,1.33,3.02h0Z"/>
    <path class="st19" d="M241.84,446.1c1.04,1.12,2.29,1.42,2.71,1.5h19.38c.38,0,1.67-.02,2.77-.96,1.76-1.51,1.37-3.92,1.35-4.04,0-37.92,0-75.85,0-113.77-.01-.29-.1-1.45-1.02-2.39-1.15-1.18-2.66-1.1-2.89-1.08-6.42,0-12.83,0-19.25,0-.47.06-1.61.26-2.68,1.17-1.3,1.1-1.63,2.51-1.71,2.93v113.64c.03.42.2,1.81,1.33,3.02h0Z"/>
    <path class="st19" d="M205.46,322.2c1.04,1.12,2.29,1.42,2.71,1.5h19.38c.38,0,1.67-.02,2.77-.96,1.76-1.51,1.37-3.92,1.35-4.04,0-37.92,0-75.85,0-113.77-.01-.29-.1-1.45-1.02-2.4-1.15-1.18-2.66-1.1-2.88-1.09-6.41,0-12.83,0-19.25,0-.47.06-1.61.26-2.68,1.16-1.3,1.1-1.63,2.51-1.71,2.93v113.64c.03.42.2,1.81,1.33,3.02h0Z"/>
    <path class="st19" d="M241.84,322.2c1.04,1.12,2.29,1.42,2.71,1.5h19.38c.38,0,1.67-.02,2.77-.96,1.76-1.51,1.37-3.92,1.35-4.04,0-37.92,0-75.85,0-113.77-.01-.29-.1-1.45-1.02-2.4-1.15-1.18-2.66-1.1-2.89-1.09-6.42,0-12.83,0-19.25,0-.47.06-1.61.26-2.68,1.16-1.3,1.1-1.63,2.51-1.71,2.93v113.64c.03.42.2,1.81,1.33,3.02h0Z"/>
  </g>
  <g>
    <path class="st12" d="M257.7,984.16c4.6-5.79,8.14-10.87,10.7-14.74,4.2-6.36,5.83-9.61,6.59-11.2,1.4-2.91,2.98-6.13,4.11-10.58.95-3.71,1.18-6.64,1.37-9.62.33-5.15.65-12.53.59-21.86.08-21.15.15-42.29.2-63.44.11-51.47.11-102.95,0-154.43.02-.74.08-1.82.28-3.1.4-2.61,1.11-4.49,1.36-5.15,1.02-2.74-.08-.35,3.52-11.28,1.99-6.03,3.17-9.31,3.85-12.78.43-2.21.72-4.43.72-4.43.21-1.64.31-2.88.39-3.91.11-1.4.22-3.21.28-5.35-.12-15.48-.19-36.33,0-61.06.11-14.43.27-24.98.29-26.75.37-25.72.47-148.64,0-454.73"/>
    <path class="st12" d="M272.5,936.13v-233.45c-.02-.57-.03-1.35,0-2.28.04-1.18.19-4.51,1.22-8.48.37-1.44.78-2.64,3.52-8.93,1.58-3.64,5.38-12.25,6.33-15.39.04-.14.4-1.34.91-3,.33-1.09.54-1.73.59-1.89.85-2.75.79-6.51.78-6.65-.05-3.4.3-231.9.78-546.33"/>
    <path class="st12" d="M292.24,488.43l3.06-6.47,2.3-5.53c.09-.32.17-.66.24-1.03.18-.94.22-1.79.2-2.51V109.73"/>
    <path class="st12" d="M298.14,425.79c.96-1.61,1.93-3.23,2.9-4.84.65-1.24,1.3-2.48,1.95-3.72.08-.19.17-.39.24-.59.55-1.42.76-3.08.76-3.08.05-.35.09-.82.11-1.38V109.73"/>
    <path class="st12" d="M264.17,936.13v-182.6"/>
    <path class="st12" d="M264.39,836.72c1.16-2.76,2.32-5.54,3.46-8.37,1.52-3.72,2.98-7.41,4.4-11.05"/>
    <path class="st12" d="M263.97,787.84l-20.4-33.78"/>
    <path class="st12" d="M243.57,785.41v-140.83"/>
    <path class="st12" d="M243.26,679.03l-9.68-14.74"/>
    <path class="st12" d="M233.37,919.57v-276.64"/>
    <path class="st12" d="M228.33,642.93v276.64"/>
    <path class="st12" d="M291.8,591.13c.23-.21.51-.49.75-.88.49-.78.57-1.54.62-2.15.25-2.8.26-4.04.26-4.04.02-2.09-.02-2.05,0-3.2.03-1.84.05-3.09.29-4.63.31-1.97.82-3.41,1.27-4.7.25-.71.86-2.35,1.86-4.27,1.78-3.42,3.92-6.05,5.46-7.78,3.38-3.81,10.65-10.99,20.74-19.73,12.48-11.3,24.96-22.61,37.43-33.91.27-.24.55-.51.83-.82.21-.23,1.03-1.17,1.96-3.28.36-.81.78-1.9,1.12-3.24,13.76-51.21,27.51-102.41,41.27-153.62"/>
    <path class="st12" d="M344.58,519.71c2.55-4.02,5.17-8.04,7.89-12.07.23-.34.46-.67.68-1.01.19-.45.46-1.1.78-1.89,1.27-3.2,2.01-5.67,2.61-7.73,1.01-3.45,2.05-7.09,3.13-10.96l39.1-143.33"/>
    <path class="st12" d="M324.59,537.94c1.92-3.15,3.84-6.33,5.75-9.54.29-.48.57-.96.86-1.44.22-.49.44-.98.66-1.47l1.96-7.12c15.43-56.77,30.86-113.54,46.29-170.32v-1.64c.11-78.69.23-157.38.34-236.07"/>
    <path class="st12" d="M375.86,362.58V110.35"/>
    <path class="st14" d="M228.4,53.78H29.6"/>
    <path class="st14" d="M228.4,41.55H29.6"/>
    <path class="st14" d="M524.64,604.85c29.61-109.91,59.22-219.83,88.83-329.74"/>
    <path class="st14" d="M602.11,272.31c-29.71,109.4-59.41,218.8-89.12,328.21"/>
  </g>
  <g>
    <path class="st7" d="M573.78,215.92l1.91-7.71-11.04-3.34c-.86,2.4-1.72,4.81-2.58,7.21l11.7,3.84h0Z"/>
    <polygon class="st7" points="580.49 190.64 569.46 187.62 571.21 180.82 582.18 183.67 580.49 190.64"/>
    <polygon class="st7" points="586.65 167.47 575.84 164.19 577.97 157.54 588.76 160.57 586.65 167.47"/>
    <polygon class="st7" points="592.69 145.21 581.34 141.79 585.5 128.68 596.36 132.32 592.69 145.21"/>
  </g>
  <g>
    <path class="st16" d="M304.44,961.98c-.09-8.27-.18-16.54-.27-24.82-.09-162.41-.18-324.82-.27-487.22h15.27c54.78,14.5,109.49,29.28,164.12,44.33.6.17,3.93,1.08,4.52,1.25-.34,1.22-.68,2.44-1.02,3.67-1.49-.42-2.98-.85-4.47-1.27-7.7,28.65-15.41,57.29-23.11,85.93"/>
    <path class="st16" d="M378.83,466.53c-11.73,44.26-23.46,88.52-35.18,132.78"/>
    <path class="st16" d="M314.83,589.68h29.84"/>
    <path class="st16" d="M304.2,568.09c20.89-18.82,41.78-37.64,62.67-56.46"/>
    <path class="st16" d="M420.42,900.6c19.07-71.74,38.13-143.48,57.2-215.22"/>
    <path class="st16" d="M304.56,624.45c35,9.53,70,19.07,105,28.6"/>
    <path class="st16" d="M417.02,626.89c-10.15,37.54-20.3,75.09-30.46,112.63"/>
    <path class="st16" d="M304.45,716.74c51.25,13.91,102.49,27.83,153.74,41.73"/>
    <path class="st16" d="M438.27,833.43c3.01.72,6.01,1.45,9.02,2.17"/>
    <path class="st16" d="M323.17,450.82c-.08-127.66-.16-255.32-.24-382.99H46.92v253.26"/>
    <path class="st17" d="M322.24,102.66h-54.49c-.07,30.29-.13,60.59-.2,90.88h-61.65"/>
    <path class="st15" d="M304.8,862.2h30.72c2.14-3.95,4.28-7.89,6.42-11.84-.18-15.76-.35-31.51-.53-47.27,6.33-23.35,12.66-46.71,18.99-70.06"/>
    <path class="st15" d="M346.02,784.38c-13.5-3.69-27.01-7.37-40.51-11.06"/>
    <path class="st15" d="M425.19,843.33c-13.31-3.67-26.62-7.34-39.93-11.01h-42.88"/>
    <path class="st15" d="M385.26,832.33c7.62-28.71,15.24-57.42,22.86-86.14"/>
    <path class="st18" d="M431.07,458.73l-38.35-10.24c2.54-9.59,5.09-19.17,7.63-28.76,12.78,3.54,25.57,7.09,38.35,10.63-2.54,9.46-5.09,18.91-7.63,28.37Z"/>
    <path class="st15" d="M425.42,477.92c1.61-7.49,3.23-14.98,4.84-22.47"/>
    <path class="st15" d="M401.26,421.8l22.12-81c15.52,4.19,31.03,8.38,46.55,12.57-7.38,28.11-14.76,56.22-22.14,84.33-4.52-1.17-9.03-2.35-13.55-3.52"/>
    <path class="st15" d="M447.8,437.7c17.88,4.86,35.75,9.73,53.62,14.59,17.29-63.38,34.57-126.76,51.87-190.14-9.99-2.62-19.98-5.25-29.97-7.87-7.93-2.04-15.86-4.07-23.79-6.1-9.86,35.06-19.73,70.13-29.59,105.19"/>
    <path class="st15" d="M465.64,370.75c17.9,4.99,35.8,9.98,53.71,14.97"/>
  </g>
  <polygon class="st10" points="392.02 895.24 342.54 895.28 342.54 857.15 392.02 857.15 392.02 895.24"/>
  <g>
    <g>
      <path class="st8" d="M254.22,971.62c-.21-.91-.4-2.34,0-3.95.41-1.66,1.26-2.79,2.48-4.21,1.43-1.66,3.43-3.82,6.1-6.2,4.29,2.74,8.58,5.47,12.87,8.21,5.62-.03,11.25-.07,16.88-.1.55-22.28,1.11-44.57,1.66-66.85,3.06.45,7.76,1.13,13.5,1.89,22.4,2.98,33.82,4.47,44.02,3.98,6.55-.31,13.52-1.73,27.46-4.57,14.49-2.95,26.32-5.98,34.43-8.22,4.84-14.98,9.67-29.96,14.51-44.93,2.97,1.51,5.61,2.36,7.57,2.87,1.78.46,3.3.71,4.32.84,2.02.27,3.81.34,5.27.33,3.6-12.71,7.21-25.41,10.81-38.12,19.58,5.48,39.15,10.96,58.73,16.43-6.95,25.8-13.9,51.61-20.85,77.41-21.49-5.73-42.99-11.47-64.48-17.2,3.51-12.95,7.02-25.91,10.53-38.86"/>
      <path class="st8" d="M553.06,685.73c-26.71-7.03-53.41-14.07-80.12-21.1-3.78,13.63-7.57,27.26-11.35,40.89-3.39-.91-6.78-1.83-10.17-2.74"/>
      <path class="st8" d="M509.33,673.47c5.5-20.35,11-40.7,16.5-61.04-26.47-7.23-52.93-14.46-79.4-21.68-2.45,9.04-4.89,18.09-7.34,27.13-11.52-3.11-23.04-6.22-34.57-9.33-.76,3.09-1.52,6.17-2.28,9.26"/>
      <path class="st8" d="M413.04,704.35c3.03-10.47,6.07-20.93,9.1-31.4,8.72,2.32,17.43,4.64,26.15,6.96,7.29-27.56,14.58-55.12,21.88-82.69"/>
      <path class="st8" d="M422.26,672.67c2.32-8.48,4.64-16.97,6.96-25.45l-9.47-2.64c-1.4,4.68-2.8,9.36-4.21,14.04,3.06.84,6.12,1.68,9.18,2.52"/>
      <path class="st8" d="M466.06,595.75c30.93-113,61.87-226,92.8-339"/>
      <path class="st8" d="M312.14,701.3v-16.11c3.02,1.15,6.04,2.3,9.07,3.46"/>
      <path class="st8" d="M498.99,449.02c5.61-20.34,11.22-40.68,16.83-61.03l-47.09-12.98c-5.51,20.16-11.02,40.33-16.53,60.49,15.6,4.51,31.2,9.01,46.79,13.52h0Z"/>
      <path class="st8" d="M463.45,503.17l2.28-8.35c-25.08-6.87-50.15-13.74-75.23-20.61-.8,2.98-1.61,5.96-2.41,8.93"/>
      <path class="st8" d="M494.1,491.77c-35.65-9.59-71.3-19.17-106.96-28.76,11.48-42.58,22.96-85.15,34.43-127.73,14.69,4.09,29.38,8.17,44.06,12.26,11.25-41.14,22.49-82.28,33.74-123.43,21.53,5.84,43.05,11.68,64.58,17.53"/>
      <path class="st11" d="M499.77,905.24c-.66,2.13-1.33,4.26-1.99,6.39l-68.25-18.55c-25.79,6.13-51.59,12.26-77.38,18.39-10.08,4.07-20.16,8.14-30.24,12.21-10.48,17.24-20.96,34.48-31.43,51.72h-66.39"/>
    </g>
    <rect class="st8" x="342.43" y="856.95" width="49.73" height="38.54"/>
  </g>
  <line class="st13" x1="236.21" y1="573.3" x2="236.21" y2="201.96"/>
  <g>
    <g>
      <path class="st20" d="M226.15,910.05c-.9-.07-1.35-.78-1.4-.85v-22.01c.05-.06.57-.65,1.4-.59.76.06,1.17.63,1.22.71.02,2.1.05,4.2.08,6.29.32-.29,1.71-1.5,3.85-1.53,2.13-.03,3.54,1.13,3.88,1.42v-6.21c.11-.09.65-.49,1.42-.41.71.07,1.14.5,1.25.61v22.36c-.21.13-.71.41-1.42.41-.72,0-1.24-.29-1.44-.41v-6.26c-.63.33-2.01.93-3.84.88-1.63-.05-2.85-.6-3.47-.93v5.9c-.05.07-.62.7-1.52.63h0Z"/>
      <path class="st20" d="M226.1,813.62c-.9-.07-1.35-.78-1.4-.85v-22.01c.05-.06.57-.65,1.4-.59.76.06,1.17.63,1.22.71.02,2.1.05,4.2.08,6.29.32-.29,1.71-1.5,3.85-1.53,2.13-.03,3.54,1.13,3.88,1.42v-6.21c.11-.09.65-.49,1.42-.41.71.07,1.14.5,1.25.61v22.36c-.21.13-.71.41-1.42.41-.72,0-1.24-.29-1.44-.41v-6.26c-.63.33-2.01.93-3.84.88-1.63-.05-2.85-.6-3.47-.93v5.9c-.05.07-.62.7-1.52.63h0Z"/>
      <path class="st20" d="M225.65,716.98c-.9-.07-1.35-.78-1.4-.85v-22.01c.05-.06.57-.65,1.4-.59.76.06,1.17.63,1.22.71.02,2.1.05,4.2.08,6.29.32-.29,1.71-1.5,3.85-1.53,2.13-.03,3.54,1.13,3.88,1.42v-6.21c.11-.09.65-.49,1.42-.41.71.07,1.14.5,1.25.61v22.36c-.21.13-.71.41-1.42.41-.72,0-1.24-.29-1.44-.41v-6.26c-.63.33-2.01.93-3.84.88-1.63-.05-2.85-.6-3.47-.93v5.9c-.05.07-.62.7-1.52.63h0Z"/>
      <path class="st20" d="M520.88,576.48c-.85-.3-1.1-1.1-1.12-1.19l5.7-21.26c.06-.04.72-.48,1.5-.21.72.26.97.91,1,1-.52,2.03-1.03,4.07-1.55,6.1.39-.2,2.03-1.01,4.11-.48,2.07.53,3.13,2.01,3.38,2.37.53-2,1.07-3.99,1.6-5.99.13-.05.76-.3,1.48-.03.66.25.97.78,1.05.91-1.93,7.2-3.86,14.4-5.79,21.6-.23.07-.79.21-1.47.03-.7-.18-1.12-.6-1.28-.78l1.62-6.05c-.7.15-2.18.38-3.94-.14-1.56-.47-2.6-1.32-3.11-1.8-.51,1.9-1.02,3.8-1.53,5.7-.07.05-.78.52-1.63.22h0Z"/>
      <path class="st20" d="M543.69,491.89c-.85-.3-1.1-1.11-1.12-1.19l5.7-21.26c.06-.05.72-.48,1.5-.2.72.26.97.91,1,1-.52,2.03-1.03,4.07-1.55,6.1.39-.2,2.03-1.01,4.11-.48,2.07.52,3.13,2.01,3.38,2.37.53-2,1.07-3.99,1.6-5.99.13-.05.76-.3,1.48-.04.66.25.97.77,1.05.91-1.93,7.2-3.86,14.4-5.79,21.6-.23.07-.79.21-1.47.03-.7-.18-1.12-.6-1.28-.77l1.62-6.05c-.7.15-2.18.38-3.94-.14-1.56-.47-2.6-1.32-3.11-1.8-.51,1.9-1.02,3.8-1.53,5.7-.07.05-.78.52-1.63.22h0Z"/>
      <path class="st20" d="M566.94,404.98c-.85-.3-1.1-1.11-1.12-1.19l5.7-21.26c.06-.05.72-.48,1.5-.2.72.26.97.91,1,1-.52,2.03-1.03,4.07-1.55,6.1.39-.2,2.03-1.01,4.11-.48,2.07.52,3.13,2.01,3.38,2.37.53-2,1.07-3.99,1.6-5.99.13-.05.76-.3,1.48-.04.66.25.97.77,1.05.91-1.93,7.2-3.86,14.4-5.79,21.6-.23.07-.79.21-1.47.03-.7-.18-1.12-.6-1.28-.77l1.62-6.05c-.7.15-2.18.38-3.94-.14-1.56-.47-2.6-1.32-3.11-1.8-.51,1.9-1.02,3.8-1.53,5.7-.07.05-.78.52-1.63.22h0Z"/>
      <path class="st20" d="M588.6,324.34c-.85-.3-1.1-1.11-1.12-1.19l5.7-21.26c.06-.05.72-.48,1.5-.2.72.26.97.91,1,1-.52,2.03-1.03,4.07-1.55,6.1.39-.2,2.03-1.01,4.11-.48,2.07.52,3.13,2.01,3.38,2.37.53-2,1.07-3.99,1.6-5.99.13-.05.76-.3,1.48-.04.66.25.97.77,1.05.91-1.93,7.2-3.86,14.4-5.79,21.6-.23.07-.79.21-1.47.03-.7-.18-1.12-.6-1.28-.77l1.62-6.05c-.7.15-2.18.38-3.94-.14-1.56-.47-2.6-1.32-3.11-1.8-.51,1.9-1.02,3.8-1.53,5.7-.07.05-.78.52-1.63.22h0Z"/>
      <path class="st20" d="M224.65,53.42c.01.58-.29.99-.43,1.17-.2.26-.39.41-.43.43h-22.01c-.06-.06-.65-.65-.59-1.6.06-.87.63-1.34.71-1.4,2.53.03,5.06.06,7.59.09-.5-.34-1.7-1.26-2.27-2.91-.49-1.42-.28-2.64-.15-3.33.25-1.33.82-2.29,1.19-2.84-2.15-.03-4.31-.06-6.46-.08-.11-.19-.4-.74-.34-1.5.07-.77.47-1.27.61-1.43h22.36c.13.23.45.82.41,1.62-.03.71-.32,1.22-.46,1.44h-6.36c.37.41,1,1.22,1.31,2.4.52,1.99-.24,3.63-.51,4.19-.62,1.28-1.5,2.07-2.07,2.49,2.46.03,4.91.05,7.36.07.1.1.52.53.54,1.19h0Z"/>
      <path class="st20" d="M54.26,53.6c.01.58-.29.99-.43,1.17-.19.26-.39.41-.43.43h-22.01c-.06-.06-.65-.65-.59-1.6.06-.87.63-1.34.71-1.4,2.53.03,5.06.06,7.59.09-.5-.34-1.7-1.26-2.28-2.91-.49-1.42-.28-2.64-.15-3.33.25-1.33.82-2.29,1.19-2.84-2.15-.03-4.31-.06-6.46-.08-.11-.19-.41-.74-.34-1.5.07-.77.47-1.27.61-1.43h22.36c.13.23.44.82.41,1.62-.03.71-.32,1.22-.46,1.44h-6.36c.37.41,1,1.22,1.31,2.4.52,1.99-.24,3.63-.51,4.19-.62,1.28-1.5,2.07-2.07,2.49,2.46.03,4.91.05,7.36.07.1.1.52.53.54,1.19h0Z"/>
      <path class="st20" d="M371.98,305.37c-1.08-.08-1.62-.83-1.68-.9v-23.26c.06-.06.68-.69,1.68-.62.92.07,1.41.67,1.47.75.03,2.22.06,4.43.09,6.65.39-.31,2.05-1.59,4.63-1.62,2.57-.03,4.27,1.2,4.67,1.5v-6.56c.14-.09.79-.52,1.71-.44.85.07,1.37.52,1.5.65v23.64c-.24.14-.86.43-1.71.43s-1.49-.3-1.74-.44v-6.62c-.76.35-2.42.99-4.62.93-1.96-.05-3.43-.63-4.18-.98v6.23c-.07.07-.74.74-1.83.67h0Z"/>
      <path class="st20" d="M372.11,148.76c-1.08-.07-1.62-.79-1.68-.87v-22.27c.06-.06.68-.66,1.68-.6.92.06,1.41.64,1.47.72.03,2.12.06,4.25.09,6.37.39-.3,2.05-1.52,4.63-1.55,2.57-.03,4.27,1.15,4.67,1.43v-6.28c.14-.09.79-.5,1.71-.42.85.07,1.37.5,1.5.62v22.63c-.24.13-.86.41-1.71.41-.87,0-1.49-.29-1.74-.42v-6.34c-.76.33-2.42.95-4.62.89-1.96-.05-3.43-.6-4.18-.94v5.97c-.07.07-.74.71-1.83.64h0Z"/>
      <polygon class="st20" points="230.95 525.41 230.95 522.87 224.93 522.87 224.93 512.45 230.95 512.45 230.95 510.15 207.27 510.15 207.27 512.6 216.22 512.6 216.22 522.92 207.27 522.92 207.27 525.41 230.95 525.41"/>
      <polygon class="st20" points="265.14 525.41 265.14 522.87 259.13 522.87 259.13 512.45 265.14 512.45 265.14 510.15 241.47 510.15 241.47 512.6 250.42 512.6 250.42 522.92 241.47 522.92 241.47 525.41 265.14 525.41"/>
      <polygon class="st20" points="230.52 408.51 230.52 405.97 224.51 405.97 224.51 395.55 230.52 395.55 230.52 393.25 206.85 393.25 206.85 395.7 215.8 395.7 215.8 406.02 206.85 406.02 206.85 408.51 230.52 408.51"/>
      <polygon class="st20" points="265.4 408.51 265.4 405.97 259.39 405.97 259.39 395.55 265.4 395.55 265.4 393.25 241.73 393.25 241.73 395.7 250.68 395.7 250.68 406.02 241.73 406.02 241.73 408.51 265.4 408.51"/>
      <polygon class="st20" points="230.54 292.92 230.54 290.37 224.52 290.37 224.52 279.95 230.54 279.95 230.54 277.65 206.86 277.65 206.86 280.1 215.82 280.1 215.82 290.42 206.86 290.42 206.86 292.92 230.54 292.92"/>
      <polygon class="st20" points="265.55 292.92 265.55 290.37 259.54 290.37 259.54 279.95 265.55 279.95 265.55 277.65 241.88 277.65 241.88 280.1 250.83 280.1 250.83 290.42 241.88 290.42 241.88 292.92 265.55 292.92"/>
      <polyline class="st20" points="320.8 378.99 320.8 377.16 294.45 377.16 294.45 370.15 320.8 370.15 320.8 368.13 270.19 368.13 270.19 370.8 286.63 370.8 286.63 377.16 270.61 377.16 270.61 378.99"/>
      <polyline class="st20" points="321.03 281.61 321.03 279.79 294.68 279.79 294.68 272.77 321.03 272.77 321.03 270.75 270.42 270.75 270.42 273.43 286.86 273.43 286.86 279.79 270.85 279.79 270.85 281.61"/>
      <polyline class="st20" points="320.15 168.14 320.15 166.32 293.8 166.32 293.8 159.3 320.15 159.3 320.15 157.28 269.54 157.28 269.54 159.96 285.98 159.96 285.98 166.32 269.96 166.32 269.96 168.14"/>
      <rect class="st5" x="167.76" y="172.87" width="30.46" height="22.89"/>
      <path class="st5" d="M167.76,172.87l30.2,22.68"/>
      <path class="st5" d="M167.76,195.76l30.46-22.89"/>
      <rect class="st5" x="167.69" y="292.92" width="30.46" height="22.89"/>
      <path class="st5" d="M167.69,292.92l30.2,22.68"/>
      <path class="st5" d="M167.69,315.81l30.46-22.89"/>
      <rect class="st5" x="167.57" y="413.14" width="30.46" height="22.89"/>
      <path class="st5" d="M167.57,413.14l30.2,22.68"/>
      <path class="st5" d="M167.57,436.04l30.46-22.89"/>
      <rect class="st5" x="167.79" y="533.27" width="30.46" height="22.89"/>
      <path class="st5" d="M167.79,533.27l30.2,22.68"/>
      <path class="st5" d="M167.79,556.16c10.15-7.63,20.3-15.26,30.46-22.89"/>
    </g>
    <polygon class="st20" points="526.18 528.9 526.8 526.43 520.96 524.98 523.48 514.87 529.32 516.32 529.88 514.09 506.9 508.36 506.31 510.74 515 512.91 512.5 522.92 503.82 520.75 503.21 523.17 526.18 528.9"/>
    <polygon class="st20" points="554.75 423.21 555.37 420.75 549.53 419.29 552.05 409.18 557.89 410.64 558.44 408.41 535.47 402.68 534.88 405.05 543.57 407.22 541.07 417.23 532.39 415.07 531.78 417.49 554.75 423.21"/>
    <polygon class="st20" points="584.16 314.21 584.82 311.76 579.01 310.2 581.7 300.14 587.52 301.69 588.11 299.47 565.24 293.34 564.61 295.7 573.26 298.02 570.59 307.99 561.94 305.67 561.29 308.08 584.16 314.21"/>
  </g>
  <g>
    <rect class="st0" x="235.31" y="950.02" width="15.92" height="10.57"/>
    <rect class="st0" x="274.06" y="967.11" width="10.24" height="4.94"/>
    <rect class="st0" x="256.94" y="856.14" width="31.45" height="59.93"/>
    <rect class="st0" x="350.85" y="842.21" width="25.63" height="15.1"/>
    <rect class="st0" x="359.16" y="837.83" width="17.32" height="4.39"/>
    <polygon class="st0" points="321.4 917.78 349.41 906.7 349.41 889.23 331.31 889.23 331.31 870.94 315.02 870.94 315.02 889.18 311.31 889.18 311.31 898.28 308.27 898.28 308.27 911.59 313.36 916.18 318.79 915.45 321.4 917.78"/>
    <rect class="st0" x="342.86" y="881.36" width="4.3" height="7.24"/>
    <rect class="st0" x="342.73" y="859.01" width="3.13" height="6"/>
    <rect class="st0" x="348.31" y="860.54" width="8.97" height="4.47"/>
    <rect class="st0" x="360.4" y="859.16" width="8.7" height="7.78"/>
    <rect class="st0" x="373.88" y="864.05" width="9.68" height="1.92"/>
    <rect class="st0" x="373.88" y="861.7" width="9.68" height="1.79"/>
    <rect class="st0" x="373.88" y="859.16" width="9.68" height="1.96"/>
    <rect class="st0" x="387.09" y="858.64" width="2.41" height="9.59"/>
    <polygon class="st0" points="401.21 877.19 418.75 882.22 428.8 847.22 410.95 842.06 401.21 877.19"/>
    <polygon class="st0" points="431.75 885.83 446.45 890.08 454.39 861.14 440.01 856.93 431.75 885.83"/>
    <polygon class="st0" points="452.25 891.56 466.47 895.93 474.69 866.71 460.4 862.41 452.25 891.56"/>
    <polygon class="st0" points="478.26 898.67 491.46 902.48 498.27 879.79 484.96 875.87 478.26 898.67"/>
    <polygon class="st0" points="420.17 658.34 422.58 650.12 426.33 651.4 423.95 659.68 420.17 658.34"/>
    <polygon class="st0" points="423.64 670.13 428.68 652.03 439.29 655.16 434.55 673.47 423.64 670.13"/>
    <polygon class="st0" points="460.86 730.18 462.62 724.57 459.64 723.66 457.98 729.23 460.86 730.18"/>
    <polygon class="st0" points="464.46 687.96 460.3 686.85 462.96 679.02 466.67 680.39 464.46 687.96"/>
    <polygon class="st0" points="450.5 729.04 456.43 709.41 453.47 708.37 454.93 702.11 444.3 699.04 441.05 710.39 407.26 701 402.96 716.74 450.5 729.04"/>
    <polygon class="st0" points="411.96 721.48 415.28 710.65 407.39 708.5 404.2 719.39 411.96 721.48"/>
    <polygon class="st0" points="420.42 733.09 423.57 722.07 449.27 728.72 448.09 733.67 435.37 730.18 433.28 736.87 420.42 733.09"/>
    <polygon class="st0" points="443 720.11 445.28 712.87 455.2 715.93 453.24 723.11 443 720.11"/>
    <polygon class="st0" points="479.62 651.14 484.77 633.53 468.53 628.97 467.3 633.01 460.35 631.45 456.13 644.59 479.62 651.14"/>
    <polygon class="st0" points="497.86 632.95 501.29 621.01 465.83 610.91 462.16 623.41 497.86 632.95"/>
    <polygon class="st0" points="495.7 467.91 476.92 462.33 479.86 453.04 498.54 458.47 495.7 467.91"/>
    <polygon class="st0" points="459.28 479.28 460.55 475.95 466.86 478.05 470.48 467.29 466.81 465.92 469.65 457.66 459.82 454.04 458.79 455.99 445.98 451.93 444.21 456.58 442.26 457.27 439.77 466.36 442.94 467.91 441.14 473.85 459.28 479.28"/>
    <polygon class="st0" points="425.42 452.95 402.74 446.88 408.15 426.25 431.3 433.05 425.42 452.95"/>
    <polygon class="st0" points="380.44 442.48 370.98 439.9 378.61 409.95 388.19 412.79 380.44 442.48"/>
    <polygon class="st0" points="389.27 410.24 379.58 407.75 387.61 378.11 397.29 380.75 389.27 410.24"/>
    <polygon class="st0" points="397.98 378.48 388.44 375.79 396.41 345.57 405.67 348.7 397.98 378.48"/>
    <polygon class="st0" points="350.84 440.73 355.47 423.58 339.82 418.69 338.19 422.93 331.08 421.17 327.23 434.99 350.84 440.73"/>
    <polygon class="st0" points="360.46 395.41 334.18 395.41 334.18 314.28 360.46 314.28 360.46 320.38 368.22 320.38 368.22 364.82 360.52 364.82 360.46 395.41"/>
    <polygon class="st3" points="446.58 423.21 464.09 358.79 425.45 348.32 408.04 412.02 446.58 423.21"/>
    <polygon class="st3" points="473.48 368.77 514.67 380.11 546.1 264.19 504.62 253.43 473.48 368.77"/>
    <line class="st6" x1="524.91" y1="341.03" x2="484.02" y2="329.75"/>
    <line class="st6" x1="535.37" y1="303.78" x2="494.01" y2="292.73"/>
    <rect class="st3" x="176.56" y="77.23" width="40.89" height="34.89"/>
    <path class="st0" d="M217.65,173.29h43.47v-97.24h-43.47s0,97.73,0,97.24Z"/>
    <rect class="st0" x="187.32" y="83.5" width="23.82" height="20.84"/>
    <rect class="st0" x="348.21" y="85.2" width="17.56" height="11.4"/>
    <rect class="st3" x="334.11" y="50.93" width="44.35" height="28.63"/>
    <polyline class="st3" points="340.05 272.86 340.05 257.41 365.22 257.41 365.22 272.86 340.05 272.86"/>
    <rect class="st0" x="328.8" y="279.37" width="39.13" height="14.28"/>
    <rect class="st0" x="328.8" y="297.37" width="39.13" height="14.82"/>
    <rect class="st3" x="311.31" y="823.68" width="18.98" height="28.3"/>
    <rect class="st3" x="311.31" y="788.01" width="23.74" height="35.28"/>
    <polygon class="st3" points="340.59 777.57 314.83 770.66 325.77 730.16 351.48 737.33 340.59 777.57"/>
    <rect class="st3" x="250.4" y="652.09" width="23.57" height="13.6"/>
    <polygon class="st3" points="360.4 785.23 371.28 744.6 363.71 742.26 352.62 782.95 360.4 785.23"/>
    <polygon class="st3" points="350.99 820.19 371.28 744.6 395.15 751.48 374.67 826.55 350.99 820.19"/>
    <polygon class="st3" points="403.89 816.57 396.13 814.22 407.47 773.59 414.97 776.01 403.89 816.57"/>
    <polygon class="st3" points="420.42 757.29 443.73 763.75 423.19 839.23 399.81 832.33 420.42 757.29"/>
    <polygon class="st3" points="507.71 844.65 478.89 837.02 480.65 831.6 471.19 829 473.8 819.28 512.28 830.04 507.71 844.65"/>
    <polygon class="st3" points="508.76 806.95 475.89 797.85 504.74 695.92 537.32 705.02 508.76 806.95"/>
    <polygon class="st0" points="482.77 773.55 497.68 720.88 501.57 722.16 506.61 705.53 532.1 712.52 508.4 797.47 483.16 790.22 487.33 775.09 482.77 773.55"/>
    <polygon class="st3" points="317.02 701.3 342.89 708.54 359.16 648.59 333.24 641.56 317.02 701.3"/>
    <polygon class="st3" points="355.51 711.67 381.32 719.04 398.01 658.63 372.28 652.03 355.51 711.67"/>
    <polygon class="st3" points="483.05 679.62 484.77 674.6 492.83 677.11 495.83 666.65 453.7 655.43 449.73 669.84 483.05 679.62"/>
    <polygon class="st3" points="498.96 653.54 511.42 657.19 517.81 633.97 505.36 630.45 498.96 653.54"/>
    <polygon class="st3" points="219.31 656.11 207.13 656.11 207.13 649.46 199.16 649.46 199.16 600.03 259.81 600.03 259.81 581.15 281.14 581.15 281.14 592.79 297.18 592.79 297.18 581.15 318.83 581.15 318.83 589.17 330.7 593.08 322.29 621.74 310.36 619.2 297.96 619.2 297.96 621.84 272.73 621.84 272.73 628.14 219.49 628.14 219.31 656.11"/>
    <polygon class="st3" points="397.18 640.12 322.29 621.74 330.7 593.08 352.47 599.32 359.16 577.12 398.01 587.78 391.4 612.43 404.17 615.91 397.18 640.12"/>
    <polygon class="st3" points="333.23 504.89 344.58 462.64 329.37 458.29 320.02 491.99 324.59 493.7 322.67 501.97 333.23 504.89"/>
    <polygon class="st3" points="447.14 592.87 453.98 567.43 370.83 544.74 363.69 570.66 447.14 592.87"/>
    <polygon class="st3" points="455.42 561.27 462.72 536.03 379.24 513.34 372.39 538.77 455.42 561.27"/>
    <polygon class="st3" points="381.14 507.3 388.09 481.61 471 504.09 464.74 530.15 381.14 507.3"/>
    <line class="st6" x1="381.14" y1="507.64" x2="379.5" y2="513.34"/>
    <polygon class="st3" points="542.87 253.43 546.1 241.82 501.85 229.69 498.79 241.56 542.87 253.43"/>
    <path class="st0" d="M465.43,430.53c5.33,2.05,11.21-.95,13.04-5.87,2.18-5.85-2.02-12.63-7.99-13.57-4.51-.71-9.3,2.04-10.92,6.59-1.78,4.98.7,10.86,5.87,12.85h0Z"/>
    <path class="st0" d="M489.64,437.7c4.86,1.38,10.35-1.21,12.23-5.94,2.23-5.61-1.43-12.27-7.19-13.7-4.66-1.16-9.89,1.31-11.79,5.82-2.3,5.46,1.01,12.18,6.75,13.81Z"/>
    <path class="st0" d="M496.65,411.52c4.54,1.16,9.54-1.23,11.61-5.41,2.28-4.61-.1-9.1-.23-9.33-.27-.49-2.2-3.85-6.36-4.89-3.41-.86-7.33.1-9.91,2.93-2.89,3.17-3.18,7.67-1.63,11.09.23.52,2.11,4.48,6.52,5.61h0Z"/>
    <path class="st0" d="M485.76,398.08c-1.84,5.7-8.89,8.58-14.28,5.87-4.58-2.31-7-8.18-4.7-13.21,2.3-5.02,8.36-7.08,13.26-4.98,4.77,2.05,7.26,7.56,5.72,12.31Z"/>
    <path class="st0" d="M495.07,369.53c7.71,1.8,16.14-2.61,18.72-10.3,2.86-8.55-2.54-18.13-11.22-20.41-7.9-2.08-16.56,2.39-19.17,10.17-2.93,8.75,2.83,18.48,11.67,20.54h0Z"/>
    <path class="st0" d="M504.46,331.32c7.74,2.25,17.03-2.01,19.53-10.43,2.53-8.52-3.1-17.17-11-19.5-7.08-2.09-15.2,1.14-18.48,7.63-4.2,8.31.72,19.62,9.95,22.3Z"/>
    <path class="st0" d="M514.69,294.43c5.79,1.35,13.81-.32,17.75-6.96,2.99-5.05,2.82-11.58-.52-16.52-3.89-5.74-10.91-7.66-16.73-6.34-.85.19-8.12,1.98-11.11,9.21-.13.32-3.17,8.02,1.57,14.67,2.96,4.17,7.26,5.52,9.05,5.93h0Z"/>
  </g>
  <g>
    <path class="st2" d="M325.16,871.51c-1.33-5.64-.41-7.91.78-8.91,2.06-1.72,4.86.42,8.67-1.48,2.6-1.29,3.92-3.59,5.02-5.52,2.17-3.77,2.54-7.32,2.74-9.39,1.14-11.85.91-18.46.91-18.46,0,0-.35-10.44,0-21.68.11-3.39.67-17.48,5.01-35.12,1.95-7.93,4.23-14.8,6.39-20.48,3.01-8.13,5.23-14.1,6-16.43.15-.46.53-1.65,1.57-2.15.74-.36,1.46-.2,2.67,0,2.47.4,2.74.21,4.11.46,5.4.97,12.06,5.78,19.08,5.27,2.18-.16,4.31-1.13,8.56-3.09,7.27-3.34,7.39-5.35,11.43-5.87,5.04-.65,7.85,2.1,10.7,0,1.88-1.38,1.24-3,2.96-3.72,2.97-1.25,6.3,3,9.56,1.57.81-.35,1.35-.94,1.66-1.37"/>
    <path class="st2" d="M433.88,707.62c.33-2.55.55-7.56-2.41-12.03-1.07-1.61-2.15-2.56-4.04-4.21-3.88-3.39-7.51-5.27-11.35-7.24-4.41-2.26-6.01-2.64-9.98-5.12-1.67-1.04-2.99-1.97-3.86-2.61,1.8-5.31,3.27-10.05,4.44-14.09.93-3.22,1.52-5.42.59-7.83-1.16-2.99-3.99-4.52-5.48-5.18-2.39.07-5.96.06-10.27-.39-9.69-1.02-14.86-3.43-25.37-6.72-.96-.3-8.94-2.35-24.91-6.46-7.62-1.96-15.08-4.73-22.86-5.84-3.41-.48-9.5-1.17-13.09-5.8-1.11-1.43-1.69-2.87-2.01-3.86"/>
    <path class="st2" d="M304.2,579.53c-.02-1.21.16-3.11,1.46-4.17,1.47-1.2,3.59-.66,6.78,0,3.27.68,6.58,1.11,9.85,1.76,5.26,1.05,4.29.21,13.83,1.37,5.99.73,10.14,1.53,12.62-.46,1.3-1.04,2.25-2.48,2.25-2.48,1.08-1.63,1.44-3.15,1.57-3.65,8.76-36.19,13.24-48.97,13.24-48.97,5.86-16.73,9.82-16.48,10.17-26.39.2-5.58-.84-11.68,2.86-18.62,1.23-2.3,3.4-6.23,7.64-7.57,2.3-.72,5.23,0,11.09,1.43,4.33,1.07,5.61,1.84,6,3,.57,1.67-1.13,2.89-.65,4.48.77,2.55,6.23,3,7.17,3.08,15.65,1.35,15.98,7.64,51.95,13.83,4.24.73,9.77,1.59,12.52,5.87,2.24,3.48,1.8,7.89,1.47,11.28-.52,5.2-2.28,9.16-3.52,11.47"/>
    <path class="st2" d="M424.39,485.8c.18-.51.45-1.27.78-2.2,2.06-5.67,5.34-14.73,10.43-23.12,4.44-7.33,6.67-11,10.2-12.88,4.36-2.32,12.48-4.21,19.93-1.53,2.85,1.03,4.58,2.36,6.9,1.66,3.59-1.07,5.1-5.9,5.87-8.49,5.03-16.88,7.93-34.65,11.15-44.27,1.71-5.12,2.57-7.69,3.96-10.02.93-1.56,2.31-3.56,3.47-6.84,1.51-4.26.81-5.5.49-5.93-.81-1.08-2.12-.96-3.96-1.42-3.54-.9-5.79-3.19-7.41-4.83-.8-.81-5.26-5.35-5.26-12.33,0-5.23,2.51-8.84,3.91-10.86,1.88-2.71,4.15-5.97,7.63-6.36,2.49-.28,4.05,1.09,5.53,0,1.24-.92,1.58-2.94,1.2-4.46-.56-2.2-2.47-2.56-4.38-4.64-2.26-2.46-2.71-5.36-3.19-8.41-.38-2.4-1.1-6.97,1.35-11.84.73-1.46,3.5-6.96,8.3-7.83,2.08-.38,3.58.29,5.77-.94.28-.16,2.87-1.65,2.72-3.39-.12-1.41-1.93-1.8-3.7-3.3-2.8-2.37-3.48-5.8-4.01-8.51-.33-1.66-1.38-6.98,1.47-12.13,2.73-4.93,7.62-7.18,8.91-7.73,3.81-1.61,6.38-1.12,8.17-3.55,1.56-2.11.44-3.57,1.81-4.96,1.43-1.46,4.07-1.28,13.58,1.04,8.54,2.08,10.9,3.03,12.52,1.6,1.59-1.4,2.02-4.66.52-6.85-1.27-1.86-3.45-2.23-3.96-2.3"/>
    <path class="st2" d="M522.97,254.13c-6.03-2.37-12.07-4.73-18.11-7.1-4.35,9.05-7.31,16.6-9.13,21.52-10.27,27.81-16.49,44.67-18.1,66.83-.58,7.98-.52,16.15-5.48,18.73-1.95,1.02-3.99.8-18.39-3.88-12.82-4.17-17.65-6.11-21.98-3.62-1.58.91-2.7,2.31-4.96,5.12-4.63,5.77-4.32,8.7-7.57,10.29-2.88,1.4-7.08,1.03-9.13-1.15-2.04-2.17-.36-4.49-1.57-10.63-.6-3.08-1.62-8.29-5.3-10.24-1.95-1.03-2.65-.1-7.35-.39-2.52-.16-7.52-.52-12.26-3.26-1.68-.97-5.09-2.95-6.91-6.6-2.46-4.93-.73-10.33,0-12.98.79-2.88-.09-.79,0-30.9.1-33.62,1.17-28.39.52-38.84-.9-14.58-2.66-19.54-3.13-37.73-.21-8.07-.05-14.24,0-15.91.45-15.52,1.88-19.96,3.13-36,1.1-14.13,1.08-24.73,1.05-32.37-.1-24.26-2.1-15.87-1.57-27.89.23-5.33.74-9.66-2.09-12.65-3.18-3.36-8.4-2.71-14.71-2.38-9.63.5-21.92,1.15-31.7-1.57-13.08-3.64-12.74-10.82-26.02-14.28-9.42-2.46-16.45-.63-23.38.39-19.97,2.95-31.07-1.89-54-5.44-33.82-5.24-29.52,2.21-76.99-1.76-30.67-2.57-61.55,1.33-92.32.81-.57,0-2.37-.05-3.88,1.08-2.98,2.21-2.67,7.27-2.61,8.74.69,17.06-3.32,34-4.04,51.06-.8,18.82-2.14,15.99-2.38,31.11-.24,15.01,1.1,17.24,1.79,36.39,1.1,30.48-2.19,27.23,0,43.14,1.96,14.24,5.37,22.51,3.78,37.99-.63,6.13-1.81,11.12-2.74,14.48"/>
    <path class="st4" d="M38.74,284.19c2.07-.81,5.06,1.1,6.31,3.47,1.5,2.87.19,5.9-.34,7.14-.4.93-1.42,3.19-3.81,4.35-.77.38-2.42,1.17-3.47.49-1.1-.71-.4-2.27-.63-6.85-.19-3.73-.8-5.39.39-7.19.28-.43.74-1.1,1.56-1.42h0Z"/>
    <path class="st4" d="M467.98,524.8c1.3-.85,3.33-1.03,4.51,0,1.77,1.54,1.17,5.4-1.12,6.87-1.27.82-3.26,1.02-4.43.02-1.78-1.52-1.24-5.4,1.04-6.89h0Z"/>
    <circle class="st1" cx="309.43" cy="849.72" r="1.16"/>
    <circle class="st1" cx="300.01" cy="727.07" r="1.16"/>
    <circle class="st1" cx="375.61" cy="719.66" r="1.16"/>
    <circle class="st1" cx="330.08" cy="648.09" r="1.16"/>
    <circle class="st1" cx="344.67" cy="595.07" r="1.16"/>
    <circle class="st1" cx="379.5" cy="508.36" r="1.15"/>
    <circle class="st1" cx="464.3" cy="532.92" r="1.16"/>
    <circle class="st1" cx="460.71" cy="478.83" r="1.15"/>
    <circle class="st1" cx="518.95" cy="357.95" r="1.16"/>
    <circle class="st1" cx="543.96" cy="252.9" r="1.16"/>
  </g>
</svg>